<svg width="1080" height="250" viewBox="0 0 1080 250" fill="none" xmlns="http://www.w3.org/2000/svg">
<path fill-rule="evenodd" clip-rule="evenodd" d="M282.705 81.3669C267.158 84.8136 254.725 93.9478 248.8 106.275C246.303 111.471 246.03 113.09 246.002 122.832C245.975 132.702 246.206 134.076 248.688 138.821C253.462 147.946 260.57 153.198 272.543 156.452C280.434 158.596 296.855 158.572 307.735 156.402C312.02 155.546 318.611 154.291 322.381 153.611L329.238 152.377L331.095 139.379C332.83 127.232 332.838 126.231 331.224 124.067C329.223 121.386 330.254 121.52 311.114 121.448L296.314 121.392L295.676 123.732C294.722 127.231 296.063 130.968 298.611 131.914C299.978 132.421 303.27 132.577 307.221 132.321L313.617 131.907L313.125 137.803C312.768 142.077 312.173 143.94 310.962 144.575C304.978 147.715 289.66 148.649 282.275 146.324C276.775 144.592 272.141 140.823 269.175 135.668C267.04 131.958 266.758 130.257 266.742 121.032C266.725 109.886 268.033 104.861 272.851 97.5643C274.808 94.6 276.179 93.5893 279.959 92.3217C287.024 89.9512 293.946 89.6056 299.606 91.3405C305.763 93.2279 308.797 96.6386 309.546 102.514C309.861 104.979 310.634 107.233 311.263 107.524C313.48 108.547 320.745 108.058 324.045 106.664C329.035 104.556 330.887 101.496 330.398 96.17C329.902 90.7833 327.252 87.7261 320.18 84.3817C310.973 80.0273 294.664 78.7157 282.705 81.3669ZM568.578 81.0948C550.079 84.6905 535.798 96.4587 531.482 111.661C526.813 128.106 534.44 146.922 548.512 153.68C575.028 166.414 618.331 154.533 618.331 134.524C618.331 131.06 614.378 128.017 608.38 126.863C600.364 125.32 599.982 125.493 599.328 130.93C597.844 143.292 591.709 148.391 578.337 148.379C565.795 148.367 558.236 144.143 553.652 134.589C550.695 128.424 550.499 112.925 553.29 105.915C556.594 97.6191 559.538 94.1479 564.824 92.3188C580.644 86.8436 593.967 92.1806 595.239 104.504C595.675 108.726 596.046 109.451 597.948 109.805C604.727 111.066 611.737 109.159 614.644 105.263C616.576 102.675 616.725 97.465 614.984 93.4014C613.38 89.6596 606.03 84.4781 599.113 82.2128C592.399 80.0136 577.034 79.4507 568.578 81.0948ZM663.827 81.3907C655.246 83.2918 649.522 85.8487 643.123 90.6379C636.34 95.715 630.373 103.312 628.237 109.589C626.236 115.476 626.218 127.979 628.205 133.817C632.967 147.814 646.095 156.659 664.994 158.602C689.696 161.143 711.346 151.375 720.95 133.356C724.421 126.842 725.312 114.218 722.841 106.525C718.401 92.6924 707.106 83.5747 691.198 80.9796C682.963 79.6364 670.927 79.8171 663.827 81.3907ZM764.552 81.3986C753.972 83.7424 744.525 88.8541 740.293 94.5244C737.913 97.7141 737.229 104.474 738.875 108.547C741.399 114.795 748.798 118.555 767.716 123.203C778.94 125.96 787.097 129.18 790.165 132.063C793.15 134.87 793.162 141.028 790.185 143.79C786.255 147.439 782.873 148.662 775.954 148.939C770.727 149.148 768.569 148.876 764.799 147.533C758.291 145.214 756.326 142.317 756.71 135.606L757.008 130.385L753.632 129.948C746.112 128.974 739.469 131.514 736.818 136.376C732.468 144.355 741.027 154.281 754.94 157.389C768.774 160.48 786.59 158.59 797.474 152.876C807.871 147.419 811.971 141.85 811.911 133.27C811.834 122.417 803.145 116.73 776.795 110.287C764.971 107.395 760.768 105.578 758.958 102.576C756.101 97.8365 760.067 91.3772 766.607 90.1182C779.91 87.5584 788.686 91.7983 788.689 100.788L788.691 104.659L793.984 104.306C807.844 103.384 812.929 91.2138 802.131 84.8085C794.291 80.1583 777.166 78.6041 764.552 81.3986ZM415.249 81.4699C412.392 81.7895 406.413 82.6173 401.962 83.3098C394.145 84.5256 393.886 84.6322 394.422 86.4239C398.836 101.195 398.91 135.706 394.556 148.642L393.137 152.855L397.555 154.209C406.714 157.017 414.821 158.022 428.233 158.014C439.027 158.007 442.358 157.73 447.97 156.374C459.97 153.475 468.212 149.019 472.647 143.033C476.571 137.737 477.219 128.366 473.968 123.949C471.079 120.026 465.309 116.319 459.808 114.854L455.544 113.718L460.949 109.973C465.237 107.001 466.626 105.44 467.675 102.41C471.226 92.1482 464.483 84.4788 449.57 81.8233C442.916 80.6377 424.402 80.4477 415.249 81.4699ZM888.145 84.0361C887.848 85.8602 885.718 89.9915 883.411 93.2172C878.35 100.296 867.546 108.197 858.215 111.643C854.828 112.894 852.057 114.341 852.057 114.857C852.057 116.476 857.77 125.481 862.369 131.11C875.354 147.007 891.716 158.383 901.692 158.449C908.274 158.493 914.383 154.603 914.383 150.367C914.383 149.081 913.493 148.453 910.664 147.744C902.604 145.724 887.369 133.707 876.912 121.121L872.5 115.81L877.081 113.262C884.73 109.009 895.74 100.866 899.96 96.342C904.225 91.7695 905.672 88.338 904.593 85.3578C903.817 83.2148 897.092 80.7615 891.925 80.7363C888.839 80.7212 888.658 80.8789 888.145 84.0361ZM351.474 82.0976C350.403 82.5676 350.213 83.543 350.742 85.8387C352.526 93.5706 353.377 111.979 352.39 121.501C351.822 126.984 351.056 136.039 350.688 141.623L350.019 151.777L353.731 154.58C357.37 157.331 357.583 157.385 364.743 157.382C368.759 157.38 372.488 157.056 373.03 156.662C373.638 156.22 373.661 154.566 373.09 152.346C370.999 144.212 370.768 121.774 372.614 106.036C373.605 97.5888 374.122 89.5963 373.765 88.2739C373.365 86.7975 371.709 85.0151 369.474 83.6546C366.238 81.6865 365.117 81.4418 359.378 81.4511C355.827 81.4576 352.27 81.7484 351.474 82.0976ZM493.822 82.0825C492.669 82.5892 492.61 83.8115 493.504 88.7303C495.463 99.5152 495.939 112.539 494.762 123.192C494.129 128.933 493.335 137.679 492.998 142.628C492.418 151.161 492.505 151.729 494.681 153.62C498.392 156.844 502.585 157.978 509.079 157.513C512.197 157.291 515.138 156.838 515.614 156.508C516.089 156.178 516.031 154.135 515.485 151.968C513.318 143.377 513.077 123.321 514.942 106.799C515.938 97.9804 516.454 89.6632 516.089 88.3171C515.677 86.7946 514.051 85.0324 511.787 83.6546C508.551 81.6865 507.43 81.4418 501.691 81.4511C498.14 81.4576 494.599 81.7412 493.822 82.0825ZM827.861 81.9421C826.698 82.1516 826.196 82.7267 826.523 83.4783C829.452 90.2067 830.019 115.779 827.68 135.666C826.85 142.725 826.451 149.467 826.791 150.646C827.638 153.581 832.657 156.869 837.191 157.458C841.537 158.023 850.58 156.97 850.325 155.929C847.55 144.647 847.195 122.473 849.477 103.07C851.223 88.2185 850.853 86.2828 845.675 83.2637C843.018 81.7146 841.583 81.4526 836.135 81.5238C832.608 81.5699 828.885 81.7578 827.861 81.9421ZM927.584 81.9421C926.414 82.153 925.922 82.7224 926.259 83.4783C929.152 89.9677 929.692 115.489 927.357 135.341C925.561 150.617 926.047 153.138 931.29 155.729C933.892 157.015 936.032 157.385 940.872 157.385C950.012 157.385 950.693 157.063 949.516 153.301C947.622 147.249 947.335 117.906 949.028 103.638C950.822 88.5287 950.408 86.1849 945.437 83.2861C942.738 81.7124 941.326 81.4526 935.858 81.5238C932.332 81.5699 928.609 81.7578 927.584 81.9421ZM686.89 92.1165C698.312 95.9576 703.888 104.617 703.886 118.513C703.885 130.74 699.599 139.707 691.261 144.926C683.679 149.674 674.733 150.238 663.509 146.677C652.563 143.205 646.987 134.419 647.003 120.672C647.02 107.241 652.125 95.3378 659.164 92.3231C666.976 88.9772 677.326 88.9002 686.89 92.1165ZM440.038 91.0713C445.615 92.6859 447.97 95.381 447.97 100.147C447.97 107.795 441.724 111.41 425.117 113.371C420.261 113.945 416.153 114.325 415.989 114.217C415.826 114.109 416.06 108.879 416.509 102.595L417.326 91.1692L420.443 90.7092C426.119 89.8706 436.558 90.0635 440.038 91.0713ZM446.65 122.446C456.893 125.668 459.407 136.83 451.251 142.874C445.997 146.766 441.153 147.979 430.83 147.987C416.81 147.998 417.261 148.391 416.385 135.359C415.981 129.346 416.031 124.162 416.497 123.838C418.179 122.673 428.896 121.127 435.505 121.096C440.028 121.074 443.708 121.52 446.65 122.446Z" fill="#00448E"/>
<path fill-rule="evenodd" clip-rule="evenodd" d="M647.764 57.6205C648.08 56.9422 648.223 56.6616 647.803 57.6568C647.793 57.6415 647.78 57.6295 647.764 57.6205Z" fill="#00448E"/>
<path fill-rule="evenodd" clip-rule="evenodd" d="M647.764 57.6205C648.08 56.9422 648.223 56.6616 647.803 57.6568C647.793 57.6415 647.78 57.6295 647.764 57.6205Z" fill="#00448E"/>
<path d="M658.917 64.9982C659.269 65.9346 659.433 67.3162 659.627 70.965C659.788 74.0148 659.924 75.1504 660.224 75.968C660.782 77.4914 661.734 78.5262 663.192 79.196C664.262 79.6874 664.667 79.7632 666.193 79.757C667.49 79.752 668.293 79.6324 669.23 79.3048C670.391 78.8988 671.672 78.1198 672.009 77.614C672.458 76.9414 671.164 76.9292 669.134 77.5868C666.159 78.5506 664.705 78.473 663.351 77.278L662.666 76.6726L663.547 76.8116C665.206 77.0734 666.682 76.8854 666.682 76.4124C666.682 76.0668 665.988 75.77 664.5 75.4792C663.814 75.3452 663.023 75.1178 662.741 74.9736C662.254 74.7246 661.444 73.3742 661.653 73.1608C661.707 73.1056 662.541 73.3828 663.506 73.777C664.845 74.3238 665.543 74.4938 666.45 74.4938C668.527 74.4938 668.26 74.0544 665.605 73.1046C663.617 72.3934 662.534 71.7158 662.204 70.9772C661.667 69.7752 662.066 69.578 663.121 70.5236C664.073 71.3768 665.586 72.0544 667.366 72.425C669.757 72.9226 670.122 72.338 667.94 71.505C666.443 70.9334 664.257 69.7852 663.953 69.4106C663.574 68.945 663.953 68.9868 667.256 69.7754C670.269 70.4946 673.533 70.9598 673.794 70.7072C674.059 70.4508 673.565 70.1888 669.515 68.4346C664.626 66.3174 660.776 64.876 659.645 64.739C658.869 64.6452 658.794 64.6718 658.917 64.9982Z" fill="#00448E"/>
<path d="M658.917 64.9982C659.269 65.9346 659.433 67.3162 659.627 70.965C659.788 74.0148 659.924 75.1504 660.224 75.968C660.782 77.4914 661.734 78.5262 663.192 79.196C664.262 79.6874 664.667 79.7632 666.193 79.757C667.49 79.752 668.293 79.6324 669.23 79.3048C670.391 78.8988 671.672 78.1198 672.009 77.614C672.458 76.9414 671.164 76.9292 669.134 77.5868C666.159 78.5506 664.705 78.473 663.351 77.278L662.666 76.6726L663.547 76.8116C665.206 77.0734 666.682 76.8854 666.682 76.4124C666.682 76.0668 665.988 75.77 664.5 75.4792C663.814 75.3452 663.023 75.1178 662.741 74.9736C662.254 74.7246 661.444 73.3742 661.653 73.1608C661.707 73.1056 662.541 73.3828 663.506 73.777C664.845 74.3238 665.543 74.4938 666.45 74.4938C668.527 74.4938 668.26 74.0544 665.605 73.1046C663.617 72.3934 662.534 71.7158 662.204 70.9772C661.667 69.7752 662.066 69.578 663.121 70.5236C664.073 71.3768 665.586 72.0544 667.366 72.425C669.757 72.9226 670.122 72.338 667.94 71.505C666.443 70.9334 664.257 69.7852 663.953 69.4106C663.574 68.945 663.953 68.9868 667.256 69.7754C670.269 70.4946 673.533 70.9598 673.794 70.7072C674.059 70.4508 673.565 70.1888 669.515 68.4346C664.626 66.3174 660.776 64.876 659.645 64.739C658.869 64.6452 658.794 64.6718 658.917 64.9982Z" fill="#00448E"/>
<path d="M678.635 69.594C678.635 69.9654 680.776 71.7078 681.631 72.0326C682.83 72.4876 685.297 72.2662 685.297 71.7034C685.297 71.3404 684.315 70.836 682.096 70.0608C679.749 69.2404 678.635 69.0902 678.635 69.594Z" fill="#00448E"/>
<path d="M678.635 69.594C678.635 69.9654 680.776 71.7078 681.631 72.0326C682.83 72.4876 685.297 72.2662 685.297 71.7034C685.297 71.3404 684.315 70.836 682.096 70.0608C679.749 69.2404 678.635 69.0902 678.635 69.594Z" fill="#00448E"/>
<path fill-rule="evenodd" clip-rule="evenodd" d="M647.362 58.7227L647.362 58.7217C647.374 58.6919 647.386 58.6624 647.398 58.6333C647.386 58.6627 647.374 58.6925 647.362 58.7227Z" fill="#00448E"/>
<path fill-rule="evenodd" clip-rule="evenodd" d="M647.362 58.7227L647.362 58.7217C647.374 58.6919 647.386 58.6624 647.398 58.6333C647.386 58.6627 647.374 58.6925 647.362 58.7227Z" fill="#00448E"/>
<path fill-rule="evenodd" clip-rule="evenodd" d="M647.297 43.2634C647.077 43.664 647.306 44.398 648.023 45.5956C649.033 47.281 649.31 48.634 649.185 51.2838C649.075 53.6328 648.229 57.5118 647.803 57.6568C647.723 57.8467 647.58 58.1926 647.398 58.6333L647.362 58.7217L647.362 58.7227L647.361 58.7244L647.361 58.7246L647.361 58.7251L647.36 58.7255C646.705 60.3139 645.591 63.0138 645.036 64.1938C642.662 69.2444 641.518 72.8906 640.631 78.2334C639.3 86.2592 639.603 91.0414 641.808 96.7938C644.99 105.096 652.154 111.587 661.931 115.025C662.82 115.338 663.547 115.653 663.547 115.725L668.152 118.628L668.805 119.086C669.731 119.737 671.496 121.982 672.183 123.386L672.766 124.577L674.15 129.346C674.319 129.251 674.668 130.717 674.925 132.594C675.295 135.305 675.901 138.142 676.327 139.151C676.647 139.911 676.818 140.101 677.139 140.054C677.477 140.004 677.728 139.441 678.637 136.694C679.781 133.238 680.437 131.753 681.265 130.749C681.537 130.419 682.125 129.168 682.571 127.971C683.271 126.092 683.398 125.506 683.498 123.694C683.564 122.49 683.626 121.995 683.687 122.182L683.149 118.628C683.028 118.502 682.976 118.211 682.888 117.717L682.887 117.713C682.875 117.644 682.862 117.571 682.848 117.494C682.778 117.109 682.677 116.636 682.624 116.444C682.536 116.125 682.727 116.094 684.745 116.093C687.052 116.092 691.178 115.563 693.348 114.99C696.461 114.167 698.755 113.113 700.732 111.597C702.022 110.607 702.446 110.05 702.268 109.578L695.154 106.64C695.049 106.676 693.78 106.244 692.334 105.679C688.941 104.354 687.203 103.905 684.891 103.758C682.728 103.619 680.552 103.889 677.866 104.627C674.27 105.617 671.157 105.932 669.535 105.473C668.434 105.161 666.146 103.526 664.966 102.208C663.653 100.742 662.826 98.9884 662.536 97.0568C662.339 95.7464 662.355 95.261 662.644 93.762C662.963 92.1034 663.082 91.715 663.21 91.9104C665.189 94.9256 668.513 98.269 670.607 99.3496C672.398 100.274 673.941 100.528 674.519 99.9946C675.095 99.4634 675.197 98.4618 674.829 96.9676C674.034 93.7366 674.06 90.9996 674.9 89.318C675.241 88.636 677.471 86.4332 678.618 85.6452C679.272 85.1954 681.747 85.176 683.534 85.6068C685.822 86.1582 691.661 85.9066 697.585 85.0014C699.673 84.6824 701.074 84.885 702.932 85.7742C704.171 86.367 705.351 86.4378 706.417 85.9832C707.264 85.622 708.14 84.8232 708.534 84.0538C709.28 82.598 708.555 79.166 706.648 75.1228C706.006 73.7638 705.543 72.5488 705.618 72.4228C705.693 72.2968 706.201 71.6538 706.747 70.9938C707.293 70.3338 708.127 69.2302 708.599 68.5414L709.459 67.2892L710.749 65.2082L711.717 63.101C713.398 59.4442 713.807 57.936 713.807 55.3938V53.1938L712.967 52.065C711.686 50.3446 711.109 50.1584 706.351 49.9266L702.443 49.7364L698.524 48.5248C692.151 46.5544 689.865 46.1886 682.75 46.0002C671.287 45.6968 670.219 45.611 667.518 44.7754C662.667 43.2746 661.08 43.0766 653.397 43.0144C648.317 42.9734 647.436 43.0094 647.297 43.2634ZM660.321 45.4922C659.463 45.27 657.761 44.9546 656.539 44.791C654.22 44.4808 649.525 44.3842 649.376 44.6438C649.328 44.7262 649.822 45.5128 650.474 46.3916C651.824 48.2144 652.402 49.4328 652.961 51.6426C653.43 53.4924 653.937 54.7232 654.169 54.5766C654.679 54.2552 653.81 50.8336 652.544 48.178C651.977 46.988 651.794 46.41 651.938 46.2636C652.233 45.9624 653.903 46.6126 657.158 48.2954C659.712 49.6156 660.233 49.8078 659.938 49.3198C659.661 48.8632 657.049 47.271 655.321 46.506C653.232 45.5812 652.98 45.4 653.31 45.063C653.719 44.6456 660.026 45.9154 662.177 46.848C663.267 47.3204 664.331 47.5444 664.331 47.3014C664.331 46.9876 661.953 45.9146 660.321 45.4922ZM682.867 50.547C682.809 50.487 682.119 50.3242 681.335 50.1852C677.917 49.5792 674.38 49.6896 671.327 50.4972C667.448 51.5234 664.953 53.1114 660.827 57.1808C655.833 62.106 652.751 67.0254 650.649 73.425C648.662 79.4716 648.198 82.1098 648.189 87.3938C648.181 92.4708 648.536 94.276 650.075 96.9732C651.009 98.6114 653.371 101.197 655.053 102.422C657.556 104.246 661.877 105.945 664.679 106.207L665.997 106.33L665.326 105.894C664.957 105.654 664.179 104.952 663.597 104.333C660.94 101.511 659.573 95.9922 660.593 92.2028C661.982 87.0392 665.648 83.4602 671.236 81.813C672.177 81.5354 673.412 81.2546 673.979 81.189C674.546 81.1234 675.213 81.0272 675.462 80.9752L675.913 80.8806L675.315 79.813C674.301 78.005 674.55 77.975 676.66 79.6502C678.561 81.1602 680.301 82.3284 681.084 82.6204C681.3 82.7008 680.713 81.9448 679.781 80.9404C676.94 77.88 674.988 74.5232 674.764 72.3128C674.621 70.8932 674.842 71.055 675.994 73.2128C677.075 75.2372 679.341 78.0616 681.116 79.5986C686.562 84.3146 691.382 85.1302 694.903 81.932L695.716 81.1938L694.821 79.4938C694.328 78.5588 693.924 77.7264 693.922 77.6438C693.915 77.2964 694.474 77.5372 695.009 78.112C695.851 79.0162 698.72 81.296 700.189 82.2278C702.073 83.4226 702.93 83.823 703.912 83.9662L704.794 84.0948L703.537 83.4672C702.258 82.8286 699.601 80.3368 697.984 78.2596C696.696 76.6056 694.115 74.8444 689.067 72.1746C684.591 69.8074 684.247 69.5854 683.188 68.3788C681.783 66.7766 680.745 65.0426 680.163 63.3232C679.794 62.2338 679.713 61.5784 679.715 59.6938C679.719 56.5966 680.339 54.631 682.199 51.825C682.626 51.182 682.926 50.607 682.867 50.547ZM700.777 53.2688C700.119 52.2628 698.73 51.0894 697.769 50.728C696.691 50.3232 695.469 50.1284 694.754 50.2478C694.325 50.3194 694.322 50.336 694.638 50.9574C694.816 51.3074 695.002 52.2292 695.052 53.0058C695.177 54.9802 694.621 57.0476 693.031 60.5218C691.127 64.683 689.947 68.4938 690.563 68.4938C690.958 68.4938 694.002 64.6148 696.764 60.5938C698.289 58.3726 699.204 57.332 700.75 56.0622C704.051 53.3494 707.205 52.541 710.307 53.612C712.11 54.2344 712.895 55.1692 713.232 57.0938C713.386 57.9692 713.394 57.9774 713.527 57.3938C713.602 57.0638 713.674 56.284 713.686 55.6608C713.709 54.552 713.69 54.5102 712.795 53.7066C710.727 51.848 707.274 51.5848 703.226 52.977L701.071 53.7186L700.777 53.2688ZM688.334 52.2134L686.473 51.658C685.449 51.3524 684.551 51.1006 684.478 51.0982C684.07 51.0848 682.594 53.97 681.973 55.9938C681.39 57.8946 681.242 60.7836 681.639 62.5032C682.116 64.5624 683.534 67.5416 683.534 66.4824C683.534 66.366 683.434 65.6564 683.313 64.9056C683.02 63.0982 683.282 61.6268 684.33 59.188C685.145 57.291 685.659 56.6972 685.406 57.9438C685.194 58.9896 685.047 63.0286 685.187 63.9786C685.278 64.596 685.516 65.062 686.001 65.5724C687.461 67.1062 689.288 66.1988 690.31 63.4324C690.973 61.6382 691.649 60.243 692.386 59.1456L692.955 58.2974L691.527 58.4094C688.993 58.6078 688.417 57.8242 688.362 54.1036L688.334 52.2134ZM699.615 74.086C699.097 73.6402 698.231 73.104 697.691 72.8946C697.152 72.6854 696.237 72.4586 695.658 72.3908L694.605 72.2676L695.193 72.7084C695.516 72.951 697.103 74.5154 698.72 76.1852C700.336 77.855 702.188 79.585 702.834 80.0298C703.918 80.775 705.913 81.8938 706.159 81.8938C706.378 81.8938 706.25 80.3216 705.948 79.2802C705.488 77.6976 704.839 76.493 703.937 75.5438C703.176 74.7434 701.743 73.6938 701.411 73.6938C701.324 73.6938 701.097 73.9646 700.905 74.2954L700.557 74.897L699.615 74.086ZM697.387 109.328C695.335 108.633 691.381 107.853 687.551 107.387C684.614 107.03 677.596 106.819 676.87 107.066C675.479 107.54 674.665 108.229 674.004 109.494C673.685 110.106 673.64 110.647 673.651 113.794C673.659 116.119 673.781 118.182 673.997 119.618C674.504 123 675.07 124.648 675.346 123.544C675.394 123.351 675.323 122.159 675.189 120.894C674.747 116.726 674.464 112.164 674.6 111.423C674.885 109.873 675.356 110.723 676.255 114.41C677.33 118.818 677.366 119.244 677.306 126.744C677.274 130.697 677.326 133.694 677.424 133.694C677.52 133.694 677.81 132.996 678.068 132.144C678.492 130.745 678.537 130.234 678.537 126.894C678.536 122.467 678.075 119.034 676.758 113.658C676.497 112.593 676.284 111.58 676.284 111.408C676.284 110.8 676.787 111.105 677.424 112.098C678.456 113.707 679.385 116.16 680.19 119.4C680.3 119.843 680.529 120.383 680.699 120.6C680.984 120.964 680.997 120.871 680.878 119.395C680.647 116.553 679.656 114.033 677.574 110.999C675.427 107.87 676.1 107.901 681.766 111.192C684.447 112.749 685.232 113.113 686.337 113.306C687.07 113.434 687.721 113.486 687.784 113.422C687.847 113.358 686.541 112.637 684.883 111.82C683.225 111.003 681.626 110.138 681.329 109.899C680.734 109.419 680.617 108.894 681.105 108.894C681.707 108.894 683.677 109.492 685.375 110.191C688.56 111.502 694.713 112.524 695.676 111.902C696.119 111.616 695.088 111.279 693.135 111.073C690.341 110.777 687.481 110.143 684.798 109.224C683.392 108.743 681.981 108.205 681.663 108.029L681.084 107.71L681.838 107.702C682.253 107.697 685.736 108.23 689.578 108.884C696.016 109.982 698.848 110.329 699.116 110.056C699.174 109.997 698.396 109.669 697.387 109.328Z" fill="#00448E"/>
<path fill-rule="evenodd" clip-rule="evenodd" d="M647.297 43.2634C647.077 43.664 647.306 44.398 648.023 45.5956C649.033 47.281 649.31 48.634 649.185 51.2838C649.075 53.6328 648.229 57.5118 647.803 57.6568C647.723 57.8467 647.58 58.1926 647.398 58.6333L647.362 58.7217L647.362 58.7227L647.361 58.7244L647.361 58.7246L647.361 58.7251L647.36 58.7255C646.705 60.3139 645.591 63.0138 645.036 64.1938C642.662 69.2444 641.518 72.8906 640.631 78.2334C639.3 86.2592 639.603 91.0414 641.808 96.7938C644.99 105.096 652.154 111.587 661.931 115.025C662.82 115.338 663.547 115.653 663.547 115.725L668.152 118.628L668.805 119.086C669.731 119.737 671.496 121.982 672.183 123.386L672.766 124.577L674.15 129.346C674.319 129.251 674.668 130.717 674.925 132.594C675.295 135.305 675.901 138.142 676.327 139.151C676.647 139.911 676.818 140.101 677.139 140.054C677.477 140.004 677.728 139.441 678.637 136.694C679.781 133.238 680.437 131.753 681.265 130.749C681.537 130.419 682.125 129.168 682.571 127.971C683.271 126.092 683.398 125.506 683.498 123.694C683.564 122.49 683.626 121.995 683.687 122.182L683.149 118.628C683.028 118.502 682.976 118.211 682.888 117.717L682.887 117.713C682.875 117.644 682.862 117.571 682.848 117.494C682.778 117.109 682.677 116.636 682.624 116.444C682.536 116.125 682.727 116.094 684.745 116.093C687.052 116.092 691.178 115.563 693.348 114.99C696.461 114.167 698.755 113.113 700.732 111.597C702.022 110.607 702.446 110.05 702.268 109.578L695.154 106.64C695.049 106.676 693.78 106.244 692.334 105.679C688.941 104.354 687.203 103.905 684.891 103.758C682.728 103.619 680.552 103.889 677.866 104.627C674.27 105.617 671.157 105.932 669.535 105.473C668.434 105.161 666.146 103.526 664.966 102.208C663.653 100.742 662.826 98.9884 662.536 97.0568C662.339 95.7464 662.355 95.261 662.644 93.762C662.963 92.1034 663.082 91.715 663.21 91.9104C665.189 94.9256 668.513 98.269 670.607 99.3496C672.398 100.274 673.941 100.528 674.519 99.9946C675.095 99.4634 675.197 98.4618 674.829 96.9676C674.034 93.7366 674.06 90.9996 674.9 89.318C675.241 88.636 677.471 86.4332 678.618 85.6452C679.272 85.1954 681.747 85.176 683.534 85.6068C685.822 86.1582 691.661 85.9066 697.585 85.0014C699.673 84.6824 701.074 84.885 702.932 85.7742C704.171 86.367 705.351 86.4378 706.417 85.9832C707.264 85.622 708.14 84.8232 708.534 84.0538C709.28 82.598 708.555 79.166 706.648 75.1228C706.006 73.7638 705.543 72.5488 705.618 72.4228C705.693 72.2968 706.201 71.6538 706.747 70.9938C707.293 70.3338 708.127 69.2302 708.599 68.5414L709.459 67.2892L710.749 65.2082L711.717 63.101C713.398 59.4442 713.807 57.936 713.807 55.3938V53.1938L712.967 52.065C711.686 50.3446 711.109 50.1584 706.351 49.9266L702.443 49.7364L698.524 48.5248C692.151 46.5544 689.865 46.1886 682.75 46.0002C671.287 45.6968 670.219 45.611 667.518 44.7754C662.667 43.2746 661.08 43.0766 653.397 43.0144C648.317 42.9734 647.436 43.0094 647.297 43.2634ZM660.321 45.4922C659.463 45.27 657.761 44.9546 656.539 44.791C654.22 44.4808 649.525 44.3842 649.376 44.6438C649.328 44.7262 649.822 45.5128 650.474 46.3916C651.824 48.2144 652.402 49.4328 652.961 51.6426C653.43 53.4924 653.937 54.7232 654.169 54.5766C654.679 54.2552 653.81 50.8336 652.544 48.178C651.977 46.988 651.794 46.41 651.938 46.2636C652.233 45.9624 653.903 46.6126 657.158 48.2954C659.712 49.6156 660.233 49.8078 659.938 49.3198C659.661 48.8632 657.049 47.271 655.321 46.506C653.232 45.5812 652.98 45.4 653.31 45.063C653.719 44.6456 660.026 45.9154 662.177 46.848C663.267 47.3204 664.331 47.5444 664.331 47.3014C664.331 46.9876 661.953 45.9146 660.321 45.4922ZM682.867 50.547C682.809 50.487 682.119 50.3242 681.335 50.1852C677.917 49.5792 674.38 49.6896 671.327 50.4972C667.448 51.5234 664.953 53.1114 660.827 57.1808C655.833 62.106 652.751 67.0254 650.649 73.425C648.662 79.4716 648.198 82.1098 648.189 87.3938C648.181 92.4708 648.536 94.276 650.075 96.9732C651.009 98.6114 653.371 101.197 655.053 102.422C657.556 104.246 661.877 105.945 664.679 106.207L665.997 106.33L665.326 105.894C664.957 105.654 664.179 104.952 663.597 104.333C660.94 101.511 659.573 95.9922 660.593 92.2028C661.982 87.0392 665.648 83.4602 671.236 81.813C672.177 81.5354 673.412 81.2546 673.979 81.189C674.546 81.1234 675.213 81.0272 675.462 80.9752L675.913 80.8806L675.315 79.813C674.301 78.005 674.55 77.975 676.66 79.6502C678.561 81.1602 680.301 82.3284 681.084 82.6204C681.3 82.7008 680.713 81.9448 679.781 80.9404C676.94 77.88 674.988 74.5232 674.764 72.3128C674.621 70.8932 674.842 71.055 675.994 73.2128C677.075 75.2372 679.341 78.0616 681.116 79.5986C686.562 84.3146 691.382 85.1302 694.903 81.932L695.716 81.1938L694.821 79.4938C694.328 78.5588 693.924 77.7264 693.922 77.6438C693.915 77.2964 694.474 77.5372 695.009 78.112C695.851 79.0162 698.72 81.296 700.189 82.2278C702.073 83.4226 702.93 83.823 703.912 83.9662L704.794 84.0948L703.537 83.4672C702.258 82.8286 699.601 80.3368 697.984 78.2596C696.696 76.6056 694.115 74.8444 689.067 72.1746C684.591 69.8074 684.247 69.5854 683.188 68.3788C681.783 66.7766 680.745 65.0426 680.163 63.3232C679.794 62.2338 679.713 61.5784 679.715 59.6938C679.719 56.5966 680.339 54.631 682.199 51.825C682.626 51.182 682.926 50.607 682.867 50.547ZM700.777 53.2688C700.119 52.2628 698.73 51.0894 697.769 50.728C696.691 50.3232 695.469 50.1284 694.754 50.2478C694.325 50.3194 694.322 50.336 694.638 50.9574C694.816 51.3074 695.002 52.2292 695.052 53.0058C695.177 54.9802 694.621 57.0476 693.031 60.5218C691.127 64.683 689.947 68.4938 690.563 68.4938C690.958 68.4938 694.002 64.6148 696.764 60.5938C698.289 58.3726 699.204 57.332 700.75 56.0622C704.051 53.3494 707.205 52.541 710.307 53.612C712.11 54.2344 712.895 55.1692 713.232 57.0938C713.386 57.9692 713.394 57.9774 713.527 57.3938C713.602 57.0638 713.674 56.284 713.686 55.6608C713.709 54.552 713.69 54.5102 712.795 53.7066C710.727 51.848 707.274 51.5848 703.226 52.977L701.071 53.7186L700.777 53.2688ZM688.334 52.2134L686.473 51.658C685.449 51.3524 684.551 51.1006 684.478 51.0982C684.07 51.0848 682.594 53.97 681.973 55.9938C681.39 57.8946 681.242 60.7836 681.639 62.5032C682.116 64.5624 683.534 67.5416 683.534 66.4824C683.534 66.366 683.434 65.6564 683.313 64.9056C683.02 63.0982 683.282 61.6268 684.33 59.188C685.145 57.291 685.659 56.6972 685.406 57.9438C685.194 58.9896 685.047 63.0286 685.187 63.9786C685.278 64.596 685.516 65.062 686.001 65.5724C687.461 67.1062 689.288 66.1988 690.31 63.4324C690.973 61.6382 691.649 60.243 692.386 59.1456L692.955 58.2974L691.527 58.4094C688.993 58.6078 688.417 57.8242 688.362 54.1036L688.334 52.2134ZM699.615 74.086C699.097 73.6402 698.231 73.104 697.691 72.8946C697.152 72.6854 696.237 72.4586 695.658 72.3908L694.605 72.2676L695.193 72.7084C695.516 72.951 697.103 74.5154 698.72 76.1852C700.336 77.855 702.188 79.585 702.834 80.0298C703.918 80.775 705.913 81.8938 706.159 81.8938C706.378 81.8938 706.25 80.3216 705.948 79.2802C705.488 77.6976 704.839 76.493 703.937 75.5438C703.176 74.7434 701.743 73.6938 701.411 73.6938C701.324 73.6938 701.097 73.9646 700.905 74.2954L700.557 74.897L699.615 74.086ZM697.387 109.328C695.335 108.633 691.381 107.853 687.551 107.387C684.614 107.03 677.596 106.819 676.87 107.066C675.479 107.54 674.665 108.229 674.004 109.494C673.685 110.106 673.64 110.647 673.651 113.794C673.659 116.119 673.781 118.182 673.997 119.618C674.504 123 675.07 124.648 675.346 123.544C675.394 123.351 675.323 122.159 675.189 120.894C674.747 116.726 674.464 112.164 674.6 111.423C674.885 109.873 675.356 110.723 676.255 114.41C677.33 118.818 677.366 119.244 677.306 126.744C677.274 130.697 677.326 133.694 677.424 133.694C677.52 133.694 677.81 132.996 678.068 132.144C678.492 130.745 678.537 130.234 678.537 126.894C678.536 122.467 678.075 119.034 676.758 113.658C676.497 112.593 676.284 111.58 676.284 111.408C676.284 110.8 676.787 111.105 677.424 112.098C678.456 113.707 679.385 116.16 680.19 119.4C680.3 119.843 680.529 120.383 680.699 120.6C680.984 120.964 680.997 120.871 680.878 119.395C680.647 116.553 679.656 114.033 677.574 110.999C675.427 107.87 676.1 107.901 681.766 111.192C684.447 112.749 685.232 113.113 686.337 113.306C687.07 113.434 687.721 113.486 687.784 113.422C687.847 113.358 686.541 112.637 684.883 111.82C683.225 111.003 681.626 110.138 681.329 109.899C680.734 109.419 680.617 108.894 681.105 108.894C681.707 108.894 683.677 109.492 685.375 110.191C688.56 111.502 694.713 112.524 695.676 111.902C696.119 111.616 695.088 111.279 693.135 111.073C690.341 110.777 687.481 110.143 684.798 109.224C683.392 108.743 681.981 108.205 681.663 108.029L681.084 107.71L681.838 107.702C682.253 107.697 685.736 108.23 689.578 108.884C696.016 109.982 698.848 110.329 699.116 110.056C699.174 109.997 698.396 109.669 697.387 109.328Z" fill="#00448E"/>
<rect x="27.5" y="26.5" width="197" height="197" rx="98.5" fill="white"/>
<path fill-rule="evenodd" clip-rule="evenodd" d="M78.4239 72.5948C78.9729 71.5466 79.2223 71.113 78.492 72.6509C78.4735 72.6274 78.4507 72.6087 78.4239 72.5948Z" fill="#00448E"/>
<path fill-rule="evenodd" clip-rule="evenodd" d="M78.4239 72.5948C78.9729 71.5466 79.2223 71.113 78.492 72.6509C78.4735 72.6274 78.4507 72.6087 78.4239 72.5948Z" fill="#00448E"/>
<path d="M97.8261 83.9965C98.4387 85.4436 98.7243 87.5788 99.0608 93.2177C99.342 97.931 99.5776 99.686 100.099 100.949C101.071 103.304 102.726 104.903 105.263 105.938C107.124 106.698 107.829 106.815 110.483 106.805C112.739 106.797 114.137 106.613 115.766 106.106C117.787 105.479 120.014 104.275 120.601 103.493C121.382 102.454 119.132 102.435 115.6 103.451C110.424 104.941 107.895 104.821 105.54 102.974L104.347 102.038L105.881 102.253C108.767 102.658 111.335 102.367 111.335 101.636C111.335 101.102 110.127 100.644 107.538 100.194C106.346 99.987 104.969 99.6356 104.478 99.4127C103.632 99.0279 102.221 96.941 102.585 96.6112C102.68 96.5259 104.131 96.9543 105.81 97.5635C108.139 98.4085 109.354 98.6712 110.931 98.6712C114.545 98.6712 114.079 97.9922 109.46 96.5243C106.002 95.4252 104.118 94.378 103.544 93.2366C102.611 91.379 103.303 91.0742 105.139 92.5356C106.795 93.8541 109.427 94.9013 112.524 95.4741C116.683 96.2431 117.318 95.3396 113.523 94.0523C110.919 93.1689 107.116 91.3944 106.587 90.8155C105.928 90.096 106.587 90.1606 112.333 91.3793C117.575 92.4908 123.252 93.2097 123.706 92.8193C124.167 92.4231 123.309 92.0182 116.262 89.3072C107.758 86.0352 101.061 83.8077 99.0928 83.5959C97.7426 83.451 97.6127 83.4921 97.8261 83.9965Z" fill="#00448E"/>
<path d="M97.8261 83.9965C98.4387 85.4436 98.7243 87.5788 99.0608 93.2177C99.342 97.931 99.5776 99.686 100.099 100.949C101.071 103.304 102.726 104.903 105.263 105.938C107.124 106.698 107.829 106.815 110.483 106.805C112.739 106.797 114.137 106.613 115.766 106.106C117.787 105.479 120.014 104.275 120.601 103.493C121.382 102.454 119.132 102.435 115.6 103.451C110.424 104.941 107.895 104.821 105.54 102.974L104.347 102.038L105.881 102.253C108.767 102.658 111.335 102.367 111.335 101.636C111.335 101.102 110.127 100.644 107.538 100.194C106.346 99.987 104.969 99.6356 104.478 99.4127C103.632 99.0279 102.221 96.941 102.585 96.6112C102.68 96.5259 104.131 96.9543 105.81 97.5635C108.139 98.4085 109.354 98.6712 110.931 98.6712C114.545 98.6712 114.079 97.9922 109.46 96.5243C106.002 95.4252 104.118 94.378 103.544 93.2366C102.611 91.379 103.303 91.0742 105.139 92.5356C106.795 93.8541 109.427 94.9013 112.524 95.4741C116.683 96.2431 117.318 95.3396 113.523 94.0523C110.919 93.1689 107.116 91.3944 106.587 90.8155C105.928 90.096 106.587 90.1606 112.333 91.3793C117.575 92.4908 123.252 93.2097 123.706 92.8193C124.167 92.4231 123.309 92.0182 116.262 89.3072C107.758 86.0352 101.061 83.8077 99.0928 83.5959C97.7426 83.451 97.6127 83.4921 97.8261 83.9965Z" fill="#00448E"/>
<path d="M132.128 91.099C132.128 91.6729 135.853 94.3657 137.341 94.8676C139.426 95.5708 143.718 95.2286 143.718 94.3589C143.718 93.7979 142.009 93.0184 138.15 91.8204C134.066 90.5525 132.128 90.3204 132.128 91.099Z" fill="#00448E"/>
<path d="M132.128 91.099C132.128 91.6729 135.853 94.3657 137.341 94.8676C139.426 95.5708 143.718 95.2286 143.718 94.3589C143.718 93.7979 142.009 93.0184 138.15 91.8204C134.066 90.5525 132.128 90.3204 132.128 91.099Z" fill="#00448E"/>
<path d="M169.004 168.897C161.257 169.446 153.206 172.364 146.163 177.176C142.262 179.842 142.166 180.094 145.477 178.989C154.725 175.902 162.539 174.688 173.21 174.68C181.927 174.675 188.219 175.361 196.279 177.198C198.47 177.697 200.426 178.106 200.625 178.106C203.138 178.106 192.424 172.514 186.489 170.728C181.176 169.129 174.941 168.476 169.004 168.897Z" fill="#00448E"/>
<path d="M169.004 168.897C161.257 169.446 153.206 172.364 146.163 177.176C142.262 179.842 142.166 180.094 145.477 178.989C154.725 175.902 162.539 174.688 173.21 174.68C181.927 174.675 188.219 175.361 196.279 177.198C198.47 177.697 200.426 178.106 200.625 178.106C203.138 178.106 192.424 172.514 186.489 170.728C181.176 169.129 174.941 168.476 169.004 168.897Z" fill="#00448E"/>
<path d="M121.919 176.072L121.063 176.478C119.612 177.168 114.343 178.639 110.619 179.395C107.518 180.025 106.221 180.112 100.257 180.088C91.3335 180.054 84.2313 179.022 75.5431 176.501C69.2164 174.665 59.4742 169.991 54.7496 166.525C51.8747 164.415 51 163.989 51 164.698C51 166.608 57.0959 173.23 62.8843 177.607C70.3474 183.25 81.3652 188.202 89.519 189.578C92.2252 190.035 101.974 190.044 105.732 189.594C110.245 189.053 118.579 186.296 124.326 183.441L121.919 176.072Z" fill="#00448E"/>
<path d="M121.919 176.072L121.063 176.478C119.612 177.168 114.343 178.639 110.619 179.395C107.518 180.025 106.221 180.112 100.257 180.088C91.3335 180.054 84.2313 179.022 75.5431 176.501C69.2164 174.665 59.4742 169.991 54.7496 166.525C51.8747 164.415 51 163.989 51 164.698C51 166.608 57.0959 173.23 62.8843 177.607C70.3474 183.25 81.3652 188.202 89.519 189.578C92.2252 190.035 101.974 190.044 105.732 189.594C110.245 189.053 118.579 186.296 124.326 183.441L121.919 176.072Z" fill="#00448E"/>
<path fill-rule="evenodd" clip-rule="evenodd" d="M76.2886 167.473L67.8832 165.559C64.3743 165.258 64.3743 165.258 64.3743 165.258C63.9533 165.64 67.2499 167.943 69.893 169.113C79.6966 173.456 91.9392 174.777 103.196 172.706C105.304 172.318 116.374 169.421 116.842 169.113C116.878 169.09 116.716 168.952 116.468 168.752C116.158 168.502 115.714 168.154 115.357 167.809L113.892 166.877L105.881 162.391C105.881 162.99 96.2881 165.94 91.5642 166.793C85.1715 167.949 77.9848 168.268 76.2886 167.473Z" fill="#00448E"/>
<path fill-rule="evenodd" clip-rule="evenodd" d="M76.2886 167.473L67.8832 165.559C64.3743 165.258 64.3743 165.258 64.3743 165.258C63.9533 165.64 67.2499 167.943 69.893 169.113C79.6966 173.456 91.9392 174.777 103.196 172.706C105.304 172.318 116.374 169.421 116.842 169.113C116.878 169.09 116.716 168.952 116.468 168.752C116.158 168.502 115.714 168.154 115.357 167.809L113.892 166.877L105.881 162.391C105.881 162.99 96.2881 165.94 91.5642 166.793C85.1715 167.949 77.9848 168.268 76.2886 167.473Z" fill="#00448E"/>
<path fill-rule="evenodd" clip-rule="evenodd" d="M173.417 152.452C173.218 152.452 173.139 152.65 173.241 152.891L160.865 148.351C161.048 148.296 159.374 147.646 157.145 146.906C154.916 146.166 152.975 145.468 152.832 145.355C152.401 145.014 155.48 143.789 157.712 143.412C161.764 142.729 168.873 144.099 174.908 146.727C178.008 148.076 181.895 150.388 184.728 152.568C185.972 153.524 187.115 154.306 187.269 154.306L190.623 157.569C190.623 158.188 191.302 159.484 192.6 161.34C194.633 164.248 194.984 165.35 193.485 164.122C188.711 160.208 181.356 156.09 175.706 154.166C174.757 153.843 174.049 153.389 173.949 153.039C173.855 152.716 173.616 152.452 173.417 152.452Z" fill="#00448E"/>
<path fill-rule="evenodd" clip-rule="evenodd" d="M173.417 152.452C173.218 152.452 173.139 152.65 173.241 152.891L160.865 148.351C161.048 148.296 159.374 147.646 157.145 146.906C154.916 146.166 152.975 145.468 152.832 145.355C152.401 145.014 155.48 143.789 157.712 143.412C161.764 142.729 168.873 144.099 174.908 146.727C178.008 148.076 181.895 150.388 184.728 152.568C185.972 153.524 187.115 154.306 187.269 154.306L190.623 157.569C190.623 158.188 191.302 159.484 192.6 161.34C194.633 164.248 194.984 165.35 193.485 164.122C188.711 160.208 181.356 156.09 175.706 154.166C174.757 153.843 174.049 153.389 173.949 153.039C173.855 152.716 173.616 152.452 173.417 152.452Z" fill="#00448E"/>
<path d="M140.663 173.634L142.866 172.822C149.608 168.931 157.261 165.733 163.903 164.034C166.315 163.417 168.164 163.183 171.67 163.054C177.749 162.83 180.518 163.233 183.825 164.822C185.234 165.498 186.718 166.046 187.124 166.039C187.754 166.029 187.631 165.835 186.283 164.709C182.789 161.791 177.437 160.199 170.307 159.954C166.241 159.815 165.427 159.875 163.319 160.467C160.429 161.278 155.814 162.21 153.263 162.497C151.188 162.731 146.655 164.261 142.631 166.087C142.481 166.155 142.339 166.22 142.204 166.281C140.844 166.902 140.287 167.157 139.982 166.877L140.663 173.634Z" fill="#00448E"/>
<path d="M140.663 173.634L142.866 172.822C149.608 168.931 157.261 165.733 163.903 164.034C166.315 163.417 168.164 163.183 171.67 163.054C177.749 162.83 180.518 163.233 183.825 164.822C185.234 165.498 186.718 166.046 187.124 166.039C187.754 166.029 187.631 165.835 186.283 164.709C182.789 161.791 177.437 160.199 170.307 159.954C166.241 159.815 165.427 159.875 163.319 160.467C160.429 161.278 155.814 162.21 153.263 162.497C151.188 162.731 146.655 164.261 142.631 166.087C142.481 166.155 142.339 166.22 142.204 166.281C140.844 166.902 140.287 167.157 139.982 166.877L140.663 173.634Z" fill="#00448E"/>
<path fill-rule="evenodd" clip-rule="evenodd" d="M77.6105 50.407C77.2287 51.0261 77.6265 52.1605 78.8751 54.0113C80.632 56.6159 81.1126 58.7069 80.8965 62.8019C80.7046 66.4321 79.2334 72.4268 78.492 72.6509C78.3434 72.9638 78.0709 73.5506 77.7243 74.2967L77.7224 74.3009C76.5824 76.7556 74.6439 80.9298 73.6788 82.7534C69.5481 90.5587 67.5577 96.1936 66.0156 104.451C63.6986 116.854 64.226 124.244 68.0619 133.134C73.598 145.965 86.0611 155.996 103.069 161.309C104.615 161.793 105.881 162.28 105.881 162.391L113.892 166.877L115.028 167.585C115.433 167.838 115.931 168.247 116.468 168.752C116.716 168.952 116.878 169.09 116.842 169.113C118.358 170.612 120.078 172.732 120.904 174.23L121.919 176.072L124.326 183.441C124.62 183.295 125.228 185.56 125.674 188.46C126.318 192.651 127.373 197.034 128.113 198.594C128.67 199.768 128.968 200.063 129.525 199.99C130.114 199.912 130.551 199.042 132.132 194.797C134.122 189.456 135.263 187.162 136.703 185.61C137.177 185.099 138.2 183.167 138.976 181.316C140.194 178.412 140.414 177.507 140.588 174.706L140.663 173.634L139.982 166.877C139.77 166.683 139.68 166.232 139.527 165.469L139.526 165.464C139.504 165.357 139.482 165.244 139.457 165.124C139.336 164.529 139.16 163.799 139.068 163.502C138.915 163.01 139.247 162.961 142.758 162.959C146.772 162.958 153.949 162.14 157.723 161.255C163.139 159.984 167.13 158.355 170.568 156.011C172.813 154.481 173.55 153.621 173.241 152.891L160.865 148.351C160.682 148.407 158.475 147.738 155.96 146.866C150.057 144.818 147.034 144.125 143.011 143.896C139.249 143.683 135.463 144.099 130.791 145.24C124.534 146.769 119.12 147.257 116.297 146.547C114.381 146.064 110.401 143.538 108.349 141.501C106.064 139.235 104.626 136.526 104.121 133.541C103.78 131.515 103.807 130.765 104.309 128.449C104.865 125.886 105.071 125.285 105.294 125.587C108.736 130.247 114.519 135.414 118.162 137.084C121.277 138.513 123.963 138.906 124.969 138.081C125.969 137.26 126.147 135.712 125.508 133.403C124.125 128.41 124.169 124.18 125.631 121.581C126.224 120.527 130.103 117.123 132.098 115.905C133.237 115.21 137.542 115.18 140.65 115.846C144.63 116.698 154.79 116.309 165.095 114.91C168.727 114.417 171.165 114.73 174.397 116.104C176.552 117.02 178.604 117.13 180.459 116.427C181.932 115.869 183.457 114.635 184.142 113.445C185.439 111.196 184.178 105.892 180.86 99.6433C179.745 97.5431 178.939 95.6654 179.069 95.4707C179.2 95.2759 180.084 94.2822 181.034 93.2622C181.984 92.2423 183.433 90.5367 184.256 89.4722L185.75 87.5371L187.995 84.321L189.68 81.0645C192.604 75.4132 193.316 73.0824 193.316 69.1536V65.7537L191.853 64.0092C189.624 61.3505 188.622 61.0627 180.345 60.7045L173.545 60.4106L166.727 58.5381C155.641 55.493 151.664 54.9277 139.287 54.6365C119.346 54.1677 117.488 54.0351 112.789 52.7437C104.35 50.4243 101.588 50.1183 88.223 50.0222C79.3858 49.9589 77.8528 50.0145 77.6105 50.407ZM100.269 53.8515C98.7758 53.5081 95.815 53.0207 93.6896 52.7678C89.6557 52.2884 81.488 52.1391 81.2279 52.5403C81.1454 52.6677 82.0047 53.8833 83.1374 55.2414C85.4871 58.0584 86.4913 59.9414 87.4652 63.3564C88.2802 66.2152 89.1621 68.1173 89.5667 67.8907C90.453 67.394 88.9412 62.1062 86.7398 58.0022C85.7533 56.1631 85.435 55.2699 85.6845 55.0436C86.1978 54.5781 89.1038 55.583 94.7664 58.1836C99.2094 60.2239 100.116 60.5209 99.6024 59.7667C99.1211 59.0611 94.5762 56.6005 91.57 55.4182C87.9366 53.989 87.4973 53.709 88.0716 53.1882C88.783 52.5431 99.7555 54.5055 103.497 55.9468C105.393 56.6768 107.245 57.023 107.245 56.6475C107.245 56.1625 103.107 54.5043 100.269 53.8515ZM139.491 61.6633C139.389 61.5706 138.189 61.319 136.825 61.1041C130.879 60.1676 124.725 60.3382 119.415 61.5863C112.667 63.1722 108.327 65.6264 101.149 71.9153C92.4611 79.5268 87.0988 87.1294 83.4419 97.0195C79.9867 106.364 79.1785 110.441 79.1635 118.607C79.1492 126.453 79.7672 129.243 82.4438 133.411C84.0694 135.943 88.1783 139.938 91.1034 141.832C95.4581 144.651 102.975 147.277 107.849 147.681L110.142 147.872L108.975 147.197C108.333 146.827 106.98 145.741 105.967 144.786C101.345 140.424 98.967 131.895 100.741 126.039C103.158 118.059 109.536 112.528 119.256 109.983C120.894 109.553 123.042 109.12 124.028 109.018C125.015 108.917 126.176 108.768 126.608 108.688L127.393 108.542L126.352 106.892C124.589 104.098 125.023 104.051 128.692 106.64C131.999 108.974 135.027 110.779 136.389 111.23C136.764 111.355 135.744 110.186 134.122 108.634C129.179 103.904 125.784 98.7167 125.395 95.3007C125.145 93.1068 125.53 93.3568 127.535 96.6915C129.415 99.8201 133.356 104.185 136.444 106.56C145.918 113.849 154.303 115.109 160.429 110.166L161.843 109.026L160.286 106.398C159.429 104.953 158.726 103.667 158.723 103.539C158.709 103.002 159.682 103.375 160.613 104.263C162.077 105.66 167.069 109.184 169.625 110.624C172.902 112.47 174.393 113.089 176.101 113.31L177.635 113.509L175.449 112.539C173.224 111.552 168.602 107.701 165.788 104.491C163.548 101.935 159.058 99.2131 150.276 95.0871C142.489 91.4288 141.891 91.0857 140.049 89.221C137.604 86.7449 135.799 84.0651 134.786 81.4079C134.145 79.7243 134.004 78.7115 134.008 75.799C134.014 71.0125 135.093 67.9748 138.329 63.6383C139.07 62.6446 139.593 61.756 139.491 61.6633ZM170.647 65.8696C169.503 64.3149 167.087 62.5015 165.414 61.943C163.54 61.3174 161.413 61.0164 160.169 61.2009C159.423 61.3115 159.418 61.3372 159.968 62.2975C160.278 62.8384 160.602 64.263 160.687 65.4632C160.906 68.5144 159.939 71.7095 157.173 77.0786C153.859 83.5094 151.807 89.3987 152.879 89.3987C153.565 89.3987 158.862 83.404 163.666 77.1898C166.319 73.7571 167.912 72.149 170.6 70.1866C176.344 65.9942 181.829 64.7449 187.226 66.4C190.362 67.3619 191.729 68.8065 192.315 71.7809C192.582 73.1337 192.596 73.1464 192.827 72.2445C192.958 71.7345 193.083 70.5294 193.105 69.5663C193.144 67.8527 193.111 67.7881 191.555 66.5462C187.956 63.6739 181.949 63.2671 174.908 65.4187L171.159 66.5647L170.647 65.8696ZM149.002 64.2386L145.764 63.3802C143.982 62.908 142.421 62.5188 142.293 62.5151C141.584 62.4944 139.016 66.9533 137.936 70.0809C136.921 73.0184 136.663 77.4832 137.355 80.1407C138.183 83.323 140.65 87.9271 140.65 86.2902C140.65 86.1103 140.478 85.0137 140.266 83.8534C139.757 81.0602 140.213 78.7863 142.036 75.0173C143.454 72.0856 144.347 71.1679 143.907 73.0945C143.538 74.7107 143.283 80.9526 143.526 82.4208C143.684 83.3749 144.098 84.0951 144.943 84.8839C147.482 87.2543 150.66 85.8519 152.439 81.5767C153.592 78.8039 154.768 76.6477 156.05 74.9518L157.041 73.6409L154.555 73.814C150.147 74.1206 149.145 72.9096 149.05 67.1597L149.002 64.2386ZM168.626 98.041C167.724 97.352 166.219 96.5234 165.28 96.1998C164.341 95.8765 162.749 95.526 161.741 95.4212L159.91 95.2308L160.932 95.912C161.495 96.2869 164.256 98.7046 167.068 101.285C169.88 103.866 173.102 106.539 174.227 107.227C176.112 108.378 179.583 110.107 180.01 110.107C180.39 110.107 180.169 107.678 179.642 106.068C178.842 103.622 177.715 101.761 176.145 100.294C174.821 99.057 172.328 97.4349 171.75 97.4349C171.6 97.4349 171.204 97.8534 170.87 98.3646L170.265 99.2943L168.626 98.041ZM164.75 152.504C161.18 151.43 154.302 150.225 147.638 149.505C142.529 148.953 130.32 148.627 129.059 149.009C126.637 149.742 125.222 150.806 124.073 152.761C123.516 153.707 123.439 154.544 123.458 159.406C123.472 162.999 123.685 166.187 124.06 168.407C124.942 173.633 125.927 176.181 126.406 174.474C126.489 174.177 126.367 172.334 126.134 170.379C125.365 163.937 124.872 156.888 125.109 155.742C125.604 153.347 126.424 154.661 127.987 160.358C129.857 167.172 129.92 167.83 129.816 179.42C129.761 185.53 129.85 190.16 130.022 190.16C130.189 190.16 130.692 189.083 131.141 187.765C131.879 185.603 131.958 184.813 131.957 179.651C131.956 172.811 131.154 167.504 128.863 159.196C128.409 157.55 128.038 155.985 128.038 155.719C128.038 154.78 128.913 155.251 130.022 156.786C131.817 159.272 133.433 163.063 134.834 168.07C135.026 168.756 135.424 169.59 135.719 169.925C136.214 170.487 136.238 170.344 136.03 168.062C135.629 163.67 133.904 159.777 130.282 155.088C126.547 150.252 127.719 150.3 137.575 155.385C142.239 157.792 143.605 158.354 145.527 158.652C146.802 158.85 147.935 158.931 148.044 158.832C148.153 158.733 145.882 157.619 142.998 156.356C140.113 155.093 137.331 153.757 136.816 153.388C135.779 152.645 135.575 151.834 136.426 151.834C137.472 151.834 140.9 152.759 143.854 153.839C149.394 155.864 160.098 157.443 161.773 156.483C162.545 156.04 160.751 155.52 157.353 155.201C152.492 154.745 147.518 153.765 142.849 152.345C140.403 151.6 137.949 150.769 137.395 150.498L136.389 150.004L137.701 149.992C138.422 149.985 144.481 150.807 151.165 151.819C162.365 153.515 167.292 154.052 167.758 153.63C167.859 153.538 166.505 153.032 164.75 152.504Z" fill="#00448E"/>
<path fill-rule="evenodd" clip-rule="evenodd" d="M77.6105 50.407C77.2287 51.0261 77.6265 52.1605 78.8751 54.0113C80.632 56.6159 81.1126 58.7069 80.8965 62.8019C80.7046 66.4321 79.2334 72.4268 78.492 72.6509C78.3434 72.9638 78.0709 73.5506 77.7243 74.2967L77.7224 74.3009C76.5824 76.7556 74.6439 80.9298 73.6788 82.7534C69.5481 90.5587 67.5577 96.1936 66.0156 104.451C63.6986 116.854 64.226 124.244 68.0619 133.134C73.598 145.965 86.0611 155.996 103.069 161.309C104.615 161.793 105.881 162.28 105.881 162.391L113.892 166.877L115.028 167.585C115.433 167.838 115.931 168.247 116.468 168.752C116.716 168.952 116.878 169.09 116.842 169.113C118.358 170.612 120.078 172.732 120.904 174.23L121.919 176.072L124.326 183.441C124.62 183.295 125.228 185.56 125.674 188.46C126.318 192.651 127.373 197.034 128.113 198.594C128.67 199.768 128.968 200.063 129.525 199.99C130.114 199.912 130.551 199.042 132.132 194.797C134.122 189.456 135.263 187.162 136.703 185.61C137.177 185.099 138.2 183.167 138.976 181.316C140.194 178.412 140.414 177.507 140.588 174.706L140.663 173.634L139.982 166.877C139.77 166.683 139.68 166.232 139.527 165.469L139.526 165.464C139.504 165.357 139.482 165.244 139.457 165.124C139.336 164.529 139.16 163.799 139.068 163.502C138.915 163.01 139.247 162.961 142.758 162.959C146.772 162.958 153.949 162.14 157.723 161.255C163.139 159.984 167.13 158.355 170.568 156.011C172.813 154.481 173.55 153.621 173.241 152.891L160.865 148.351C160.682 148.407 158.475 147.738 155.96 146.866C150.057 144.818 147.034 144.125 143.011 143.896C139.249 143.683 135.463 144.099 130.791 145.24C124.534 146.769 119.12 147.257 116.297 146.547C114.381 146.064 110.401 143.538 108.349 141.501C106.064 139.235 104.626 136.526 104.121 133.541C103.78 131.515 103.807 130.765 104.309 128.449C104.865 125.886 105.071 125.285 105.294 125.587C108.736 130.247 114.519 135.414 118.162 137.084C121.277 138.513 123.963 138.906 124.969 138.081C125.969 137.26 126.147 135.712 125.508 133.403C124.125 128.41 124.169 124.18 125.631 121.581C126.224 120.527 130.103 117.123 132.098 115.905C133.237 115.21 137.542 115.18 140.65 115.846C144.63 116.698 154.79 116.309 165.095 114.91C168.727 114.417 171.165 114.73 174.397 116.104C176.552 117.02 178.604 117.13 180.459 116.427C181.932 115.869 183.457 114.635 184.142 113.445C185.439 111.196 184.178 105.892 180.86 99.6433C179.745 97.5431 178.939 95.6654 179.069 95.4707C179.2 95.2759 180.084 94.2822 181.034 93.2622C181.984 92.2423 183.433 90.5367 184.256 89.4722L185.75 87.5371L187.995 84.321L189.68 81.0645C192.604 75.4132 193.316 73.0824 193.316 69.1536V65.7537L191.853 64.0092C189.624 61.3505 188.622 61.0627 180.345 60.7045L173.545 60.4106L166.727 58.5381C155.641 55.493 151.664 54.9277 139.287 54.6365C119.346 54.1677 117.488 54.0351 112.789 52.7437C104.35 50.4243 101.588 50.1183 88.223 50.0222C79.3858 49.9589 77.8528 50.0145 77.6105 50.407ZM100.269 53.8515C98.7758 53.5081 95.815 53.0207 93.6896 52.7678C89.6557 52.2884 81.488 52.1391 81.2279 52.5403C81.1454 52.6677 82.0047 53.8833 83.1374 55.2414C85.4871 58.0584 86.4913 59.9414 87.4652 63.3564C88.2802 66.2152 89.1621 68.1173 89.5667 67.8907C90.453 67.394 88.9412 62.1062 86.7398 58.0022C85.7533 56.1631 85.435 55.2699 85.6845 55.0436C86.1978 54.5781 89.1038 55.583 94.7664 58.1836C99.2094 60.2239 100.116 60.5209 99.6024 59.7667C99.1211 59.0611 94.5762 56.6005 91.57 55.4182C87.9366 53.989 87.4973 53.709 88.0716 53.1882C88.783 52.5431 99.7555 54.5055 103.497 55.9468C105.393 56.6768 107.245 57.023 107.245 56.6475C107.245 56.1625 103.107 54.5043 100.269 53.8515ZM139.491 61.6633C139.389 61.5706 138.189 61.319 136.825 61.1041C130.879 60.1676 124.725 60.3382 119.415 61.5863C112.667 63.1722 108.327 65.6264 101.149 71.9153C92.4611 79.5268 87.0988 87.1294 83.4419 97.0195C79.9867 106.364 79.1785 110.441 79.1635 118.607C79.1492 126.453 79.7672 129.243 82.4438 133.411C84.0694 135.943 88.1783 139.938 91.1034 141.832C95.4581 144.651 102.975 147.277 107.849 147.681L110.142 147.872L108.975 147.197C108.333 146.827 106.98 145.741 105.967 144.786C101.345 140.424 98.967 131.895 100.741 126.039C103.158 118.059 109.536 112.528 119.256 109.983C120.894 109.553 123.042 109.12 124.028 109.018C125.015 108.917 126.176 108.768 126.608 108.688L127.393 108.542L126.352 106.892C124.589 104.098 125.023 104.051 128.692 106.64C131.999 108.974 135.027 110.779 136.389 111.23C136.764 111.355 135.744 110.186 134.122 108.634C129.179 103.904 125.784 98.7167 125.395 95.3007C125.145 93.1068 125.53 93.3568 127.535 96.6915C129.415 99.8201 133.356 104.185 136.444 106.56C145.918 113.849 154.303 115.109 160.429 110.166L161.843 109.026L160.286 106.398C159.429 104.953 158.726 103.667 158.723 103.539C158.709 103.002 159.682 103.375 160.613 104.263C162.077 105.66 167.069 109.184 169.625 110.624C172.902 112.47 174.393 113.089 176.101 113.31L177.635 113.509L175.449 112.539C173.224 111.552 168.602 107.701 165.788 104.491C163.548 101.935 159.058 99.2131 150.276 95.0871C142.489 91.4288 141.891 91.0857 140.049 89.221C137.604 86.7449 135.799 84.0651 134.786 81.4079C134.145 79.7243 134.004 78.7115 134.008 75.799C134.014 71.0125 135.093 67.9748 138.329 63.6383C139.07 62.6446 139.593 61.756 139.491 61.6633ZM170.647 65.8696C169.503 64.3149 167.087 62.5015 165.414 61.943C163.54 61.3174 161.413 61.0164 160.169 61.2009C159.423 61.3115 159.418 61.3372 159.968 62.2975C160.278 62.8384 160.602 64.263 160.687 65.4632C160.906 68.5144 159.939 71.7095 157.173 77.0786C153.859 83.5094 151.807 89.3987 152.879 89.3987C153.565 89.3987 158.862 83.404 163.666 77.1898C166.319 73.7571 167.912 72.149 170.6 70.1866C176.344 65.9942 181.829 64.7449 187.226 66.4C190.362 67.3619 191.729 68.8065 192.315 71.7809C192.582 73.1337 192.596 73.1464 192.827 72.2445C192.958 71.7345 193.083 70.5294 193.105 69.5663C193.144 67.8527 193.111 67.7881 191.555 66.5462C187.956 63.6739 181.949 63.2671 174.908 65.4187L171.159 66.5647L170.647 65.8696ZM149.002 64.2386L145.764 63.3802C143.982 62.908 142.421 62.5188 142.293 62.5151C141.584 62.4944 139.016 66.9533 137.936 70.0809C136.921 73.0184 136.663 77.4832 137.355 80.1407C138.183 83.323 140.65 87.9271 140.65 86.2902C140.65 86.1103 140.478 85.0137 140.266 83.8534C139.757 81.0602 140.213 78.7863 142.036 75.0173C143.454 72.0856 144.347 71.1679 143.907 73.0945C143.538 74.7107 143.283 80.9526 143.526 82.4208C143.684 83.3749 144.098 84.0951 144.943 84.8839C147.482 87.2543 150.66 85.8519 152.439 81.5767C153.592 78.8039 154.768 76.6477 156.05 74.9518L157.041 73.6409L154.555 73.814C150.147 74.1206 149.145 72.9096 149.05 67.1597L149.002 64.2386ZM168.626 98.041C167.724 97.352 166.219 96.5234 165.28 96.1998C164.341 95.8765 162.749 95.526 161.741 95.4212L159.91 95.2308L160.932 95.912C161.495 96.2869 164.256 98.7046 167.068 101.285C169.88 103.866 173.102 106.539 174.227 107.227C176.112 108.378 179.583 110.107 180.01 110.107C180.39 110.107 180.169 107.678 179.642 106.068C178.842 103.622 177.715 101.761 176.145 100.294C174.821 99.057 172.328 97.4349 171.75 97.4349C171.6 97.4349 171.204 97.8534 170.87 98.3646L170.265 99.2943L168.626 98.041ZM164.75 152.504C161.18 151.43 154.302 150.225 147.638 149.505C142.529 148.953 130.32 148.627 129.059 149.009C126.637 149.742 125.222 150.806 124.073 152.761C123.516 153.707 123.439 154.544 123.458 159.406C123.472 162.999 123.685 166.187 124.06 168.407C124.942 173.633 125.927 176.181 126.406 174.474C126.489 174.177 126.367 172.334 126.134 170.379C125.365 163.937 124.872 156.888 125.109 155.742C125.604 153.347 126.424 154.661 127.987 160.358C129.857 167.172 129.92 167.83 129.816 179.42C129.761 185.53 129.85 190.16 130.022 190.16C130.189 190.16 130.692 189.083 131.141 187.765C131.879 185.603 131.958 184.813 131.957 179.651C131.956 172.811 131.154 167.504 128.863 159.196C128.409 157.55 128.038 155.985 128.038 155.719C128.038 154.78 128.913 155.251 130.022 156.786C131.817 159.272 133.433 163.063 134.834 168.07C135.026 168.756 135.424 169.59 135.719 169.925C136.214 170.487 136.238 170.344 136.03 168.062C135.629 163.67 133.904 159.777 130.282 155.088C126.547 150.252 127.719 150.3 137.575 155.385C142.239 157.792 143.605 158.354 145.527 158.652C146.802 158.85 147.935 158.931 148.044 158.832C148.153 158.733 145.882 157.619 142.998 156.356C140.113 155.093 137.331 153.757 136.816 153.388C135.779 152.645 135.575 151.834 136.426 151.834C137.472 151.834 140.9 152.759 143.854 153.839C149.394 155.864 160.098 157.443 161.773 156.483C162.545 156.04 160.751 155.52 157.353 155.201C152.492 154.745 147.518 153.765 142.849 152.345C140.403 151.6 137.949 150.769 137.395 150.498L136.389 150.004L137.701 149.992C138.422 149.985 144.481 150.807 151.165 151.819C162.365 153.515 167.292 154.052 167.758 153.63C167.859 153.538 166.505 153.032 164.75 152.504Z" fill="#00448E"/>
<path fill-rule="evenodd" clip-rule="evenodd" d="M100.269 53.8515C98.7758 53.5081 95.815 53.0207 93.6896 52.7678C89.6557 52.2884 81.488 52.1391 81.2279 52.5403C81.1454 52.6677 82.0047 53.8833 83.1374 55.2414C85.4871 58.0584 86.4913 59.9414 87.4652 63.3564C88.2802 66.2152 89.1621 68.1173 89.5667 67.8907C90.453 67.394 88.9412 62.1062 86.7398 58.0022C85.7533 56.1631 85.435 55.2699 85.6845 55.0436C86.1978 54.5781 89.1038 55.583 94.7664 58.1836C99.2094 60.2239 100.116 60.5209 99.6024 59.7667C99.1211 59.0611 94.5762 56.6005 91.57 55.4182C87.9366 53.989 87.4973 53.709 88.0716 53.1882C88.783 52.5431 99.7555 54.5055 103.497 55.9468C105.393 56.6768 107.245 57.023 107.245 56.6475C107.245 56.1625 103.107 54.5043 100.269 53.8515ZM164.75 152.504C161.18 151.43 154.302 150.225 147.638 149.505C142.529 148.953 130.32 148.627 129.059 149.009C126.637 149.742 125.222 150.806 124.073 152.761C123.516 153.707 123.439 154.544 123.458 159.406C123.472 162.999 123.685 166.187 124.06 168.407C124.942 173.633 125.927 176.181 126.406 174.474C126.489 174.177 126.367 172.334 126.134 170.379C125.365 163.937 124.872 156.888 125.109 155.742C125.604 153.347 126.424 154.661 127.987 160.358C129.857 167.172 129.92 167.83 129.816 179.42C129.761 185.53 129.85 190.16 130.022 190.16C130.189 190.16 130.692 189.083 131.141 187.765C131.879 185.603 131.958 184.813 131.957 179.651C131.956 172.811 131.154 167.504 128.863 159.196C128.409 157.55 128.038 155.985 128.038 155.719C128.038 154.78 128.913 155.251 130.022 156.786C131.817 159.272 133.433 163.063 134.834 168.07C135.026 168.756 135.424 169.59 135.719 169.925C136.214 170.487 136.238 170.344 136.03 168.062C135.629 163.67 133.904 159.777 130.282 155.088C126.547 150.252 127.719 150.3 137.575 155.385C142.239 157.792 143.605 158.354 145.527 158.652C146.802 158.85 147.935 158.931 148.044 158.832C148.153 158.733 145.882 157.619 142.998 156.356C140.113 155.093 137.331 153.757 136.816 153.388C135.779 152.645 135.575 151.834 136.426 151.834C137.472 151.834 140.9 152.759 143.854 153.839C149.394 155.864 160.098 157.443 161.773 156.483C162.545 156.04 160.751 155.52 157.353 155.201C152.492 154.745 147.518 153.765 142.849 152.345C140.403 151.6 137.949 150.769 137.395 150.498L136.389 150.004L137.701 149.992C138.422 149.985 144.481 150.807 151.165 151.819C162.365 153.515 167.292 154.052 167.758 153.63C167.859 153.538 166.505 153.032 164.75 152.504ZM99.0608 93.2177C98.7243 87.5788 98.4387 85.4436 97.8261 83.9965C97.6127 83.4921 97.7426 83.451 99.0928 83.5959C101.061 83.8077 107.758 86.0352 116.262 89.3072C123.309 92.0182 124.167 92.4231 123.706 92.8193C123.252 93.2097 117.575 92.4908 112.333 91.3793C106.587 90.1606 105.928 90.096 106.587 90.8155C107.116 91.3944 110.919 93.1689 113.523 94.0523C117.318 95.3396 116.683 96.2431 112.524 95.4741C109.427 94.9013 106.795 93.8541 105.139 92.5356C103.303 91.0742 102.611 91.379 103.544 93.2366C104.118 94.378 106.002 95.4252 109.46 96.5243C114.079 97.9922 114.545 98.6712 110.931 98.6712C109.354 98.6712 108.139 98.4085 105.81 97.5635C104.131 96.9543 102.68 96.5259 102.585 96.6112C102.221 96.941 103.632 99.0279 104.478 99.4127C104.969 99.6356 106.346 99.987 107.538 100.194C110.127 100.644 111.335 101.102 111.335 101.636C111.335 102.367 108.767 102.658 105.881 102.253L104.347 102.038L105.54 102.974C107.895 104.821 110.424 104.941 115.6 103.451C119.132 102.435 121.382 102.454 120.601 103.493C120.014 104.275 117.787 105.479 115.766 106.106C114.137 106.613 112.739 106.797 110.483 106.805C107.829 106.815 107.124 106.698 105.263 105.938C102.726 104.903 101.071 103.304 100.099 100.949C99.5776 99.686 99.342 97.931 99.0608 93.2177ZM137.341 94.8676C135.853 94.3657 132.128 91.6729 132.128 91.099C132.128 90.3204 134.066 90.5525 138.15 91.8204C142.009 93.0184 143.718 93.7979 143.718 94.3589C143.718 95.2286 139.426 95.5708 137.341 94.8676Z" fill="#00448E"/>
<path fill-rule="evenodd" clip-rule="evenodd" d="M100.269 53.8515C98.7758 53.5081 95.815 53.0207 93.6896 52.7678C89.6557 52.2884 81.488 52.1391 81.2279 52.5403C81.1454 52.6677 82.0047 53.8833 83.1374 55.2414C85.4871 58.0584 86.4913 59.9414 87.4652 63.3564C88.2802 66.2152 89.1621 68.1173 89.5667 67.8907C90.453 67.394 88.9412 62.1062 86.7398 58.0022C85.7533 56.1631 85.435 55.2699 85.6845 55.0436C86.1978 54.5781 89.1038 55.583 94.7664 58.1836C99.2094 60.2239 100.116 60.5209 99.6024 59.7667C99.1211 59.0611 94.5762 56.6005 91.57 55.4182C87.9366 53.989 87.4973 53.709 88.0716 53.1882C88.783 52.5431 99.7555 54.5055 103.497 55.9468C105.393 56.6768 107.245 57.023 107.245 56.6475C107.245 56.1625 103.107 54.5043 100.269 53.8515ZM164.75 152.504C161.18 151.43 154.302 150.225 147.638 149.505C142.529 148.953 130.32 148.627 129.059 149.009C126.637 149.742 125.222 150.806 124.073 152.761C123.516 153.707 123.439 154.544 123.458 159.406C123.472 162.999 123.685 166.187 124.06 168.407C124.942 173.633 125.927 176.181 126.406 174.474C126.489 174.177 126.367 172.334 126.134 170.379C125.365 163.937 124.872 156.888 125.109 155.742C125.604 153.347 126.424 154.661 127.987 160.358C129.857 167.172 129.92 167.83 129.816 179.42C129.761 185.53 129.85 190.16 130.022 190.16C130.189 190.16 130.692 189.083 131.141 187.765C131.879 185.603 131.958 184.813 131.957 179.651C131.956 172.811 131.154 167.504 128.863 159.196C128.409 157.55 128.038 155.985 128.038 155.719C128.038 154.78 128.913 155.251 130.022 156.786C131.817 159.272 133.433 163.063 134.834 168.07C135.026 168.756 135.424 169.59 135.719 169.925C136.214 170.487 136.238 170.344 136.03 168.062C135.629 163.67 133.904 159.777 130.282 155.088C126.547 150.252 127.719 150.3 137.575 155.385C142.239 157.792 143.605 158.354 145.527 158.652C146.802 158.85 147.935 158.931 148.044 158.832C148.153 158.733 145.882 157.619 142.998 156.356C140.113 155.093 137.331 153.757 136.816 153.388C135.779 152.645 135.575 151.834 136.426 151.834C137.472 151.834 140.9 152.759 143.854 153.839C149.394 155.864 160.098 157.443 161.773 156.483C162.545 156.04 160.751 155.52 157.353 155.201C152.492 154.745 147.518 153.765 142.849 152.345C140.403 151.6 137.949 150.769 137.395 150.498L136.389 150.004L137.701 149.992C138.422 149.985 144.481 150.807 151.165 151.819C162.365 153.515 167.292 154.052 167.758 153.63C167.859 153.538 166.505 153.032 164.75 152.504ZM99.0608 93.2177C98.7243 87.5788 98.4387 85.4436 97.8261 83.9965C97.6127 83.4921 97.7426 83.451 99.0928 83.5959C101.061 83.8077 107.758 86.0352 116.262 89.3072C123.309 92.0182 124.167 92.4231 123.706 92.8193C123.252 93.2097 117.575 92.4908 112.333 91.3793C106.587 90.1606 105.928 90.096 106.587 90.8155C107.116 91.3944 110.919 93.1689 113.523 94.0523C117.318 95.3396 116.683 96.2431 112.524 95.4741C109.427 94.9013 106.795 93.8541 105.139 92.5356C103.303 91.0742 102.611 91.379 103.544 93.2366C104.118 94.378 106.002 95.4252 109.46 96.5243C114.079 97.9922 114.545 98.6712 110.931 98.6712C109.354 98.6712 108.139 98.4085 105.81 97.5635C104.131 96.9543 102.68 96.5259 102.585 96.6112C102.221 96.941 103.632 99.0279 104.478 99.4127C104.969 99.6356 106.346 99.987 107.538 100.194C110.127 100.644 111.335 101.102 111.335 101.636C111.335 102.367 108.767 102.658 105.881 102.253L104.347 102.038L105.54 102.974C107.895 104.821 110.424 104.941 115.6 103.451C119.132 102.435 121.382 102.454 120.601 103.493C120.014 104.275 117.787 105.479 115.766 106.106C114.137 106.613 112.739 106.797 110.483 106.805C107.829 106.815 107.124 106.698 105.263 105.938C102.726 104.903 101.071 103.304 100.099 100.949C99.5776 99.686 99.342 97.931 99.0608 93.2177ZM137.341 94.8676C135.853 94.3657 132.128 91.6729 132.128 91.099C132.128 90.3204 134.066 90.5525 138.15 91.8204C142.009 93.0184 143.718 93.7979 143.718 94.3589C143.718 95.2286 139.426 95.5708 137.341 94.8676Z" fill="#00448E"/>
<rect x="27.5" y="26.5" width="197" height="197" rx="98.5" stroke="#00448E" stroke-width="3"/>
<path fill-rule="evenodd" clip-rule="evenodd" d="M379.905 173.013C371.943 173.92 369.552 175.473 368.272 180.572C367.484 183.714 368.444 184.595 370.649 182.753C372.526 181.185 377.982 178.634 378.437 179.112C378.587 179.27 376.447 183.089 373.681 187.598C368.095 196.705 367.996 198.899 373.174 198.899C376.671 198.899 378.905 197.432 378.905 195.133C378.905 194.382 380.431 190.464 382.297 186.426C386.056 178.291 388.716 176.036 392.512 177.766C395.853 179.288 394.666 181.317 388.304 184.957C382.219 188.438 381.24 190.899 385.938 190.899C389.514 190.899 397.953 186.837 400.861 183.716C403.666 180.705 403.425 178.265 399.982 174.822C396.734 171.574 394.388 171.363 379.905 173.013ZM427.905 172.999C416.343 174.244 409.613 178.432 412.868 182.354C413.766 183.436 413.289 183.947 410.538 184.855C406.491 186.191 401.905 190.444 401.905 192.861C401.905 195.539 406.032 198.627 410.61 199.374C418.412 200.646 435.905 195.12 435.905 191.382C435.905 189.536 434.502 189.534 429.405 191.37C425.268 192.86 417.258 193.355 414.487 192.292C411.081 190.985 413.105 189.07 419.655 187.404C429.101 185 428.905 185.074 428.905 183.93C428.905 183.363 427.866 182.899 426.596 182.899C425.326 182.899 423.476 182.306 422.485 181.581C420.763 180.322 420.762 180.185 422.448 178.499C423.767 177.18 425.078 176.897 427.643 177.378C432.546 178.297 436.905 177.144 436.905 174.927C436.905 172.476 435.519 172.179 427.905 172.999ZM507.905 172.944C493.094 175.214 480.905 183.01 480.905 190.214C480.905 193.071 485.582 197.529 489.652 198.55C494.101 199.667 499.175 199.463 499.635 198.149C499.877 197.457 499.254 196.869 498.238 196.831C496.674 196.774 496.73 196.607 498.621 195.694C500.472 194.8 501.839 195.221 506.942 198.262C514.368 202.685 518.494 202.957 522.828 199.31C527.119 195.7 526.939 193.614 522.412 194.464C520.49 194.824 517.814 194.842 516.465 194.503C514.062 193.9 514.113 193.787 518.958 188.941C523.397 184.502 523.905 183.54 523.905 179.569C523.905 177.135 523.343 174.69 522.655 174.135C520.709 172.563 513.951 172.017 507.905 172.944ZM593.905 172.999C582.377 174.241 575.613 178.432 578.847 182.329C579.718 183.379 579.065 184.018 575.772 185.335C573.039 186.429 571.371 186.653 570.956 185.981C570.576 185.367 568.358 186.35 565.437 188.427C562.751 190.336 560.182 191.899 559.729 191.899C557.645 191.899 559.274 186.765 562.901 181.904C566.657 176.871 566.798 176.438 565.246 174.724C564.338 173.72 563.057 172.899 562.4 172.899C561.743 172.899 558.902 175.547 556.086 178.784C550.259 185.484 542.696 190.899 539.166 190.899C537.137 190.899 536.879 190.555 537.484 188.649C537.876 187.411 539.706 184.422 541.551 182.005C545.189 177.24 545.543 175.937 543.705 174.099C540.649 171.043 537.381 173.513 531.475 183.34C527.253 190.367 526.805 195.015 530.128 197.342C534.418 200.347 542.174 198.576 546.829 193.528C549.844 190.259 550.905 190.207 550.905 193.328C550.905 196.202 553.311 198.899 555.876 198.899C556.881 198.899 559.901 197.421 562.586 195.614L567.468 192.328L569.436 195.332C572.035 199.297 577.935 200.547 586.288 198.903C596.084 196.976 603.872 192.532 601.54 190.2C601.203 189.864 598.621 190.333 595.801 191.243C590.171 193.062 582.249 193.402 579.913 191.925C577.519 190.412 580.022 188.757 587.588 186.853C594.036 185.23 597.268 182.899 593.07 182.899C589.798 182.899 587.905 181.8 587.905 179.899C587.905 177.583 590.331 176.701 594.533 177.489C599.234 178.371 602.905 177.274 602.905 174.987C602.905 172.473 601.557 172.175 593.905 172.999ZM635.996 173.017C628.023 173.942 625.651 175.321 624.029 179.974C622.815 183.456 624.23 184.82 626.72 182.567C628.609 180.857 633.905 178.624 633.905 179.538C633.905 179.862 631.88 183.376 629.405 187.347C626.93 191.318 624.905 195.542 624.905 196.733C624.905 198.595 625.469 198.899 628.926 198.899C632.374 198.899 633.11 198.506 634.076 196.149C639.256 183.508 642.306 178.015 644.447 177.478C650.961 175.843 651.892 180.859 645.655 183.995C637.796 187.947 636.102 190.91 641.714 190.889C648.009 190.866 658.905 183.449 658.905 179.187C658.905 178.394 657.59 176.43 655.982 174.822C652.735 171.575 650.319 171.357 635.996 173.017ZM696.025 175.415C694.34 177.334 691.937 180.699 690.684 182.894C689.022 185.803 687.754 186.886 686 186.891C683.618 186.899 683.613 186.877 685.466 184.649C686.495 183.411 689.133 180.486 691.329 178.149C697.535 171.543 693.196 172.725 683.528 180.274C676.151 186.035 674.775 186.718 669.262 187.358C662.416 188.152 656.905 190.964 656.905 193.662C656.905 196.776 659.824 199.901 662.712 199.877C665.91 199.851 673.588 196.524 676.405 193.942C679.108 191.466 686.905 190.154 686.905 192.176C686.905 194.25 690.517 198.564 692.74 199.146C697.053 200.273 707.905 193.881 707.905 190.212C707.905 188.394 706.481 188.564 701.831 190.937C694.877 194.484 694.146 191.748 699.428 181.945C703.479 174.427 703.503 174.289 700.996 172.948C699.419 172.104 698.557 172.531 696.025 175.415ZM740.367 173.454C737.046 174.132 731.196 176.105 727.367 177.838C711.709 184.924 707.254 190.794 712.712 197.149C715.458 200.346 725.863 198.824 738.271 193.41C739.932 192.686 740.01 192.834 738.982 194.755C738.346 195.943 735.031 198.185 731.616 199.738C724.809 202.832 722.371 205.065 723.262 207.386C723.999 209.308 725.666 209.291 731.62 207.296C737.911 205.189 741.966 202.032 745.783 196.27C749.14 191.201 749.719 187.82 747.54 186.011C746.492 185.141 744.648 185.593 739.6 187.954C732.571 191.244 722.664 192.935 721.496 191.045C720.318 189.141 722.678 186.212 728.139 182.8C732.47 180.094 734.648 179.435 740.405 179.093C747.836 178.651 749.905 177.736 749.905 174.893C749.905 172.415 747.344 172.029 740.367 173.454ZM818.616 173.107C810.53 174.05 803.905 177.091 803.905 179.86C803.905 180.917 804.417 182.097 805.043 182.484C805.721 182.903 804.409 184.037 801.793 185.293C798.507 186.87 797.276 187.085 796.892 186.149C796.536 185.283 794.762 185.988 791.117 188.442C782.9 193.976 781.443 191.374 787.928 182.749C792.169 177.11 792.508 175.308 789.666 173.518C788.203 172.597 786.7 173.625 780.166 180.019C775.898 184.197 771.292 188.354 769.932 189.257C767.161 191.098 762.905 191.456 762.905 189.849C762.905 188.16 765.63 183.373 767.451 181.861C770.177 179.598 770.875 176.616 769.139 174.649C766.02 171.115 764.742 171.981 757.848 182.304C751.645 191.593 752.887 198.899 760.669 198.899C764.988 198.899 768.086 197.557 772.294 193.862C775.372 191.16 775.905 190.97 775.905 192.573C775.905 195.54 778.796 198.899 781.349 198.899C782.632 198.899 785.938 197.346 788.697 195.448L793.714 191.998L794.321 194.42C795.213 197.973 798.536 199.302 806.405 199.253C814.14 199.206 823.356 196.268 826.43 192.872C829.121 189.898 827.496 189.347 821.555 191.22C814.97 193.296 806.592 193.431 804.979 191.488C803.459 189.657 804.198 189.242 812.909 187.03C820.583 185.081 821.721 183.867 817.015 182.648C810.22 180.887 813.096 176.552 820.395 177.553C824.905 178.171 828.905 176.727 828.905 174.48C828.905 172.548 826.343 172.206 818.616 173.107ZM458.405 174.864C445.395 178.311 442.771 180.114 444.677 184.297C445.508 186.123 447.476 187.104 453.642 188.767C457.986 189.94 462.073 190.899 462.723 190.899C464.968 190.899 463.897 192.863 461.297 193.515C458.496 194.219 444.859 193.413 441.155 192.326C439.247 191.766 438.905 192.044 438.905 194.16C438.905 195.532 439.549 197.189 440.336 197.842C442.766 199.859 451.932 200.18 459.757 198.522C469.139 196.534 473.304 194.164 473.724 190.574C474.001 188.204 473.477 187.599 469.724 185.952C467.349 184.91 463.718 183.746 461.655 183.367C457.714 182.641 456.688 180.607 459.655 179.402C463.974 177.647 466.916 177.107 467.451 177.973C468.998 180.477 476.905 177.441 476.905 174.342C476.905 172.264 467.182 172.538 458.405 174.864ZM514.705 178.099C516.801 180.195 516.008 183.817 512.655 187.458C509.616 190.758 509.2 190.915 506.238 189.874C502.935 188.713 498.763 190.074 494.692 193.641C493.75 194.466 492.288 194.876 491.442 194.552C486.779 192.762 493.187 184.1 502.396 179.743C508.833 176.698 512.777 176.171 514.705 178.099Z" fill="#00448E"/>
</svg>
