<svg width="800" height="800" viewBox="0 0 800 800" fill="none" xmlns="http://www.w3.org/2000/svg">
<rect width="800" height="800" fill="white"/>
<path fill-rule="evenodd" clip-rule="evenodd" d="M206.102 645.133C196.541 648.582 188.895 657.723 185.251 670.06C183.716 675.259 183.548 676.879 183.53 686.628C183.514 696.506 183.656 697.881 185.182 702.629C188.118 711.761 192.489 717.017 199.852 720.274C204.706 722.419 214.804 722.395 221.494 720.223C224.13 719.367 228.183 718.111 230.502 717.431L234.719 716.195L235.86 703.188C236.927 691.032 236.932 690.03 235.94 687.865C234.709 685.181 235.344 685.316 223.573 685.244L214.471 685.188L214.079 687.529C213.492 691.031 214.317 694.771 215.884 695.717C216.724 696.225 218.749 696.38 221.179 696.125L225.112 695.71L224.809 701.61C224.59 705.888 224.224 707.752 223.479 708.388C219.799 711.53 210.379 712.465 205.838 710.138C202.455 708.405 199.605 704.633 197.781 699.474C196.469 695.762 196.295 694.059 196.285 684.828C196.274 673.673 197.079 668.644 200.042 661.342C201.246 658.376 202.088 657.364 204.413 656.095C208.758 653.723 213.015 653.377 216.496 655.114C220.282 657.002 222.148 660.416 222.609 666.295C222.802 668.762 223.277 671.018 223.665 671.309C225.028 672.333 229.496 671.844 231.525 670.449C234.594 668.339 235.733 665.277 235.432 659.947C235.127 654.556 233.497 651.497 229.148 648.15C223.486 643.792 213.456 642.479 206.102 645.133ZM381.906 644.86C370.53 648.459 361.747 660.236 359.093 675.449C356.222 691.906 360.912 710.736 369.566 717.499C385.873 730.243 412.503 718.353 412.503 698.329C412.503 694.863 410.072 691.817 406.383 690.663C401.454 689.119 401.218 689.291 400.817 694.733C399.904 707.103 396.131 712.207 387.908 712.194C380.195 712.182 375.546 707.956 372.727 698.394C370.909 692.224 370.788 676.714 372.505 669.699C374.536 661.397 376.346 657.923 379.597 656.093C389.326 650.613 397.52 655.954 398.302 668.287C398.57 672.512 398.798 673.238 399.968 673.592C404.137 674.854 408.448 672.945 410.235 669.047C411.424 666.457 411.515 661.243 410.444 657.176C409.458 653.431 404.938 648.246 400.684 645.979C396.556 643.778 387.106 643.215 381.906 644.86ZM440.482 645.156C435.204 647.059 431.685 649.618 427.749 654.41C423.578 659.491 419.908 667.094 418.595 673.375C417.364 679.267 417.353 691.779 418.575 697.622C421.504 711.629 429.577 720.48 441.199 722.425C456.39 724.968 469.705 715.193 475.611 697.161C477.746 690.641 478.293 678.008 476.774 670.309C474.043 656.466 467.097 647.342 457.314 644.745C452.25 643.401 444.848 643.582 440.482 645.156ZM502.425 645.164C495.918 647.51 490.109 652.625 487.506 658.3C486.043 661.492 485.622 668.257 486.634 672.333C488.187 678.585 492.737 682.348 504.371 686.999C511.273 689.759 516.29 692.982 518.176 695.866C520.012 698.676 520.019 704.838 518.188 707.603C515.772 711.254 513.692 712.478 509.437 712.755C506.222 712.964 504.895 712.692 502.577 711.348C498.574 709.027 497.366 706.128 497.602 699.413L497.786 694.187L495.709 693.75C491.085 692.775 487 695.317 485.369 700.183C482.694 708.167 487.958 718.101 496.514 721.212C505.021 724.305 515.978 722.413 522.671 716.695C529.065 711.233 531.586 705.66 531.549 697.074C531.502 686.213 526.159 680.522 509.954 674.074C502.683 671.18 500.098 669.362 498.985 666.357C497.228 661.614 499.667 655.15 503.689 653.89C511.87 651.329 517.266 655.572 517.268 664.568L517.27 668.442L520.525 668.089C529.048 667.166 532.175 654.987 525.535 648.577C520.714 643.923 510.182 642.368 502.425 645.164ZM287.613 645.236C285.856 645.555 282.179 646.384 279.441 647.077C274.634 648.294 274.475 648.4 274.805 650.193C277.519 664.976 277.565 699.512 274.887 712.457L274.015 716.674L276.732 718.029C282.364 720.839 287.349 721.845 295.598 721.837C302.236 721.83 304.284 721.553 307.736 720.196C315.115 717.294 320.184 712.836 322.911 706.845C325.324 701.544 325.723 692.167 323.723 687.747C321.947 683.82 318.398 680.11 315.016 678.644L312.393 677.508L315.717 673.76C318.354 670.786 319.208 669.223 319.853 666.192C322.038 655.922 317.89 648.247 308.719 645.589C304.627 644.403 293.242 644.213 287.613 645.236ZM578.431 647.804C578.249 649.629 576.939 653.764 575.52 656.992C572.408 664.076 565.763 671.983 560.025 675.431C557.942 676.684 556.238 678.131 556.238 678.647C556.238 680.267 559.751 689.28 562.579 694.913C570.565 710.821 580.627 722.206 586.762 722.272C590.81 722.316 594.567 718.423 594.567 714.184C594.567 712.897 594.02 712.269 592.28 711.559C587.323 709.538 577.954 697.511 571.524 684.916L568.81 679.601L571.627 677.052C576.331 672.795 583.102 664.647 585.697 660.119C588.32 655.543 589.21 652.109 588.546 649.126C588.069 646.982 583.933 644.527 580.756 644.502C578.858 644.486 578.747 644.644 578.431 647.804ZM248.393 645.864C247.734 646.334 247.617 647.31 247.943 649.608C249.04 657.345 249.563 675.768 248.956 685.296C248.607 690.784 248.136 699.845 247.91 705.434L247.498 715.595L249.781 718.401C252.019 721.153 252.15 721.207 256.553 721.204C259.023 721.202 261.316 720.878 261.65 720.484C262.023 720.042 262.037 718.386 261.686 716.164C260.4 708.025 260.258 685.57 261.393 669.82C262.003 661.367 262.321 653.368 262.101 652.045C261.855 650.567 260.837 648.784 259.462 647.422C257.472 645.452 256.783 645.208 253.254 645.217C251.07 645.223 248.883 645.514 248.393 645.864ZM335.933 645.849C335.224 646.356 335.188 647.579 335.738 652.501C336.943 663.294 337.235 676.328 336.511 686.989C336.122 692.734 335.634 701.487 335.427 706.439C335.07 714.979 335.123 715.547 336.462 717.44C338.743 720.665 341.322 721.801 345.316 721.335C347.233 721.113 349.042 720.66 349.335 720.33C349.627 720 349.591 717.955 349.255 715.786C347.923 707.188 347.774 687.118 348.921 670.583C349.534 661.758 349.851 653.435 349.627 652.088C349.373 650.564 348.374 648.801 346.981 647.422C344.991 645.452 344.302 645.208 340.772 645.217C338.589 645.223 336.411 645.507 335.933 645.849ZM541.358 645.708C540.643 645.918 540.334 646.493 540.536 647.245C542.336 653.979 542.685 679.57 541.247 699.472C540.737 706.536 540.491 713.283 540.7 714.464C541.221 717.401 544.308 720.691 547.096 721.28C549.768 721.845 555.33 720.792 555.173 719.751C553.467 708.46 553.248 686.27 554.652 666.852C555.726 651.989 555.497 650.052 552.314 647.031C550.679 645.481 549.797 645.218 546.447 645.29C544.278 645.336 541.988 645.524 541.358 645.708ZM602.685 645.708C601.965 645.919 601.663 646.489 601.87 647.245C603.649 653.74 603.982 679.281 602.546 699.147C601.441 714.434 601.74 716.957 604.964 719.55C606.564 720.837 607.88 721.207 610.857 721.207C616.478 721.207 616.897 720.885 616.173 717.12C615.008 711.064 614.831 681.699 615.873 667.421C616.976 652.3 616.722 649.954 613.664 647.053C612.005 645.478 611.136 645.218 607.774 645.29C605.605 645.336 603.315 645.524 602.685 645.708ZM454.665 655.89C461.689 659.734 465.118 668.4 465.117 682.306C465.116 694.543 462.48 703.516 457.353 708.739C452.69 713.49 447.189 714.055 440.286 710.491C433.554 707.016 430.126 698.225 430.135 684.467C430.146 671.026 433.285 659.114 437.614 656.097C442.418 652.749 448.783 652.671 454.665 655.89ZM302.858 654.844C306.287 656.46 307.736 659.157 307.736 663.927C307.736 671.58 303.894 675.198 293.681 677.16C290.695 677.735 288.169 678.116 288.068 678.008C287.968 677.9 288.112 672.665 288.388 666.376L288.89 654.942L290.807 654.482C294.298 653.643 300.717 653.836 302.858 654.844ZM306.924 686.242C313.223 689.467 314.769 700.637 309.753 706.686C306.522 710.581 303.543 711.795 297.195 711.803C288.573 711.813 288.85 712.207 288.312 699.165C288.063 693.147 288.094 687.959 288.381 687.636C289.415 686.469 296.006 684.922 300.07 684.891C302.851 684.869 305.115 685.316 306.924 686.242Z" fill="#00448E"/>
<path fill-rule="evenodd" clip-rule="evenodd" d="M284.779 272.082C286.042 269.369 286.615 268.247 284.936 272.227C284.893 272.166 284.841 272.118 284.779 272.082Z" fill="#004898"/>
<path fill-rule="evenodd" clip-rule="evenodd" d="M284.779 272.082C286.042 269.369 286.615 268.247 284.936 272.227C284.893 272.166 284.841 272.118 284.779 272.082Z" fill="#00448E"/>
<path fill-rule="evenodd" clip-rule="evenodd" d="M47.2636 311.066C46.0597 314.269 62.1085 351.982 80.6739 389.575C95.1959 418.982 136.806 497.803 146.345 513.975C158.363 534.35 166.951 548.26 174.397 559.413C178.01 564.823 180.966 569.983 180.966 570.879C180.966 573.337 185.231 583.749 190.098 593.175C198.509 609.464 215.867 634.512 220.405 636.907C223.183 638.373 229.383 638.557 231.787 637.244C233.666 636.217 235.844 632.407 235.805 630.215C235.74 626.546 232.276 619.501 222.982 604.136C217.446 594.985 213.046 587.389 213.205 587.255C213.363 587.122 214.555 586.648 215.854 586.202C218.021 585.458 218.534 585.678 222.103 588.883C224.241 590.804 226.229 592.375 226.52 592.375C226.811 592.375 229.529 590.395 232.559 587.975C239.273 582.613 240.868 582.321 240.202 586.575C239.67 589.98 240.192 591.126 242.626 591.901C243.896 592.305 244.848 591.875 246.374 590.209C250.208 586.024 249.97 584.62 244.547 579.418L239.695 574.763L237.175 576.082C235.789 576.807 233.181 578.43 231.379 579.688C225.099 584.073 224.583 582.419 229.601 573.986L233.527 567.39L228.71 560.082C226.06 556.063 223.032 551.965 221.98 550.975C217.195 546.47 205.362 551.178 200.105 559.679C199.051 561.382 197.859 562.775 197.454 562.775C196.299 562.775 191.265 553.049 189.523 547.45C188.655 544.658 187.037 539.495 185.928 535.975C180.601 519.072 168.076 500.86 153.712 489.13C146.622 483.34 144.679 480.457 143.329 473.722C140.202 458.119 132.971 439.506 125.803 428.6C121.905 422.67 115.695 416.11 110.87 412.826C108.608 411.286 107.461 409.736 106.559 407.001C105.733 404.493 104.607 402.865 103.118 402.025C101.352 401.028 100.281 399.086 97.8271 392.436C90.3145 372.074 80.6779 351.196 71.5397 335.482C67.5871 328.686 64.4794 324.625 58.3753 318.28C50.735 310.339 48.1642 308.67 47.2636 311.066ZM745.529 316.258C738.643 321.814 731.505 330.674 724.922 341.838C717.198 354.937 705.346 379.398 700.101 393.069C698.013 398.51 695.775 403.154 695.128 403.388C692.677 404.276 690.426 407.102 690.426 409.29C690.426 411.135 689.645 412.035 685.964 414.439C671.957 423.584 660.394 443.638 653.19 471.276C652.09 475.494 650.674 479.965 650.043 481.21C649.412 482.455 645.575 486.201 641.516 489.533C624.935 503.145 612.431 521.385 606.937 539.975C603.849 550.421 598.089 561.975 595.969 561.975C595.386 561.975 594.673 561.215 594.385 560.286C593.459 557.311 588.262 552.182 584.223 550.258C580.393 548.434 574.136 547.759 572.437 548.987C571.702 549.519 562.235 562.539 560.798 564.994C560.44 565.607 561.63 568.54 563.786 572.357C565.758 575.846 567.372 579.078 567.372 579.538C567.372 581.148 564.899 580.351 560.47 577.314C558.016 575.631 555.591 574.006 555.084 573.703C553.905 573 543.858 581.633 543.858 583.35C543.858 584.05 544.758 585.828 545.857 587.3C547.298 589.227 548.479 589.975 550.084 589.975C552.719 589.975 553.496 588.457 552.8 584.668C552.059 580.635 554.274 581.128 560.467 586.375C563.324 588.795 566.08 590.775 566.592 590.775C567.104 590.775 569.121 589.34 571.073 587.586C573.928 585.021 575.027 584.492 576.68 584.889C577.811 585.16 579.046 585.67 579.425 586.021C579.803 586.373 575.71 593.616 570.33 602.118C559.176 619.741 557.412 623.01 556.749 627.302C555.786 633.528 561.507 638.176 568.49 636.839C572.155 636.137 574.183 634.312 581.23 625.37C594.629 608.372 609.57 582.632 612.226 571.975C612.833 569.538 614.726 565.944 617.071 562.775C621.375 556.96 641.563 525.918 650.629 511.175C656.054 502.354 670.361 476.86 702.035 419.575C722.292 382.94 750.244 324.894 752.038 315.739C752.471 313.526 752.323 313.175 750.945 313.175C750.068 313.175 747.631 314.562 745.529 316.258ZM63.4432 333.375C70.7967 345.154 90.059 384.818 86.6574 381.175C84.8484 379.238 58.1794 326.775 59.0031 326.775C59.1787 326.775 61.1765 329.746 63.4432 333.375ZM728.395 352.088C712.262 382.235 707.94 389.651 711.328 381.378C717.053 367.391 738.279 328.952 739.557 330.257C739.742 330.446 734.72 340.27 728.395 352.088ZM114.132 424.17C119.391 430.426 123.685 437.08 127.611 445.054C131.313 452.574 135.968 466.146 136.706 471.575L137.195 475.175L134.921 471.575C132.821 468.25 122.403 448.73 110.391 425.611C105.641 416.469 105.528 416.125 107.841 417.806C109.173 418.774 112.004 421.638 114.132 424.17ZM687.972 424.175C678.233 442.219 660.407 473.731 659.349 474.775C658.255 475.854 658.189 475.694 658.697 473.175C661.029 461.597 669.65 442.597 677.231 432.329C681.171 426.99 689.78 417.975 690.936 417.975C691.147 417.975 689.813 420.766 687.972 424.175ZM156.366 498.196C166.162 508.762 175.82 524.625 181.693 539.796C184.591 547.282 184.611 547.575 182.216 547.575C180.683 547.575 179.235 545.887 174.458 538.534C165.334 524.493 145.696 490.549 145.696 488.822C145.696 487.638 150.452 491.817 156.366 498.196ZM649.669 489.674C649.669 490.813 631.827 520.188 623.247 533.175C615.406 545.043 613.699 547.175 612.043 547.175C609.567 547.175 609.716 546.082 613.353 537.575C620.003 522.024 629.432 507.945 640.813 496.575C647.504 489.89 649.669 488.204 649.669 489.674ZM584.817 557.626C586.436 558.715 588.817 561.093 590.108 562.91C592.495 566.274 593.255 570.702 591.473 570.864C586.603 571.304 579.106 567.843 576.902 564.137C574.843 560.674 574.133 556.828 575.184 554.823C576.007 553.254 576.184 553.235 578.96 554.411C580.561 555.09 583.197 556.537 584.817 557.626ZM218.958 556.307C219.582 558.31 218.755 561.748 216.89 564.918C214.102 569.657 202.129 573.794 200.873 570.453C199.687 567.297 206.043 559.73 212.709 556.361C216.648 554.37 218.352 554.356 218.958 556.307ZM604.053 573.335C604.57 573.863 604.993 574.871 604.993 575.576C604.993 577.138 592.654 597.956 585.652 608.207C576.743 621.25 567.438 630.23 565.712 627.45C565.345 626.859 565.039 625.515 565.032 624.463C565.011 621.007 583.542 593.728 595.527 579.575C602.078 571.838 602.375 571.622 604.053 573.335ZM194.047 575.775C200.589 582.817 216.491 605.506 224.007 618.52C227.687 624.893 228.103 628.588 225.189 629.013C222.778 629.365 213.355 618.846 206.46 608.107C198.122 595.121 188.804 578.222 188.804 576.087C188.804 572.336 190.745 572.22 194.047 575.775Z" fill="#004898"/>
<path fill-rule="evenodd" clip-rule="evenodd" d="M47.2636 311.066C46.0597 314.269 62.1085 351.982 80.6739 389.575C95.1959 418.982 136.806 497.803 146.345 513.975C158.363 534.35 166.951 548.26 174.397 559.413C178.01 564.823 180.966 569.983 180.966 570.879C180.966 573.337 185.231 583.749 190.098 593.175C198.509 609.464 215.867 634.512 220.405 636.907C223.183 638.373 229.383 638.557 231.787 637.244C233.666 636.217 235.844 632.407 235.805 630.215C235.74 626.546 232.276 619.501 222.982 604.136C217.446 594.985 213.046 587.389 213.205 587.255C213.363 587.122 214.555 586.648 215.854 586.202C218.021 585.458 218.534 585.678 222.103 588.883C224.241 590.804 226.229 592.375 226.52 592.375C226.811 592.375 229.529 590.395 232.559 587.975C239.273 582.613 240.868 582.321 240.202 586.575C239.67 589.98 240.192 591.126 242.626 591.901C243.896 592.305 244.848 591.875 246.374 590.209C250.208 586.024 249.97 584.62 244.547 579.418L239.695 574.763L237.175 576.082C235.789 576.807 233.181 578.43 231.379 579.688C225.099 584.073 224.583 582.419 229.601 573.986L233.527 567.39L228.71 560.082C226.06 556.063 223.032 551.965 221.98 550.975C217.195 546.47 205.362 551.178 200.105 559.679C199.051 561.382 197.859 562.775 197.454 562.775C196.299 562.775 191.265 553.049 189.523 547.45C188.655 544.658 187.037 539.495 185.928 535.975C180.601 519.072 168.076 500.86 153.712 489.13C146.622 483.34 144.679 480.457 143.329 473.722C140.202 458.119 132.971 439.506 125.803 428.6C121.905 422.67 115.695 416.11 110.87 412.826C108.608 411.286 107.461 409.736 106.559 407.001C105.733 404.493 104.607 402.865 103.118 402.025C101.352 401.028 100.281 399.086 97.8271 392.436C90.3145 372.074 80.6779 351.196 71.5397 335.482C67.5871 328.686 64.4794 324.625 58.3753 318.28C50.735 310.339 48.1642 308.67 47.2636 311.066ZM745.529 316.258C738.643 321.814 731.505 330.674 724.922 341.838C717.198 354.937 705.346 379.398 700.101 393.069C698.013 398.51 695.775 403.154 695.128 403.388C692.677 404.276 690.426 407.102 690.426 409.29C690.426 411.135 689.645 412.035 685.964 414.439C671.957 423.584 660.394 443.638 653.19 471.276C652.09 475.494 650.674 479.965 650.043 481.21C649.412 482.455 645.575 486.201 641.516 489.533C624.935 503.145 612.431 521.385 606.937 539.975C603.849 550.421 598.089 561.975 595.969 561.975C595.386 561.975 594.673 561.215 594.385 560.286C593.459 557.311 588.262 552.182 584.223 550.258C580.393 548.434 574.136 547.759 572.437 548.987C571.702 549.519 562.235 562.539 560.798 564.994C560.44 565.607 561.63 568.54 563.786 572.357C565.758 575.846 567.372 579.078 567.372 579.538C567.372 581.148 564.899 580.351 560.47 577.314C558.016 575.631 555.591 574.006 555.084 573.703C553.905 573 543.858 581.633 543.858 583.35C543.858 584.05 544.758 585.828 545.857 587.3C547.298 589.227 548.479 589.975 550.084 589.975C552.719 589.975 553.496 588.457 552.8 584.668C552.059 580.635 554.274 581.128 560.467 586.375C563.324 588.795 566.08 590.775 566.592 590.775C567.104 590.775 569.121 589.34 571.073 587.586C573.928 585.021 575.027 584.492 576.68 584.889C577.811 585.16 579.046 585.67 579.425 586.021C579.803 586.373 575.71 593.616 570.33 602.118C559.176 619.741 557.412 623.01 556.749 627.302C555.786 633.528 561.507 638.176 568.49 636.839C572.155 636.137 574.183 634.312 581.23 625.37C594.629 608.372 609.57 582.632 612.226 571.975C612.833 569.538 614.726 565.944 617.071 562.775C621.375 556.96 641.563 525.918 650.629 511.175C656.054 502.354 670.361 476.86 702.035 419.575C722.292 382.94 750.244 324.894 752.038 315.739C752.471 313.526 752.323 313.175 750.945 313.175C750.068 313.175 747.631 314.562 745.529 316.258ZM63.4432 333.375C70.7967 345.154 90.059 384.818 86.6574 381.175C84.8484 379.238 58.1794 326.775 59.0031 326.775C59.1787 326.775 61.1765 329.746 63.4432 333.375ZM728.395 352.088C712.262 382.235 707.94 389.651 711.328 381.378C717.053 367.391 738.279 328.952 739.557 330.257C739.742 330.446 734.72 340.27 728.395 352.088ZM114.132 424.17C119.391 430.426 123.685 437.08 127.611 445.054C131.313 452.574 135.968 466.146 136.706 471.575L137.195 475.175L134.921 471.575C132.821 468.25 122.403 448.73 110.391 425.611C105.641 416.469 105.528 416.125 107.841 417.806C109.173 418.774 112.004 421.638 114.132 424.17ZM687.972 424.175C678.233 442.219 660.407 473.731 659.349 474.775C658.255 475.854 658.189 475.694 658.697 473.175C661.029 461.597 669.65 442.597 677.231 432.329C681.171 426.99 689.78 417.975 690.936 417.975C691.147 417.975 689.813 420.766 687.972 424.175ZM156.366 498.196C166.162 508.762 175.82 524.625 181.693 539.796C184.591 547.282 184.611 547.575 182.216 547.575C180.683 547.575 179.235 545.887 174.458 538.534C165.334 524.493 145.696 490.549 145.696 488.822C145.696 487.638 150.452 491.817 156.366 498.196ZM649.669 489.674C649.669 490.813 631.827 520.188 623.247 533.175C615.406 545.043 613.699 547.175 612.043 547.175C609.567 547.175 609.716 546.082 613.353 537.575C620.003 522.024 629.432 507.945 640.813 496.575C647.504 489.89 649.669 488.204 649.669 489.674ZM584.817 557.626C586.436 558.715 588.817 561.093 590.108 562.91C592.495 566.274 593.255 570.702 591.473 570.864C586.603 571.304 579.106 567.843 576.902 564.137C574.843 560.674 574.133 556.828 575.184 554.823C576.007 553.254 576.184 553.235 578.96 554.411C580.561 555.09 583.197 556.537 584.817 557.626ZM218.958 556.307C219.582 558.31 218.755 561.748 216.89 564.918C214.102 569.657 202.129 573.794 200.873 570.453C199.687 567.297 206.043 559.73 212.709 556.361C216.648 554.37 218.352 554.356 218.958 556.307ZM604.053 573.335C604.57 573.863 604.993 574.871 604.993 575.576C604.993 577.138 592.654 597.956 585.652 608.207C576.743 621.25 567.438 630.23 565.712 627.45C565.345 626.859 565.039 625.515 565.032 624.463C565.011 621.007 583.542 593.728 595.527 579.575C602.078 571.838 602.375 571.622 604.053 573.335ZM194.047 575.775C200.589 582.817 216.491 605.506 224.007 618.52C227.687 624.893 228.103 628.588 225.189 629.013C222.778 629.365 213.355 618.846 206.46 608.107C198.122 595.121 188.804 578.222 188.804 576.087C188.804 572.336 190.745 572.22 194.047 575.775Z" fill="#00448E"/>
<path d="M329.391 301.593C330.8 305.338 331.457 310.865 332.23 325.46C332.877 337.659 333.418 342.202 334.618 345.472C336.851 351.566 340.657 355.705 346.491 358.384C350.771 360.35 352.392 360.653 358.493 360.628C363.682 360.608 366.895 360.13 370.642 358.819C375.289 357.195 380.409 354.079 381.759 352.056C383.553 349.366 378.379 349.317 370.26 351.947C358.358 355.802 352.543 355.492 347.128 350.712L344.385 348.29L347.912 348.846C354.548 349.894 360.453 349.142 360.453 347.25C360.453 345.867 357.676 344.68 351.723 343.517C348.98 342.981 345.814 342.071 344.687 341.494C342.74 340.498 339.497 335.097 340.334 334.243C340.551 334.022 343.887 335.131 347.748 336.708C353.103 338.895 355.896 339.575 359.524 339.575C367.833 339.575 366.763 337.818 356.142 334.018C348.191 331.174 343.858 328.463 342.538 325.509C340.392 320.701 341.985 319.912 346.205 323.694C350.013 327.107 356.066 329.818 363.186 331.3C372.75 333.29 374.21 330.952 365.485 327.62C359.496 325.334 350.753 320.741 349.535 319.242C348.02 317.38 349.535 317.547 362.748 320.702C374.8 323.578 387.854 325.439 388.898 324.429C389.957 323.403 387.984 322.355 371.782 315.338C352.227 306.87 336.829 301.104 332.304 300.556C329.199 300.181 328.901 300.287 329.391 301.593Z" fill="#004898"/>
<path d="M329.391 301.593C330.8 305.338 331.457 310.865 332.23 325.46C332.877 337.659 333.418 342.202 334.618 345.472C336.851 351.566 340.657 355.705 346.491 358.384C350.771 360.35 352.392 360.653 358.493 360.628C363.682 360.608 366.895 360.13 370.642 358.819C375.289 357.195 380.409 354.079 381.759 352.056C383.553 349.366 378.379 349.317 370.26 351.947C358.358 355.802 352.543 355.492 347.128 350.712L344.385 348.29L347.912 348.846C354.548 349.894 360.453 349.142 360.453 347.25C360.453 345.867 357.676 344.68 351.723 343.517C348.98 342.981 345.814 342.071 344.687 341.494C342.74 340.498 339.497 335.097 340.334 334.243C340.551 334.022 343.887 335.131 347.748 336.708C353.103 338.895 355.896 339.575 359.524 339.575C367.833 339.575 366.763 337.818 356.142 334.018C348.191 331.174 343.858 328.463 342.538 325.509C340.392 320.701 341.985 319.912 346.205 323.694C350.013 327.107 356.066 329.818 363.186 331.3C372.75 333.29 374.21 330.952 365.485 327.62C359.496 325.334 350.753 320.741 349.535 319.242C348.02 317.38 349.535 317.547 362.748 320.702C374.8 323.578 387.854 325.439 388.898 324.429C389.957 323.403 387.984 322.355 371.782 315.338C352.227 306.87 336.829 301.104 332.304 300.556C329.199 300.181 328.901 300.287 329.391 301.593Z" fill="#00448E"/>
<path d="M408.263 319.976C408.263 321.462 416.827 328.431 420.248 329.73C425.043 331.55 434.912 330.665 434.912 328.414C434.912 326.962 430.981 324.944 422.108 321.843C412.718 318.562 408.263 317.961 408.263 319.976Z" fill="#004898"/>
<path d="M408.263 319.976C408.263 321.462 416.827 328.431 420.248 329.73C425.043 331.55 434.912 330.665 434.912 328.414C434.912 326.962 430.981 324.944 422.108 321.843C412.718 318.562 408.263 317.961 408.263 319.976Z" fill="#00448E"/>
<path fill-rule="evenodd" clip-rule="evenodd" d="M283.169 276.491L283.171 276.487C283.22 276.368 283.269 276.25 283.317 276.133C283.268 276.251 283.219 276.37 283.169 276.491Z" fill="#004898"/>
<path fill-rule="evenodd" clip-rule="evenodd" d="M283.169 276.491L283.171 276.487C283.22 276.368 283.269 276.25 283.317 276.133C283.268 276.251 283.219 276.37 283.169 276.491Z" fill="#00448E"/>
<path fill-rule="evenodd" clip-rule="evenodd" d="M282.909 214.654C282.031 216.256 282.946 219.192 285.817 223.982C289.856 230.724 290.962 236.136 290.465 246.735C290.023 256.131 286.641 271.647 284.936 272.227C284.615 272.987 284.044 274.37 283.317 276.133L283.171 276.487L283.169 276.491L283.166 276.498L283.166 276.499L283.165 276.5L283.165 276.502C280.543 282.856 276.088 293.655 273.869 298.375C264.371 318.578 259.794 333.162 256.249 354.534C250.921 386.637 252.134 405.766 260.954 428.775C273.683 461.985 302.34 487.948 341.446 501.701C345.002 502.952 347.911 504.212 347.912 504.501L366.331 516.11L368.943 517.944C372.648 520.546 379.706 529.529 382.454 535.142L384.788 539.91L390.323 558.984C390.998 558.606 392.397 564.468 393.422 571.975C394.902 582.821 397.328 594.167 399.03 598.204C400.31 601.243 400.995 602.006 402.278 601.816C403.63 601.615 404.635 599.363 408.271 588.375C412.846 574.551 415.471 568.614 418.781 564.598C419.872 563.275 422.223 558.274 424.008 553.484C426.808 545.967 427.315 543.626 427.715 536.375C427.98 531.559 428.226 529.579 428.472 530.33L426.32 516.11C425.834 515.608 425.626 514.442 425.275 512.468L425.272 512.454C425.223 512.177 425.171 511.884 425.115 511.575C424.835 510.035 424.432 508.145 424.22 507.375C423.869 506.102 424.632 505.975 432.704 505.971C441.932 505.968 458.437 503.851 467.113 501.559C479.567 498.27 488.744 494.053 496.649 487.988C501.811 484.026 503.505 481.802 502.794 479.913L474.338 468.162C473.917 468.305 468.842 466.574 463.06 464.317C449.486 459.016 442.537 457.222 433.285 456.63C424.636 456.078 415.931 457.155 405.189 460.11C390.802 464.067 378.353 465.33 371.861 463.49C367.457 462.242 358.306 455.703 353.586 450.432C348.334 444.566 345.025 437.554 343.866 429.827C343.08 424.586 343.144 422.644 344.298 416.648C345.575 410.014 346.051 408.46 346.563 409.242C354.477 421.302 367.774 434.676 376.149 438.998C383.313 442.696 389.489 443.714 391.801 441.578C394.101 439.454 394.511 435.447 393.041 429.47C389.86 416.546 389.961 405.598 393.323 398.872C394.687 396.144 403.605 387.333 408.193 384.181C410.812 382.382 420.711 382.304 427.858 384.027C437.009 386.233 460.369 385.226 484.064 381.606C492.416 380.33 498.02 381.14 505.453 384.697C510.408 387.068 515.125 387.351 519.39 385.533C522.778 384.088 526.285 380.893 527.86 377.815C530.841 371.992 527.941 358.264 520.313 342.091C517.749 336.655 515.897 331.795 516.196 331.291C516.496 330.787 518.528 328.215 520.713 325.575C522.896 322.935 526.23 318.521 528.12 315.766L531.557 310.757L536.718 302.433L540.593 294.004C547.317 279.377 548.953 273.344 548.953 263.175V254.375L545.59 249.86C540.465 242.978 538.161 242.234 519.129 241.306L503.493 240.546L487.817 235.699C462.326 227.818 453.182 226.354 424.723 225.601C378.872 224.387 374.599 224.044 363.795 220.702C344.392 214.698 338.042 213.906 307.311 213.658C286.991 213.494 283.466 213.638 282.909 214.654ZM335.008 223.569C331.575 222.68 324.767 221.418 319.88 220.764C310.605 219.523 291.825 219.137 291.227 220.175C291.037 220.505 293.013 223.651 295.617 227.166C301.02 234.458 303.329 239.331 305.568 248.17C307.442 255.57 309.47 260.493 310.4 259.906C312.438 258.621 308.962 244.934 303.9 234.312C301.632 229.552 300.9 227.24 301.474 226.654C302.654 225.45 309.336 228.05 322.356 234.782C332.572 240.062 334.657 240.831 333.476 238.879C332.369 237.053 321.919 230.684 315.007 227.624C306.652 223.925 305.642 223.2 306.963 221.852C308.598 220.182 333.827 225.262 342.431 228.992C346.789 230.882 351.047 231.778 351.047 230.806C351.047 229.55 341.534 225.258 335.008 223.569ZM425.192 243.788C424.958 243.548 422.199 242.897 419.062 242.341C405.391 239.917 391.241 240.358 379.031 243.589C363.515 247.694 353.536 254.046 337.032 270.323C317.055 290.024 304.726 309.702 296.317 335.3C288.373 359.486 286.514 370.039 286.48 391.175C286.447 411.483 287.868 418.704 294.022 429.493C297.76 436.046 307.208 446.386 313.934 451.288C323.946 458.584 341.23 465.38 352.438 466.427L357.709 466.92L355.026 465.174C353.55 464.215 350.438 461.406 348.11 458.934C337.481 447.642 332.015 425.569 336.093 410.411C341.652 389.757 356.317 375.441 378.665 368.852C382.432 367.742 387.37 366.618 389.638 366.356C391.907 366.094 394.576 365.709 395.57 365.501L397.376 365.122L394.982 360.852C390.928 353.62 391.925 353.5 400.361 360.201C407.966 366.241 414.927 370.914 418.061 372.082C418.923 372.403 416.576 369.379 412.846 365.362C401.482 353.12 393.675 339.693 392.781 330.851C392.206 325.173 393.091 325.82 397.7 334.451C402.025 342.549 411.086 353.846 418.185 359.994C439.971 378.858 459.25 382.121 473.336 369.328L476.587 366.375L473.006 359.575C471.037 355.835 469.419 352.506 469.412 352.175C469.381 350.786 471.618 351.749 473.759 354.048C477.126 357.665 488.604 366.784 494.48 370.511C502.014 375.29 505.444 376.892 509.372 377.465L512.899 377.979L507.871 375.469C502.756 372.914 492.127 362.947 485.657 354.638C480.507 348.022 470.183 340.978 449.99 330.298C432.086 320.83 430.71 319.942 426.476 315.115C420.854 308.706 416.704 301.77 414.375 294.893C412.9 290.535 412.576 287.914 412.584 280.375C412.599 267.986 415.08 260.124 422.52 248.9C424.225 246.328 425.428 244.028 425.192 243.788ZM496.831 254.675C494.201 250.651 488.644 245.958 484.798 244.512C480.488 242.893 475.598 242.114 472.737 242.591C471.022 242.878 471.012 242.944 472.276 245.43C472.988 246.83 473.732 250.517 473.93 253.623C474.431 261.521 472.208 269.79 465.848 283.687C458.23 300.332 453.51 315.575 455.975 315.575C457.554 315.575 469.732 300.059 480.778 283.975C486.879 275.09 490.54 270.928 496.722 265.849C509.929 254.998 522.541 251.764 534.949 256.048C542.161 258.538 545.303 262.277 546.652 269.975C547.266 273.477 547.298 273.51 547.829 271.175C548.13 269.855 548.417 266.736 548.468 264.243C548.558 259.808 548.482 259.641 544.904 256.426C536.63 248.992 522.817 247.939 506.628 253.508L498.007 256.474L496.831 254.675ZM447.061 250.454L439.615 248.232C435.52 247.01 431.928 246.002 431.634 245.993C430.005 245.939 424.101 257.48 421.617 265.575C419.283 273.178 418.69 284.734 420.28 291.613C422.185 299.85 427.858 311.766 427.858 307.53C427.858 307.064 427.461 304.226 426.975 301.222C425.805 293.993 426.852 288.107 431.043 278.352C434.304 270.764 436.357 268.389 435.346 273.375C434.498 277.558 433.912 293.714 434.47 297.514C434.833 299.984 435.785 301.848 437.728 303.89C443.566 310.025 450.873 306.395 454.963 295.33C457.616 288.153 460.318 282.572 463.266 278.182L465.545 274.79L459.83 275.238C449.693 276.031 447.39 272.897 447.171 258.014L447.061 250.454ZM492.182 337.944C490.11 336.161 486.648 334.016 484.489 333.178C482.33 332.342 478.669 331.434 476.353 331.163L472.142 330.67L474.493 332.434C475.786 333.404 482.135 339.662 488.601 346.341C495.067 353.02 502.474 359.94 505.061 361.719C509.395 364.7 517.376 369.175 518.359 369.175C519.233 369.175 518.724 362.886 517.513 358.721C515.674 352.39 513.08 347.572 509.471 343.775C506.427 340.574 500.694 336.375 499.367 336.375C499.02 336.375 498.11 337.458 497.344 338.782L495.952 341.188L492.182 337.944ZM483.272 478.91C475.061 476.131 459.249 473.012 443.926 471.148C432.177 469.718 404.105 468.874 401.205 469.863C395.637 471.76 392.384 474.516 389.74 479.575C388.461 482.022 388.283 484.189 388.326 496.775C388.358 506.074 388.848 514.326 389.711 520.072C391.739 533.598 394.005 540.192 395.105 535.775C395.297 535.006 395.015 530.235 394.479 525.175C392.712 508.502 391.577 490.258 392.123 487.292C393.262 481.093 395.146 484.492 398.741 499.239C403.041 516.874 403.186 518.578 402.947 548.575C402.821 564.39 403.025 576.375 403.42 576.375C403.803 576.375 404.961 573.586 405.994 570.175C407.689 564.578 407.872 562.535 407.869 549.175C407.867 531.47 406.022 517.735 400.755 496.23C399.712 491.97 398.858 487.921 398.858 487.23C398.858 484.8 400.871 486.019 403.42 489.994C407.546 496.427 411.264 506.241 414.484 519.2C414.925 520.974 415.84 523.134 416.519 524C417.657 525.454 417.712 525.084 417.234 519.179C416.312 507.811 412.347 497.734 404.018 485.597C395.431 473.08 398.124 473.204 420.787 486.368C431.511 492.598 434.653 494.05 439.07 494.822C442.003 495.335 444.608 495.546 444.858 495.29C445.109 495.034 439.888 492.15 433.255 488.88C426.623 485.611 420.226 482.154 419.04 481.198C416.658 479.276 416.189 477.175 418.144 477.175C420.551 477.175 428.431 479.57 435.225 482.365C447.962 487.606 472.575 491.694 476.426 489.209C478.2 488.063 474.076 486.717 466.263 485.891C455.087 484.71 443.648 482.174 432.914 478.498C427.289 476.571 421.646 474.42 420.374 473.717L418.061 472.439L421.076 472.407C422.734 472.39 436.666 474.518 452.035 477.138C477.787 481.526 489.115 482.918 490.187 481.823C490.419 481.587 487.307 480.276 483.272 478.91Z" fill="#004898"/>
<path fill-rule="evenodd" clip-rule="evenodd" d="M282.909 214.654C282.031 216.256 282.946 219.192 285.817 223.982C289.856 230.724 290.962 236.136 290.465 246.735C290.023 256.131 286.641 271.647 284.936 272.227C284.615 272.987 284.044 274.37 283.317 276.133L283.171 276.487L283.169 276.491L283.166 276.498L283.166 276.499L283.165 276.5L283.165 276.502C280.543 282.856 276.088 293.655 273.869 298.375C264.371 318.578 259.794 333.162 256.249 354.534C250.921 386.637 252.134 405.766 260.954 428.775C273.683 461.985 302.34 487.948 341.446 501.701C345.002 502.952 347.911 504.212 347.912 504.501L366.331 516.11L368.943 517.944C372.648 520.546 379.706 529.529 382.454 535.142L384.788 539.91L390.323 558.984C390.998 558.606 392.397 564.468 393.422 571.975C394.902 582.821 397.328 594.167 399.03 598.204C400.31 601.243 400.995 602.006 402.278 601.816C403.63 601.615 404.635 599.363 408.271 588.375C412.846 574.551 415.471 568.614 418.781 564.598C419.872 563.275 422.223 558.274 424.008 553.484C426.808 545.967 427.315 543.626 427.715 536.375C427.98 531.559 428.226 529.579 428.472 530.33L426.32 516.11C425.834 515.608 425.626 514.442 425.275 512.468L425.272 512.454C425.223 512.177 425.171 511.884 425.115 511.575C424.835 510.035 424.432 508.145 424.22 507.375C423.869 506.102 424.632 505.975 432.704 505.971C441.932 505.968 458.437 503.851 467.113 501.559C479.567 498.27 488.744 494.053 496.649 487.988C501.811 484.026 503.505 481.802 502.794 479.913L474.338 468.162C473.917 468.305 468.842 466.574 463.06 464.317C449.486 459.016 442.537 457.222 433.285 456.63C424.636 456.078 415.931 457.155 405.189 460.11C390.802 464.067 378.353 465.33 371.861 463.49C367.457 462.242 358.306 455.703 353.586 450.432C348.334 444.566 345.025 437.554 343.866 429.827C343.08 424.586 343.144 422.644 344.298 416.648C345.575 410.014 346.051 408.46 346.563 409.242C354.477 421.302 367.774 434.676 376.149 438.998C383.313 442.696 389.489 443.714 391.801 441.578C394.101 439.454 394.511 435.447 393.041 429.47C389.86 416.546 389.961 405.598 393.323 398.872C394.687 396.144 403.605 387.333 408.193 384.181C410.812 382.382 420.711 382.304 427.858 384.027C437.009 386.233 460.369 385.226 484.064 381.606C492.416 380.33 498.02 381.14 505.453 384.697C510.408 387.068 515.125 387.351 519.39 385.533C522.778 384.088 526.285 380.893 527.86 377.815C530.841 371.992 527.941 358.264 520.313 342.091C517.749 336.655 515.897 331.795 516.196 331.291C516.496 330.787 518.528 328.215 520.713 325.575C522.896 322.935 526.23 318.521 528.12 315.766L531.557 310.757L536.718 302.433L540.593 294.004C547.317 279.377 548.953 273.344 548.953 263.175V254.375L545.59 249.86C540.465 242.978 538.161 242.234 519.129 241.306L503.493 240.546L487.817 235.699C462.326 227.818 453.182 226.354 424.723 225.601C378.872 224.387 374.599 224.044 363.795 220.702C344.392 214.698 338.042 213.906 307.311 213.658C286.991 213.494 283.466 213.638 282.909 214.654ZM335.008 223.569C331.575 222.68 324.767 221.418 319.88 220.764C310.605 219.523 291.825 219.137 291.227 220.175C291.037 220.505 293.013 223.651 295.617 227.166C301.02 234.458 303.329 239.331 305.568 248.17C307.442 255.57 309.47 260.493 310.4 259.906C312.438 258.621 308.962 244.934 303.9 234.312C301.632 229.552 300.9 227.24 301.474 226.654C302.654 225.45 309.336 228.05 322.356 234.782C332.572 240.062 334.657 240.831 333.476 238.879C332.369 237.053 321.919 230.684 315.007 227.624C306.652 223.925 305.642 223.2 306.963 221.852C308.598 220.182 333.827 225.262 342.431 228.992C346.789 230.882 351.047 231.778 351.047 230.806C351.047 229.55 341.534 225.258 335.008 223.569ZM425.192 243.788C424.958 243.548 422.199 242.897 419.062 242.341C405.391 239.917 391.241 240.358 379.031 243.589C363.515 247.694 353.536 254.046 337.032 270.323C317.055 290.024 304.726 309.702 296.317 335.3C288.373 359.486 286.514 370.039 286.48 391.175C286.447 411.483 287.868 418.704 294.022 429.493C297.76 436.046 307.208 446.386 313.934 451.288C323.946 458.584 341.23 465.38 352.438 466.427L357.709 466.92L355.026 465.174C353.55 464.215 350.438 461.406 348.11 458.934C337.481 447.642 332.015 425.569 336.093 410.411C341.652 389.757 356.317 375.441 378.665 368.852C382.432 367.742 387.37 366.618 389.638 366.356C391.907 366.094 394.576 365.709 395.57 365.501L397.376 365.122L394.982 360.852C390.928 353.62 391.925 353.5 400.361 360.201C407.966 366.241 414.927 370.914 418.061 372.082C418.923 372.403 416.576 369.379 412.846 365.362C401.482 353.12 393.675 339.693 392.781 330.851C392.206 325.173 393.091 325.82 397.7 334.451C402.025 342.549 411.086 353.846 418.185 359.994C439.971 378.858 459.25 382.121 473.336 369.328L476.587 366.375L473.006 359.575C471.037 355.835 469.419 352.506 469.412 352.175C469.381 350.786 471.618 351.749 473.759 354.048C477.126 357.665 488.604 366.784 494.48 370.511C502.014 375.29 505.444 376.892 509.372 377.465L512.899 377.979L507.871 375.469C502.756 372.914 492.127 362.947 485.657 354.638C480.507 348.022 470.183 340.978 449.99 330.298C432.086 320.83 430.71 319.942 426.476 315.115C420.854 308.706 416.704 301.77 414.375 294.893C412.9 290.535 412.576 287.914 412.584 280.375C412.599 267.986 415.08 260.124 422.52 248.9C424.225 246.328 425.428 244.028 425.192 243.788ZM496.831 254.675C494.201 250.651 488.644 245.958 484.798 244.512C480.488 242.893 475.598 242.114 472.737 242.591C471.022 242.878 471.012 242.944 472.276 245.43C472.988 246.83 473.732 250.517 473.93 253.623C474.431 261.521 472.208 269.79 465.848 283.687C458.23 300.332 453.51 315.575 455.975 315.575C457.554 315.575 469.732 300.059 480.778 283.975C486.879 275.09 490.54 270.928 496.722 265.849C509.929 254.998 522.541 251.764 534.949 256.048C542.161 258.538 545.303 262.277 546.652 269.975C547.266 273.477 547.298 273.51 547.829 271.175C548.13 269.855 548.417 266.736 548.468 264.243C548.558 259.808 548.482 259.641 544.904 256.426C536.63 248.992 522.817 247.939 506.628 253.508L498.007 256.474L496.831 254.675ZM447.061 250.454L439.615 248.232C435.52 247.01 431.928 246.002 431.634 245.993C430.005 245.939 424.101 257.48 421.617 265.575C419.283 273.178 418.69 284.734 420.28 291.613C422.185 299.85 427.858 311.766 427.858 307.53C427.858 307.064 427.461 304.226 426.975 301.222C425.805 293.993 426.852 288.107 431.043 278.352C434.304 270.764 436.357 268.389 435.346 273.375C434.498 277.558 433.912 293.714 434.47 297.514C434.833 299.984 435.785 301.848 437.728 303.89C443.566 310.025 450.873 306.395 454.963 295.33C457.616 288.153 460.318 282.572 463.266 278.182L465.545 274.79L459.83 275.238C449.693 276.031 447.39 272.897 447.171 258.014L447.061 250.454ZM492.182 337.944C490.11 336.161 486.648 334.016 484.489 333.178C482.33 332.342 478.669 331.434 476.353 331.163L472.142 330.67L474.493 332.434C475.786 333.404 482.135 339.662 488.601 346.341C495.067 353.02 502.474 359.94 505.061 361.719C509.395 364.7 517.376 369.175 518.359 369.175C519.233 369.175 518.724 362.886 517.513 358.721C515.674 352.39 513.08 347.572 509.471 343.775C506.427 340.574 500.694 336.375 499.367 336.375C499.02 336.375 498.11 337.458 497.344 338.782L495.952 341.188L492.182 337.944ZM483.272 478.91C475.061 476.131 459.249 473.012 443.926 471.148C432.177 469.718 404.105 468.874 401.205 469.863C395.637 471.76 392.384 474.516 389.74 479.575C388.461 482.022 388.283 484.189 388.326 496.775C388.358 506.074 388.848 514.326 389.711 520.072C391.739 533.598 394.005 540.192 395.105 535.775C395.297 535.006 395.015 530.235 394.479 525.175C392.712 508.502 391.577 490.258 392.123 487.292C393.262 481.093 395.146 484.492 398.741 499.239C403.041 516.874 403.186 518.578 402.947 548.575C402.821 564.39 403.025 576.375 403.42 576.375C403.803 576.375 404.961 573.586 405.994 570.175C407.689 564.578 407.872 562.535 407.869 549.175C407.867 531.47 406.022 517.735 400.755 496.23C399.712 491.97 398.858 487.921 398.858 487.23C398.858 484.8 400.871 486.019 403.42 489.994C407.546 496.427 411.264 506.241 414.484 519.2C414.925 520.974 415.84 523.134 416.519 524C417.657 525.454 417.712 525.084 417.234 519.179C416.312 507.811 412.347 497.734 404.018 485.597C395.431 473.08 398.124 473.204 420.787 486.368C431.511 492.598 434.653 494.05 439.07 494.822C442.003 495.335 444.608 495.546 444.858 495.29C445.109 495.034 439.888 492.15 433.255 488.88C426.623 485.611 420.226 482.154 419.04 481.198C416.658 479.276 416.189 477.175 418.144 477.175C420.551 477.175 428.431 479.57 435.225 482.365C447.962 487.606 472.575 491.694 476.426 489.209C478.2 488.063 474.076 486.717 466.263 485.891C455.087 484.71 443.648 482.174 432.914 478.498C427.289 476.571 421.646 474.42 420.374 473.717L418.061 472.439L421.076 472.407C422.734 472.39 436.666 474.518 452.035 477.138C477.787 481.526 489.115 482.918 490.187 481.823C490.419 481.587 487.307 480.276 483.272 478.91Z" fill="#00448E"/>
<path fill-rule="evenodd" clip-rule="evenodd" d="M295.309 132.601C291.356 133.855 271.844 143.974 264.013 148.832C259.995 151.325 255.587 154.641 254.219 156.199C251.816 158.936 251.732 159.283 251.732 166.503C251.732 172.059 252.03 174.222 252.893 174.938C254.718 176.454 256.978 175.21 258.491 171.856C259.254 170.163 262.227 166.481 265.097 163.677L270.316 158.576L269.766 162.175C265.148 192.367 264.636 198.474 266.543 200.582C268.51 202.757 272.164 202.581 277.203 200.069C283.605 196.879 284.007 195.881 282.856 186.027C281.941 178.184 282.234 161.039 283.423 152.849C283.878 149.716 284.201 149.372 288.931 146.971C293.521 144.64 294.146 144.513 296.157 145.5C301.46 148.101 300.827 150.338 291.168 163.117C284.407 172.063 283.527 174.338 286.183 176.002C290.072 178.439 298.23 173.211 306.244 163.145C314.906 152.266 317.14 144.353 313.18 138.573C309.699 133.493 301.324 130.695 295.309 132.601ZM381.192 136.784C378.13 140.983 375.263 146.6 370.885 156.977C369.029 161.375 367.277 165.207 366.991 165.492C366.705 165.778 364.57 166.262 362.246 166.571L358.023 167.131L367.34 152.993C373.535 143.59 376.389 138.587 375.858 138.056C373.659 135.857 370.863 138.072 356.014 153.778L340.892 169.772L333.292 171.492C317.019 175.174 308.587 180.522 308.528 187.198C308.474 193.447 313.963 199.787 319.39 199.742C325.488 199.692 337.624 192.371 346.12 183.615C351.097 178.488 351.838 178.029 358.148 176.178C361.846 175.092 365.246 174.197 365.705 174.187C366.163 174.178 366.961 175.749 367.476 177.677C368.765 182.497 374.399 187.478 379.411 188.23C385.911 189.205 393.226 185.997 399.886 179.251C404.56 174.518 408.039 167.841 407.322 164.984C406.484 161.644 403.69 162.443 397.695 167.736C391.2 173.472 387.508 175.006 385.21 172.926C384.174 171.987 383.661 170.474 383.661 168.35C383.661 164.731 388.144 150.742 391.679 143.336C394.722 136.958 394.677 135.963 391.283 134.544C386.296 132.46 383.969 132.976 381.192 136.784ZM423.364 144.091C417.334 146.354 414.043 150.962 414.048 157.137C414.052 162.203 415.854 164.996 422.576 170.355C432.326 178.128 442.266 183.266 454.623 186.92C457.812 187.862 460.42 188.767 460.42 188.931C460.42 189.095 457.744 189.86 454.474 190.631L448.527 192.033L442.28 189.179C433.903 185.351 427.404 183.537 421.765 183.451C417.775 183.391 416.868 183.656 415.568 185.262C414.73 186.297 414.045 187.626 414.045 188.216C414.045 191.55 427.578 200.063 436.916 202.603C448.352 205.713 469.065 202.798 478.589 196.739C480.984 195.214 481.697 191.03 480.092 187.925C478.776 185.38 473.772 182.992 467.29 181.815C462.866 181.012 451.155 175.825 446.437 172.578C440.465 168.468 435.633 163.332 435.633 161.095C435.633 157.602 437.243 157.122 447.441 157.574C454.988 157.908 458.307 158.473 464.418 160.461C471.767 162.852 472.24 163.155 478.964 169.77C488.518 179.17 493.961 181.519 498.292 178.111C501.616 175.496 501.2 171.883 497.155 168.227C487.773 159.75 467.471 150.306 447.227 145.003C440.162 143.152 427.186 142.656 423.364 144.091ZM511.592 173.988C498.798 182.525 485.862 194.728 482.538 201.401C479.941 206.614 479.845 210.419 482.212 214.296C485.674 219.963 490.292 222.154 498.774 222.154C505.536 222.154 511.051 220.538 519.472 216.091C524.314 213.534 525.986 212.948 525.547 213.96C525.212 214.728 524.777 217.73 524.579 220.632C524.237 225.645 524.344 226.049 526.747 228.787C530.243 232.769 534.378 233.343 542.979 231.041C551.681 228.711 561.84 223.825 565.416 220.249C568.508 217.157 569.19 214.646 567.153 213.864C566.489 213.609 561.09 215.047 555.156 217.061C549.223 219.075 543.83 220.516 543.172 220.264C541.392 219.581 541.716 215.58 543.801 212.476C545.469 209.992 547.932 207.957 559.19 199.762C561.305 198.222 563.387 196.388 563.817 195.687C564.989 193.777 563.833 190.435 560.894 187.227L558.274 184.367L555.595 185.753C554.122 186.515 548.583 189.856 543.287 193.178C527.554 203.044 514.433 208.507 506.374 208.547C503.601 208.56 500.398 206.615 500.398 204.917C500.398 202.993 506.043 197.368 512.555 192.803C519.451 187.967 522.786 184.447 522.786 182.001C522.786 178.549 517.519 172.494 514.619 172.613C514.054 172.636 512.692 173.255 511.592 173.988ZM216.215 212.486C214.457 214.429 209.409 226.123 206.519 234.949C204.709 240.475 204.28 243.268 204.226 249.875C204.162 257.425 204.296 258.151 206.096 260.072C208.236 262.355 213.013 262.937 214.86 261.14C215.696 260.327 215.763 261.036 215.22 264.939C213.398 278.025 215.311 287.308 220.455 290.347C223.312 292.035 228.635 292.137 231.679 290.563C237.924 287.332 245.956 274.529 249.784 261.701C251.501 255.947 251.989 252.425 252.268 243.746C252.631 232.451 252.145 230.085 249.083 228.23C246.629 226.743 244.86 229.893 244.278 236.785C242.998 251.923 233.52 270.837 227.631 270.004C225.885 269.757 225.76 269.412 225.927 265.339C226.139 260.172 227.044 255.895 230.284 244.767C231.593 240.271 232.435 236.222 232.156 235.771C230.954 233.825 227.759 234.958 225.83 238.015C223.855 241.145 219.418 245.346 218.089 245.346C216.085 245.346 214.152 242.009 214.152 238.55C214.152 235.574 214.627 234.428 216.908 231.902C223.074 225.077 226.071 214.636 222.595 212.093C220.439 210.516 217.854 210.675 216.215 212.486ZM594.348 224.719C591.637 226.274 590.713 228.028 590.957 231.151C591.087 232.8 591.003 234.145 590.771 234.139C590.54 234.134 587.548 233.234 584.123 232.14C576.76 229.788 568.024 229.458 564.289 231.39C559.338 233.95 557.425 240.586 559.919 246.554C561.451 250.224 567.38 256.462 573.997 261.369C589.982 273.221 617.935 279.817 617.935 271.736C617.935 269.728 616.772 269.045 609.14 266.572C600.352 263.725 593.154 259.937 587.089 254.967C579.53 248.772 577.315 242.937 582.53 242.954C585.151 242.962 600.011 248.9 606.311 252.457C611.456 255.36 613.625 255.587 614.353 253.294C614.755 252.027 613.933 250.648 610.809 247.343C606.629 242.924 605.587 239.623 607.701 237.508C609.678 235.531 618.355 237.291 619.162 239.834C619.781 241.784 626.818 248.024 630.218 249.638C634.777 251.802 637.659 251.314 639.353 248.094C640.763 245.41 638.91 243.013 631.585 238.047C614.66 226.575 600.16 221.385 594.348 224.719ZM208.223 291.528C207.09 292.662 208.023 296.011 211.747 304.174C217.492 316.765 217.018 319.737 209.707 316.945C207.189 315.983 204.88 314.117 201.942 310.667C194.404 301.816 189.676 297.327 187.89 297.327C185.738 297.327 179.771 302.622 179.771 304.532C179.771 305.312 183.901 311.478 188.951 318.233C202.546 336.423 209.7 352.002 207.089 357.733C205.184 361.916 199.874 359.357 192.984 350.932C186.856 343.441 182.597 339.712 180.171 339.712C177.972 339.712 172.14 344.5 171.365 346.942C170.704 349.024 171.837 350.861 178.33 358.231C190.433 371.967 202.699 380.296 209.672 379.51C213.924 379.03 217.39 376.716 219.888 372.686C221.441 370.18 221.738 368.612 221.74 362.904C221.744 354.502 220.315 350.128 214.579 340.991L210.31 334.189L215.392 334.664C223.23 335.395 227.579 332.748 228.779 326.517C229.845 320.976 222.576 303.179 216.353 296.096C213.532 292.887 209.263 290.488 208.223 291.528ZM218.957 384.089C218.165 385.042 218.247 386.309 219.367 390.448C220.864 395.979 220.698 400.716 218.854 405.129L217.75 407.768L214.552 403.279C210.693 397.864 202.431 391.411 196.962 389.541C191.866 387.799 184.919 387.779 181.688 389.495C177.548 391.695 176.377 394.358 175.949 402.55C175.448 412.133 177.337 423.587 181.496 436.197C185.361 447.91 190.459 457.214 196.81 464.147C205.019 473.106 212.056 475.775 219.171 472.627C226.112 469.556 230.156 461.054 231.877 445.914C232.694 438.728 232.648 437.92 231.333 436.467C230.543 435.594 229.618 434.879 229.277 434.879C227.923 434.879 226.145 437.511 226.132 439.534L226.119 441.676L224.631 439.277C221.803 434.712 221.905 433.109 225.456 426.358C235.12 407.984 235.126 407.972 235.126 403.847C235.126 396.627 228.98 386.399 223.186 383.977C220.003 382.648 220.155 382.643 218.957 384.089ZM201.111 406.845C204.52 408.393 211.275 414.096 212.572 416.52C213.05 417.413 212.742 419.285 211.645 422.169C210.573 424.982 210.143 427.536 210.407 429.513C210.889 433.137 215.887 441.797 220.55 447.09C223.813 450.793 223.873 450.962 222.62 452.876C219.545 457.569 211.981 455.675 204.007 448.214C197.811 442.417 193.665 436.525 189.112 427.046C186.123 420.822 185.768 419.462 185.768 414.217C185.768 409.017 185.982 408.176 187.655 406.82C190.147 404.799 196.632 404.812 201.111 406.845ZM236.519 466.631C233.411 468.773 232.595 470.228 232.572 473.665C232.544 477.947 233.619 481.568 237.889 491.566C242.1 501.426 242.518 503.941 240.005 504.301C237.648 504.637 231.325 501.311 226.898 497.406C223.599 494.496 223.286 493.913 223.594 491.268C223.873 488.883 223.513 487.894 221.643 485.902C215.698 479.571 205.357 478.711 205.357 484.548C205.357 491.995 245.035 526.054 253.697 526.043C256.623 526.04 260.869 523.599 262.166 521.174C263.773 518.172 262.558 513.246 256.951 500.02C251.08 486.17 249.519 481.61 250.358 480.77C251.402 479.726 257.395 484.552 261.939 490.094C267.951 497.428 273.36 506.393 276.997 515.05C278.614 518.899 280.302 522.048 280.75 522.048C282.237 522.048 287.558 515.772 288.079 513.405C289.293 507.877 283.133 497.565 271.338 485.38C255.44 468.956 242.922 462.216 236.519 466.631ZM287.33 522.544C284.956 524.919 286.346 526.358 295.347 530.845C305.929 536.12 310.086 538.946 315.013 544.216C320.784 550.39 322.955 555.849 320.079 556.952C318.417 557.591 306.864 551.931 297.679 545.98C293.291 543.136 289.602 541.266 288.909 541.531C286.906 542.3 287.578 545.45 290.538 549.175C293.65 553.091 294.518 555.487 293.728 557.978C292.669 561.313 282.836 559.235 281.365 555.363C279.544 550.573 270.303 542.841 266.399 542.841C264.454 542.841 261.327 545.656 261.327 547.408C261.327 550.656 279.271 565.373 289.534 570.543C293.251 572.415 296.783 573.551 299.709 573.817C303.654 574.174 304.466 573.985 306.505 572.231C308.269 570.713 308.821 569.546 308.821 567.336C308.821 565.739 308.941 564.433 309.088 564.433C309.235 564.433 311.051 565.293 313.126 566.343C321.753 570.712 330.98 572.001 336.131 569.557C339.02 568.185 342.09 563.036 342.076 559.582C342.051 553.378 332.721 541.558 321.391 533.375C312.99 527.307 298.146 521.248 291.683 521.248C289.931 521.248 288.073 521.802 287.33 522.544ZM321.116 584.504C314.317 585.482 311.002 587.536 308.538 592.295C306.123 596.959 308.302 605.872 312.828 609.847C317.949 614.343 341.328 626.585 351.441 630.066C357.738 632.232 359.303 632.039 364.883 628.402C371.729 623.942 373.55 621.905 372.264 620.147C371.453 619.038 369.683 618.735 362.871 618.544C358.254 618.414 353.456 617.878 352.208 617.354C349.997 616.425 350.307 616.215 364.201 609.252C382.67 599.996 386.06 597.832 386.06 595.301C386.06 592.637 382.739 588.895 378.593 586.887C373.277 584.314 371.544 584.676 366.15 589.491C360.246 594.76 351.843 600.607 342 606.298L334.491 610.639L330.044 608.394C324.524 605.607 323.517 604.421 323.839 601.09C324.256 596.782 326.218 596.26 339.802 596.854C355.275 597.53 357.598 596.378 352.491 590.561C349.831 587.53 344.306 585.596 336.087 584.816C333.448 584.566 330.03 584.245 328.491 584.104C326.952 583.962 323.633 584.142 321.116 584.504Z" fill="#00448E"/>
</svg>
