<svg width="150" height="150" viewBox="0 0 150 150" fill="none" xmlns="http://www.w3.org/2000/svg">
<path fill-rule="evenodd" clip-rule="evenodd" d="M27.4239 22.5948C27.9729 21.5466 28.2223 21.113 27.492 22.6509C27.4735 22.6274 27.4507 22.6087 27.4239 22.5948Z" fill="#00448E"/>
<path fill-rule="evenodd" clip-rule="evenodd" d="M27.4239 22.5948C27.9729 21.5466 28.2223 21.113 27.492 22.6509C27.4735 22.6274 27.4507 22.6087 27.4239 22.5948Z" fill="#00448E"/>
<path d="M46.8261 33.9965C47.4387 35.4436 47.7243 37.5788 48.0608 43.2177C48.342 47.931 48.5776 49.686 49.0991 50.9495C50.0706 53.3038 51.7259 54.903 54.263 55.9381C56.1242 56.6975 56.8295 56.8147 59.4829 56.8051C61.7395 56.7974 63.1367 56.6125 64.7664 56.1063C66.7875 55.4788 69.0144 54.2749 69.6014 53.4933C70.3817 52.4538 68.1316 52.435 64.6004 53.4512C59.4239 54.9407 56.8949 54.8208 54.5402 52.974L53.3471 52.0384L54.881 52.2532C57.7672 52.6578 60.3351 52.3673 60.3351 51.6363C60.3351 51.1022 59.1273 50.6435 56.5384 50.1941C55.3456 49.987 53.9685 49.6356 53.4783 49.4127C52.6316 49.0279 51.2214 46.941 51.5854 46.6112C51.6795 46.5259 53.1306 46.9543 54.8098 47.5635C57.1386 48.4085 58.3535 48.6712 59.9311 48.6712C63.5447 48.6712 63.0794 47.9922 58.4602 46.5243C55.0024 45.4252 53.1177 44.378 52.544 43.2366C51.6107 41.379 52.3033 41.0742 54.1386 42.5356C55.7949 43.8541 58.4272 44.9013 61.5237 45.4741C65.6834 46.2431 66.3185 45.3396 62.5235 44.0523C59.9192 43.1689 56.1164 41.3944 55.5866 40.8155C54.9281 40.096 55.5867 40.1606 61.3331 41.3793C66.5748 42.4908 72.2524 43.2097 72.7061 42.8193C73.167 42.4231 72.3087 42.0182 65.2624 39.3072C56.7576 36.0352 50.0607 33.8077 48.0928 33.5959C46.7426 33.451 46.6127 33.4921 46.8261 33.9965Z" fill="#00448E"/>
<path d="M46.8261 33.9965C47.4387 35.4436 47.7243 37.5788 48.0608 43.2177C48.342 47.931 48.5776 49.686 49.0991 50.9495C50.0706 53.3038 51.7259 54.903 54.263 55.9381C56.1242 56.6975 56.8295 56.8147 59.4829 56.8051C61.7395 56.7974 63.1367 56.6125 64.7664 56.1063C66.7875 55.4788 69.0144 54.2749 69.6014 53.4933C70.3817 52.4538 68.1316 52.435 64.6004 53.4512C59.4239 54.9407 56.8949 54.8208 54.5402 52.974L53.3471 52.0384L54.881 52.2532C57.7672 52.6578 60.3351 52.3673 60.3351 51.6363C60.3351 51.1022 59.1273 50.6435 56.5384 50.1941C55.3456 49.987 53.9685 49.6356 53.4783 49.4127C52.6316 49.0279 51.2214 46.941 51.5854 46.6112C51.6795 46.5259 53.1306 46.9543 54.8098 47.5635C57.1386 48.4085 58.3535 48.6712 59.9311 48.6712C63.5447 48.6712 63.0794 47.9922 58.4602 46.5243C55.0024 45.4252 53.1177 44.378 52.544 43.2366C51.6107 41.379 52.3033 41.0742 54.1386 42.5356C55.7949 43.8541 58.4272 44.9013 61.5237 45.4741C65.6834 46.2431 66.3185 45.3396 62.5235 44.0523C59.9192 43.1689 56.1164 41.3944 55.5866 40.8155C54.9281 40.096 55.5867 40.1606 61.3331 41.3793C66.5748 42.4908 72.2524 43.2097 72.7061 42.8193C73.167 42.4231 72.3087 42.0182 65.2624 39.3072C56.7576 36.0352 50.0607 33.8077 48.0928 33.5959C46.7426 33.451 46.6127 33.4921 46.8261 33.9965Z" fill="#00448E"/>
<path d="M81.1285 41.099C81.1285 41.6729 84.8529 44.3657 86.3408 44.8676C88.4263 45.5708 92.7183 45.2286 92.7183 44.3589C92.7183 43.7979 91.0088 43.0184 87.1497 41.8204C83.0657 40.5525 81.1285 40.3204 81.1285 41.099Z" fill="#00448E"/>
<path d="M81.1285 41.099C81.1285 41.6729 84.8529 44.3657 86.3408 44.8676C88.4263 45.5708 92.7183 45.2286 92.7183 44.3589C92.7183 43.7979 91.0088 43.0184 87.1497 41.8204C83.0657 40.5525 81.1285 40.3204 81.1285 41.099Z" fill="#00448E"/>
<path d="M118.004 118.897C110.257 119.446 102.206 122.364 95.163 127.176C91.2617 129.842 91.1663 130.094 94.4765 128.989C103.725 125.902 111.539 124.688 122.21 124.68C130.927 124.675 137.219 125.361 145.279 127.198C147.47 127.697 149.426 128.106 149.625 128.106C152.138 128.106 141.424 122.514 135.489 120.728C130.176 119.129 123.941 118.476 118.004 118.897Z" fill="#00448E"/>
<path d="M118.004 118.897C110.257 119.446 102.206 122.364 95.163 127.176C91.2617 129.842 91.1663 130.094 94.4765 128.989C103.725 125.902 111.539 124.688 122.21 124.68C130.927 124.675 137.219 125.361 145.279 127.198C147.47 127.697 149.426 128.106 149.625 128.106C152.138 128.106 141.424 122.514 135.489 120.728C130.176 119.129 123.941 118.476 118.004 118.897Z" fill="#00448E"/>
<path d="M70.9189 126.072L70.0626 126.478C68.6115 127.168 63.3433 128.639 59.6189 129.395C56.5179 130.025 55.2209 130.112 49.2566 130.088C40.3335 130.054 33.2313 129.022 24.5431 126.501C18.2164 124.665 8.47417 119.991 3.74963 116.525C0.874684 114.415 0 113.989 0 114.698C0 116.608 6.09589 123.23 11.8843 127.607C19.3474 133.25 30.3652 138.202 38.519 139.578C41.2252 140.035 50.9742 140.044 54.7324 139.594C59.2446 139.053 67.5787 136.296 73.3258 133.441L70.9189 126.072Z" fill="#00448E"/>
<path d="M70.9189 126.072L70.0626 126.478C68.6115 127.168 63.3433 128.639 59.6189 129.395C56.5179 130.025 55.2209 130.112 49.2566 130.088C40.3335 130.054 33.2313 129.022 24.5431 126.501C18.2164 124.665 8.47417 119.991 3.74963 116.525C0.874684 114.415 0 113.989 0 114.698C0 116.608 6.09589 123.23 11.8843 127.607C19.3474 133.25 30.3652 138.202 38.519 139.578C41.2252 140.035 50.9742 140.044 54.7324 139.594C59.2446 139.053 67.5787 136.296 73.3258 133.441L70.9189 126.072Z" fill="#00448E"/>
<path fill-rule="evenodd" clip-rule="evenodd" d="M25.2886 117.473L16.8832 115.559C13.3743 115.258 13.3743 115.258 13.3743 115.258C12.9533 115.64 16.2499 117.943 18.893 119.113C28.6966 123.456 40.9392 124.777 52.196 122.706C54.3036 122.318 65.3739 119.421 65.8422 119.113C65.8781 119.09 65.7158 118.952 65.4678 118.752C65.1579 118.502 64.7142 118.154 64.3568 117.809L62.8916 116.877L54.881 112.391C54.8814 112.99 45.2881 115.94 40.5642 116.793C34.1715 117.949 26.9848 118.268 25.2886 117.473Z" fill="#00448E"/>
<path fill-rule="evenodd" clip-rule="evenodd" d="M25.2886 117.473L16.8832 115.559C13.3743 115.258 13.3743 115.258 13.3743 115.258C12.9533 115.64 16.2499 117.943 18.893 119.113C28.6966 123.456 40.9392 124.777 52.196 122.706C54.3036 122.318 65.3739 119.421 65.8422 119.113C65.8781 119.09 65.7158 118.952 65.4678 118.752C65.1579 118.502 64.7142 118.154 64.3568 117.809L62.8916 116.877L54.881 112.391C54.8814 112.99 45.2881 115.94 40.5642 116.793C34.1715 117.949 26.9848 118.268 25.2886 117.473Z" fill="#00448E"/>
<path fill-rule="evenodd" clip-rule="evenodd" d="M122.417 102.452C122.218 102.452 122.139 102.65 122.241 102.891L109.865 98.3513C110.048 98.296 108.374 97.6457 106.145 96.9061C103.916 96.1664 101.975 95.4682 101.832 95.3548C101.401 95.0142 104.48 93.7886 106.712 93.4122C110.764 92.7291 117.873 94.0993 123.908 96.7268C127.008 98.0759 130.895 100.388 133.728 102.568C134.972 103.524 136.115 104.306 136.269 104.306L139.623 107.569C139.623 108.188 140.302 109.484 141.6 111.34C143.633 114.248 143.984 115.35 142.485 114.122C137.711 110.208 130.356 106.09 124.706 104.166C123.757 103.843 123.049 103.389 122.949 103.039C122.855 102.716 122.616 102.452 122.417 102.452Z" fill="#00448E"/>
<path fill-rule="evenodd" clip-rule="evenodd" d="M122.417 102.452C122.218 102.452 122.139 102.65 122.241 102.891L109.865 98.3513C110.048 98.296 108.374 97.6457 106.145 96.9061C103.916 96.1664 101.975 95.4682 101.832 95.3548C101.401 95.0142 104.48 93.7886 106.712 93.4122C110.764 92.7291 117.873 94.0993 123.908 96.7268C127.008 98.0759 130.895 100.388 133.728 102.568C134.972 103.524 136.115 104.306 136.269 104.306L139.623 107.569C139.623 108.188 140.302 109.484 141.6 111.34C143.633 114.248 143.984 115.35 142.485 114.122C137.711 110.208 130.356 106.09 124.706 104.166C123.757 103.843 123.049 103.389 122.949 103.039C122.855 102.716 122.616 102.452 122.417 102.452Z" fill="#00448E"/>
<path d="M89.6632 123.634L91.8661 122.822C98.6076 118.931 106.261 115.733 112.903 114.034C115.315 113.417 117.164 113.183 120.67 113.054C126.749 112.83 129.518 113.233 132.825 114.822C134.234 115.498 135.718 116.046 136.124 116.039C136.754 116.029 136.631 115.835 135.283 114.709C131.789 111.791 126.437 110.199 119.307 109.954C115.241 109.815 114.427 109.875 112.319 110.467C109.429 111.278 104.814 112.21 102.263 112.497C100.188 112.731 95.6546 114.261 91.6312 116.087C91.4807 116.155 91.3386 116.22 91.2043 116.281C89.8435 116.902 89.2865 117.157 88.9816 116.877L89.6632 123.634Z" fill="#00448E"/>
<path d="M89.6632 123.634L91.8661 122.822C98.6076 118.931 106.261 115.733 112.903 114.034C115.315 113.417 117.164 113.183 120.67 113.054C126.749 112.83 129.518 113.233 132.825 114.822C134.234 115.498 135.718 116.046 136.124 116.039C136.754 116.029 136.631 115.835 135.283 114.709C131.789 111.791 126.437 110.199 119.307 109.954C115.241 109.815 114.427 109.875 112.319 110.467C109.429 111.278 104.814 112.21 102.263 112.497C100.188 112.731 95.6546 114.261 91.6312 116.087C91.4807 116.155 91.3386 116.22 91.2043 116.281C89.8435 116.902 89.2865 117.157 88.9816 116.877L89.6632 123.634Z" fill="#00448E"/>
<path fill-rule="evenodd" clip-rule="evenodd" d="M26.6105 0.407033C26.2287 1.02613 26.6265 2.16047 27.8751 4.01127C29.632 6.61593 30.1126 8.70688 29.8965 12.8019C29.7046 16.4321 28.2334 22.4268 27.492 22.6509C27.3434 22.9638 27.0709 23.5506 26.7243 24.2967L26.7224 24.3009C25.5824 26.7556 23.6439 30.9298 22.6788 32.7534C18.5481 40.5587 16.5577 46.1936 15.0156 54.4505C12.6986 66.8538 13.226 74.2443 17.0619 83.1342C22.598 95.9649 35.0611 105.996 52.0688 111.309C53.6154 111.793 54.8807 112.28 54.881 112.391L62.8916 116.877L64.0278 117.585C64.4332 117.838 64.9309 118.247 65.4678 118.752C65.7158 118.952 65.8781 119.09 65.8422 119.113C67.3581 120.612 69.078 122.732 69.9038 124.23L70.9189 126.072L73.3258 133.441C73.6197 133.295 74.2278 135.56 74.6737 138.46C75.3176 142.651 76.3726 147.034 77.1126 148.594C77.6696 149.768 77.9675 150.063 78.5252 149.99C79.1136 149.912 79.5506 149.042 81.1319 144.797C83.1216 139.456 84.2632 137.162 85.7027 135.61C86.1772 135.099 87.1998 133.167 87.976 131.316C89.1936 128.412 89.4142 127.507 89.588 124.706L89.6632 123.634L88.9816 116.877C88.7702 116.683 88.6799 116.232 88.527 115.469L88.5259 115.464C88.5044 115.357 88.4817 115.244 88.4573 115.124C88.3356 114.529 88.1604 113.799 88.068 113.502C87.9153 113.01 88.2474 112.961 91.758 112.959C95.7715 112.958 102.949 112.14 106.723 111.255C112.139 109.984 116.13 108.355 119.568 106.011C121.813 104.481 122.55 103.621 122.241 102.891L109.865 98.3513C109.682 98.4067 107.475 97.7381 104.96 96.8659C99.0565 94.8179 96.0343 94.1246 92.0106 93.8962C88.2491 93.6826 84.4633 94.099 79.7912 95.2404C73.5344 96.7694 68.12 97.2572 65.2968 96.5466C63.3815 96.0644 59.4014 93.538 57.3486 91.5014C55.0644 89.2352 53.6256 86.5258 53.1214 83.5406C52.7795 81.5155 52.8071 80.7654 53.3093 78.4488C53.8645 75.8855 54.0715 75.2853 54.2944 75.5873C57.7362 80.247 63.5192 85.414 67.1618 87.084C70.2774 88.5126 72.9631 88.9057 73.9687 88.0808C74.9692 87.2598 75.1475 85.7119 74.508 83.4028C73.1247 78.4095 73.1687 74.1797 74.6307 71.5809C75.2238 70.5269 79.1027 67.1227 81.0978 65.9049C82.2367 65.2097 86.5419 65.1798 89.6504 65.8455C93.6305 66.6977 103.79 66.3088 114.095 64.9099C117.727 64.4169 120.165 64.73 123.397 66.1042C125.552 67.0204 127.604 67.1298 129.459 66.4272C130.932 65.869 132.457 64.6345 133.142 63.4455C134.439 61.1957 133.178 55.8918 129.86 49.6433C128.745 47.5431 127.939 45.6654 128.069 45.4707C128.2 45.2759 129.084 44.2822 130.034 43.2622C130.984 42.2423 132.433 40.5367 133.256 39.4722L134.75 37.5371L136.995 34.321L138.68 31.0645C141.604 25.4132 142.316 23.0824 142.316 19.1536V15.7537L140.853 14.0092C138.624 11.3505 137.622 11.0627 129.345 10.7045L122.545 10.4106L115.727 8.53812C104.641 5.49302 100.664 4.9277 88.2869 4.63655C68.3456 4.16766 66.4875 4.03507 61.7889 2.74371C53.3502 0.424342 50.5884 0.118347 37.223 0.0222213C28.3858 -0.0411411 26.8528 0.014495 26.6105 0.407033ZM49.2689 3.85147C47.7758 3.50808 44.815 3.02065 42.6896 2.76782C38.6557 2.28843 30.488 2.13914 30.2279 2.54033C30.1454 2.66768 31.0047 3.88331 32.1374 5.24143C34.4871 8.05842 35.4913 9.94137 36.4652 13.3564C37.2802 16.2152 38.1621 18.1173 38.5667 17.8907C39.453 17.394 37.9412 12.1062 35.7398 8.00217C34.7533 6.16312 34.435 5.26986 34.6845 5.04361C35.1978 4.57813 38.1038 5.58297 43.7664 8.18361C48.2094 10.2239 49.1161 10.5209 48.6024 9.76674C48.1211 9.0611 43.5762 6.60047 40.57 5.41822C36.9366 3.98902 36.4973 3.70899 37.0716 3.18818C37.783 2.54312 48.7555 4.5055 52.4973 5.94676C54.3926 6.67682 56.2445 7.02299 56.2445 6.64746C56.2445 6.1625 52.107 4.50426 49.2689 3.85147ZM88.4911 11.6633C88.3891 11.5706 87.1893 11.319 85.8247 11.1041C79.8792 10.1676 73.7253 10.3382 68.4152 11.5863C61.6669 13.1722 57.3268 15.6264 50.149 21.9153C41.4611 29.5268 36.0988 37.1294 32.4419 47.0195C28.9867 56.364 28.1785 60.4412 28.1635 68.6072C28.1492 76.4533 28.7672 79.2431 31.4438 83.4114C33.0694 85.9431 37.1783 89.9384 40.1034 91.8321C44.4581 94.651 51.9751 97.2767 56.8493 97.6813L59.142 97.8716L57.9748 97.1972C57.333 96.8266 55.9797 95.7414 54.9673 94.786C50.3447 90.4236 47.967 81.8954 49.741 76.0391C52.1585 68.0592 58.5362 62.5281 68.256 59.9825C69.8942 59.5535 72.0418 59.1195 73.0283 59.0182C74.0151 58.9168 75.1758 58.7681 75.608 58.6877L76.3934 58.5415L75.3523 56.8917C73.5893 54.0975 74.0226 54.0512 77.6918 56.6401C80.999 58.9736 84.0266 60.779 85.3894 61.2303C85.7644 61.3545 84.7438 60.1862 83.1216 58.634C78.1792 53.9044 74.7838 48.7167 74.3948 45.3007C74.145 43.1068 74.5298 43.3568 76.5345 46.6915C78.4151 49.8201 82.356 54.185 85.4436 56.5603C94.9183 63.8485 103.303 65.109 109.429 60.1664L110.843 59.0256L109.286 56.3983C108.429 54.9534 107.726 53.667 107.723 53.5393C107.709 53.0024 108.682 53.3746 109.613 54.2629C111.077 55.6603 116.069 59.1835 118.625 60.6235C121.902 62.47 123.393 63.0888 125.101 63.3101L126.635 63.5089L124.449 62.5389C122.224 61.552 117.602 57.7012 114.788 54.491C112.548 51.9349 108.058 49.2131 99.2757 45.0871C91.4891 41.4288 90.8908 41.0857 89.0494 39.221C86.6043 36.7449 84.7994 34.0651 83.7863 31.4079C83.1448 29.7243 83.004 28.7115 83.0077 25.799C83.0139 21.0125 84.0931 17.9748 87.329 13.6383C88.0704 12.6446 88.5933 11.756 88.4911 11.6633ZM119.647 15.8696C118.503 14.3149 116.087 12.5015 114.414 11.943C112.54 11.3174 110.413 11.0164 109.169 11.2009C108.423 11.3115 108.418 11.3372 108.968 12.2975C109.278 12.8384 109.602 14.263 109.687 15.4632C109.906 18.5144 108.939 21.7095 106.173 27.0786C102.859 33.5094 100.807 39.3987 101.879 39.3987C102.565 39.3987 107.862 33.404 112.666 27.1898C115.319 23.7571 116.912 22.149 119.6 20.1866C125.344 15.9942 130.829 14.7449 136.226 16.4C139.362 17.3619 140.729 18.8065 141.315 21.7809C141.582 23.1337 141.596 23.1464 141.827 22.2445C141.958 21.7345 142.083 20.5294 142.105 19.5663C142.144 17.8527 142.111 17.7881 140.555 16.5462C136.956 13.6739 130.949 13.2671 123.908 15.4187L120.159 16.5647L119.647 15.8696ZM98.0018 14.2386L94.7635 13.3802C92.9825 12.908 91.4206 12.5188 91.2927 12.5151C90.584 12.4944 88.0162 16.9533 86.936 20.0809C85.9212 23.0184 85.6632 27.4832 86.3548 30.1407C87.1831 33.323 89.6504 37.9271 89.6504 36.2902C89.6504 36.1103 89.4776 35.0137 89.2662 33.8534C88.7573 31.0602 89.2127 28.7863 91.0357 25.0173C92.4538 22.0856 93.3468 21.1679 92.9071 23.0945C92.5383 24.7107 92.2833 30.9526 92.526 32.4208C92.6838 33.3749 93.098 34.0951 93.943 34.8839C96.4819 37.2543 99.6599 35.8519 101.439 31.5767C102.592 28.8039 103.768 26.6477 105.05 24.9518L106.041 23.6409L103.555 23.814C99.1468 24.1206 98.145 22.9096 98.0499 17.1597L98.0018 14.2386ZM117.626 48.041C116.724 47.3521 115.219 46.5234 114.28 46.1998C113.341 45.8765 111.749 45.526 110.741 45.4212L108.91 45.2308L109.932 45.912C110.495 46.2869 113.256 48.7046 116.068 51.2852C118.88 53.8657 122.102 56.5393 123.227 57.2267C125.112 58.3783 128.583 60.1074 129.01 60.1074C129.39 60.1074 129.169 57.6777 128.643 56.0683C127.842 53.6225 126.715 51.7608 125.145 50.2939C123.821 49.057 121.328 47.4349 120.75 47.4349C120.6 47.4349 120.204 47.8534 119.87 48.3646L119.265 49.2943L117.626 48.041ZM113.75 102.504C110.18 101.43 103.302 100.225 96.6383 99.5052C91.529 98.9528 79.3201 98.6267 78.0586 99.0088C75.6373 99.7416 74.2223 100.806 73.0726 102.761C72.5163 103.707 72.4389 104.544 72.4576 109.406C72.4716 112.999 72.6847 116.187 73.0596 118.407C73.9418 123.633 74.9273 126.181 75.4059 124.474C75.4894 124.177 75.3667 122.334 75.1335 120.379C74.3652 113.937 73.8716 106.888 74.1088 105.742C74.6041 103.347 75.4236 104.661 76.9872 110.358C78.8572 117.172 78.9203 117.83 78.8163 129.42C78.7615 135.53 78.8504 140.16 79.0222 140.16C79.1886 140.16 79.6924 139.083 80.1413 137.765C80.8786 135.603 80.9581 134.813 80.957 129.651C80.956 122.811 80.1536 117.504 77.8629 109.196C77.4092 107.55 77.038 105.985 77.038 105.719C77.038 104.78 77.9134 105.251 79.0219 106.786C80.8166 109.272 82.4334 113.063 83.834 118.07C84.0256 118.756 84.4237 119.59 84.7189 119.925C85.2139 120.487 85.2378 120.344 85.0298 118.062C84.6289 113.67 82.9045 109.777 79.2823 105.088C75.5473 100.252 76.7186 100.299 86.575 105.385C91.2392 107.792 92.6054 108.354 94.5266 108.652C95.8022 108.85 96.9352 108.931 97.044 108.832C97.1531 108.733 94.8821 107.619 91.9977 106.356C89.1132 105.093 86.3309 103.757 85.8155 103.388C84.7793 102.645 84.5754 101.834 85.4256 101.834C86.4724 101.834 89.8996 102.759 92.8543 103.839C98.3939 105.864 109.098 107.443 110.773 106.483C111.545 106.04 109.751 105.52 106.353 105.201C101.492 104.745 96.5177 103.765 91.8494 102.345C89.4029 101.6 86.9486 100.769 86.3954 100.498L85.3894 100.004L86.7008 99.9917C87.4221 99.9849 93.4811 100.807 100.165 101.819C111.365 103.515 116.292 104.052 116.758 103.63C116.859 103.538 115.505 103.032 113.75 102.504Z" fill="#00448E"/>
<path fill-rule="evenodd" clip-rule="evenodd" d="M26.6105 0.407033C26.2287 1.02613 26.6265 2.16047 27.8751 4.01127C29.632 6.61593 30.1126 8.70688 29.8965 12.8019C29.7046 16.4321 28.2334 22.4268 27.492 22.6509C27.3434 22.9638 27.0709 23.5506 26.7243 24.2967L26.7224 24.3009C25.5824 26.7556 23.6439 30.9298 22.6788 32.7534C18.5481 40.5587 16.5577 46.1936 15.0156 54.4505C12.6986 66.8538 13.226 74.2443 17.0619 83.1342C22.598 95.9649 35.0611 105.996 52.0688 111.309C53.6154 111.793 54.8807 112.28 54.881 112.391L62.8916 116.877L64.0278 117.585C64.4332 117.838 64.9309 118.247 65.4678 118.752C65.7158 118.952 65.8781 119.09 65.8422 119.113C67.3581 120.612 69.078 122.732 69.9038 124.23L70.9189 126.072L73.3258 133.441C73.6197 133.295 74.2278 135.56 74.6737 138.46C75.3176 142.651 76.3726 147.034 77.1126 148.594C77.6696 149.768 77.9675 150.063 78.5252 149.99C79.1136 149.912 79.5506 149.042 81.1319 144.797C83.1216 139.456 84.2632 137.162 85.7027 135.61C86.1772 135.099 87.1998 133.167 87.976 131.316C89.1936 128.412 89.4142 127.507 89.588 124.706L89.6632 123.634L88.9816 116.877C88.7702 116.683 88.6799 116.232 88.527 115.469L88.5259 115.464C88.5044 115.357 88.4817 115.244 88.4573 115.124C88.3356 114.529 88.1604 113.799 88.068 113.502C87.9153 113.01 88.2474 112.961 91.758 112.959C95.7715 112.958 102.949 112.14 106.723 111.255C112.139 109.984 116.13 108.355 119.568 106.011C121.813 104.481 122.55 103.621 122.241 102.891L109.865 98.3513C109.682 98.4067 107.475 97.7381 104.96 96.8659C99.0565 94.8179 96.0343 94.1246 92.0106 93.8962C88.2491 93.6826 84.4633 94.099 79.7912 95.2404C73.5344 96.7694 68.12 97.2572 65.2968 96.5466C63.3815 96.0644 59.4014 93.538 57.3486 91.5014C55.0644 89.2352 53.6256 86.5258 53.1214 83.5406C52.7795 81.5155 52.8071 80.7654 53.3093 78.4488C53.8645 75.8855 54.0715 75.2853 54.2944 75.5873C57.7362 80.247 63.5192 85.414 67.1618 87.084C70.2774 88.5126 72.9631 88.9057 73.9687 88.0808C74.9692 87.2598 75.1475 85.7119 74.508 83.4028C73.1247 78.4095 73.1687 74.1797 74.6307 71.5809C75.2238 70.5269 79.1027 67.1227 81.0978 65.9049C82.2367 65.2097 86.5419 65.1798 89.6504 65.8455C93.6305 66.6977 103.79 66.3088 114.095 64.9099C117.727 64.4169 120.165 64.73 123.397 66.1042C125.552 67.0204 127.604 67.1298 129.459 66.4272C130.932 65.869 132.457 64.6345 133.142 63.4455C134.439 61.1957 133.178 55.8918 129.86 49.6433C128.745 47.5431 127.939 45.6654 128.069 45.4707C128.2 45.2759 129.084 44.2822 130.034 43.2622C130.984 42.2423 132.433 40.5367 133.256 39.4722L134.75 37.5371L136.995 34.321L138.68 31.0645C141.604 25.4132 142.316 23.0824 142.316 19.1536V15.7537L140.853 14.0092C138.624 11.3505 137.622 11.0627 129.345 10.7045L122.545 10.4106L115.727 8.53812C104.641 5.49302 100.664 4.9277 88.2869 4.63655C68.3456 4.16766 66.4875 4.03507 61.7889 2.74371C53.3502 0.424342 50.5884 0.118347 37.223 0.0222213C28.3858 -0.0411411 26.8528 0.014495 26.6105 0.407033ZM49.2689 3.85147C47.7758 3.50808 44.815 3.02065 42.6896 2.76782C38.6557 2.28843 30.488 2.13914 30.2279 2.54033C30.1454 2.66768 31.0047 3.88331 32.1374 5.24143C34.4871 8.05842 35.4913 9.94137 36.4652 13.3564C37.2802 16.2152 38.1621 18.1173 38.5667 17.8907C39.453 17.394 37.9412 12.1062 35.7398 8.00217C34.7533 6.16312 34.435 5.26986 34.6845 5.04361C35.1978 4.57813 38.1038 5.58297 43.7664 8.18361C48.2094 10.2239 49.1161 10.5209 48.6024 9.76674C48.1211 9.0611 43.5762 6.60047 40.57 5.41822C36.9366 3.98902 36.4973 3.70899 37.0716 3.18818C37.783 2.54312 48.7555 4.5055 52.4973 5.94676C54.3926 6.67682 56.2445 7.02299 56.2445 6.64746C56.2445 6.1625 52.107 4.50426 49.2689 3.85147ZM88.4911 11.6633C88.3891 11.5706 87.1893 11.319 85.8247 11.1041C79.8792 10.1676 73.7253 10.3382 68.4152 11.5863C61.6669 13.1722 57.3268 15.6264 50.149 21.9153C41.4611 29.5268 36.0988 37.1294 32.4419 47.0195C28.9867 56.364 28.1785 60.4412 28.1635 68.6072C28.1492 76.4533 28.7672 79.2431 31.4438 83.4114C33.0694 85.9431 37.1783 89.9384 40.1034 91.8321C44.4581 94.651 51.9751 97.2767 56.8493 97.6813L59.142 97.8716L57.9748 97.1972C57.333 96.8266 55.9797 95.7414 54.9673 94.786C50.3447 90.4236 47.967 81.8954 49.741 76.0391C52.1585 68.0592 58.5362 62.5281 68.256 59.9825C69.8942 59.5535 72.0418 59.1195 73.0283 59.0182C74.0151 58.9168 75.1758 58.7681 75.608 58.6877L76.3934 58.5415L75.3523 56.8917C73.5893 54.0975 74.0226 54.0512 77.6918 56.6401C80.999 58.9736 84.0266 60.779 85.3894 61.2303C85.7644 61.3545 84.7438 60.1862 83.1216 58.634C78.1792 53.9044 74.7838 48.7167 74.3948 45.3007C74.145 43.1068 74.5298 43.3568 76.5345 46.6915C78.4151 49.8201 82.356 54.185 85.4436 56.5603C94.9183 63.8485 103.303 65.109 109.429 60.1664L110.843 59.0256L109.286 56.3983C108.429 54.9534 107.726 53.667 107.723 53.5393C107.709 53.0024 108.682 53.3746 109.613 54.2629C111.077 55.6603 116.069 59.1835 118.625 60.6235C121.902 62.47 123.393 63.0888 125.101 63.3101L126.635 63.5089L124.449 62.5389C122.224 61.552 117.602 57.7012 114.788 54.491C112.548 51.9349 108.058 49.2131 99.2757 45.0871C91.4891 41.4288 90.8908 41.0857 89.0494 39.221C86.6043 36.7449 84.7994 34.0651 83.7863 31.4079C83.1448 29.7243 83.004 28.7115 83.0077 25.799C83.0139 21.0125 84.0931 17.9748 87.329 13.6383C88.0704 12.6446 88.5933 11.756 88.4911 11.6633ZM119.647 15.8696C118.503 14.3149 116.087 12.5015 114.414 11.943C112.54 11.3174 110.413 11.0164 109.169 11.2009C108.423 11.3115 108.418 11.3372 108.968 12.2975C109.278 12.8384 109.602 14.263 109.687 15.4632C109.906 18.5144 108.939 21.7095 106.173 27.0786C102.859 33.5094 100.807 39.3987 101.879 39.3987C102.565 39.3987 107.862 33.404 112.666 27.1898C115.319 23.7571 116.912 22.149 119.6 20.1866C125.344 15.9942 130.829 14.7449 136.226 16.4C139.362 17.3619 140.729 18.8065 141.315 21.7809C141.582 23.1337 141.596 23.1464 141.827 22.2445C141.958 21.7345 142.083 20.5294 142.105 19.5663C142.144 17.8527 142.111 17.7881 140.555 16.5462C136.956 13.6739 130.949 13.2671 123.908 15.4187L120.159 16.5647L119.647 15.8696ZM98.0018 14.2386L94.7635 13.3802C92.9825 12.908 91.4206 12.5188 91.2927 12.5151C90.584 12.4944 88.0162 16.9533 86.936 20.0809C85.9212 23.0184 85.6632 27.4832 86.3548 30.1407C87.1831 33.323 89.6504 37.9271 89.6504 36.2902C89.6504 36.1103 89.4776 35.0137 89.2662 33.8534C88.7573 31.0602 89.2127 28.7863 91.0357 25.0173C92.4538 22.0856 93.3468 21.1679 92.9071 23.0945C92.5383 24.7107 92.2833 30.9526 92.526 32.4208C92.6838 33.3749 93.098 34.0951 93.943 34.8839C96.4819 37.2543 99.6599 35.8519 101.439 31.5767C102.592 28.8039 103.768 26.6477 105.05 24.9518L106.041 23.6409L103.555 23.814C99.1468 24.1206 98.145 22.9096 98.0499 17.1597L98.0018 14.2386ZM117.626 48.041C116.724 47.3521 115.219 46.5234 114.28 46.1998C113.341 45.8765 111.749 45.526 110.741 45.4212L108.91 45.2308L109.932 45.912C110.495 46.2869 113.256 48.7046 116.068 51.2852C118.88 53.8657 122.102 56.5393 123.227 57.2267C125.112 58.3783 128.583 60.1074 129.01 60.1074C129.39 60.1074 129.169 57.6777 128.643 56.0683C127.842 53.6225 126.715 51.7608 125.145 50.2939C123.821 49.057 121.328 47.4349 120.75 47.4349C120.6 47.4349 120.204 47.8534 119.87 48.3646L119.265 49.2943L117.626 48.041ZM113.75 102.504C110.18 101.43 103.302 100.225 96.6383 99.5052C91.529 98.9528 79.3201 98.6267 78.0586 99.0088C75.6373 99.7416 74.2223 100.806 73.0726 102.761C72.5163 103.707 72.4389 104.544 72.4576 109.406C72.4716 112.999 72.6847 116.187 73.0596 118.407C73.9418 123.633 74.9273 126.181 75.4059 124.474C75.4894 124.177 75.3667 122.334 75.1335 120.379C74.3652 113.937 73.8716 106.888 74.1088 105.742C74.6041 103.347 75.4236 104.661 76.9872 110.358C78.8572 117.172 78.9203 117.83 78.8163 129.42C78.7615 135.53 78.8504 140.16 79.0222 140.16C79.1886 140.16 79.6924 139.083 80.1413 137.765C80.8786 135.603 80.9581 134.813 80.957 129.651C80.956 122.811 80.1536 117.504 77.8629 109.196C77.4092 107.55 77.038 105.985 77.038 105.719C77.038 104.78 77.9134 105.251 79.0219 106.786C80.8166 109.272 82.4334 113.063 83.834 118.07C84.0256 118.756 84.4237 119.59 84.7189 119.925C85.2139 120.487 85.2378 120.344 85.0298 118.062C84.6289 113.67 82.9045 109.777 79.2823 105.088C75.5473 100.252 76.7186 100.299 86.575 105.385C91.2392 107.792 92.6054 108.354 94.5266 108.652C95.8022 108.85 96.9352 108.931 97.044 108.832C97.1531 108.733 94.8821 107.619 91.9977 106.356C89.1132 105.093 86.3309 103.757 85.8155 103.388C84.7793 102.645 84.5754 101.834 85.4256 101.834C86.4724 101.834 89.8996 102.759 92.8543 103.839C98.3939 105.864 109.098 107.443 110.773 106.483C111.545 106.04 109.751 105.52 106.353 105.201C101.492 104.745 96.5177 103.765 91.8494 102.345C89.4029 101.6 86.9486 100.769 86.3954 100.498L85.3894 100.004L86.7008 99.9917C87.4221 99.9849 93.4811 100.807 100.165 101.819C111.365 103.515 116.292 104.052 116.758 103.63C116.859 103.538 115.505 103.032 113.75 102.504Z" fill="#00448E"/>
<path fill-rule="evenodd" clip-rule="evenodd" d="M49.2689 3.85147C47.7758 3.50808 44.815 3.02065 42.6896 2.76782C38.6557 2.28843 30.488 2.13914 30.2279 2.54033C30.1454 2.66768 31.0047 3.88331 32.1374 5.24143C34.4871 8.05842 35.4913 9.94137 36.4652 13.3564C37.2802 16.2152 38.1621 18.1173 38.5667 17.8907C39.453 17.394 37.9412 12.1062 35.7398 8.00217C34.7533 6.16312 34.435 5.26986 34.6845 5.04361C35.1978 4.57813 38.1038 5.58297 43.7664 8.18361C48.2094 10.2239 49.1161 10.5209 48.6024 9.76674C48.1211 9.0611 43.5762 6.60047 40.57 5.41822C36.9366 3.98902 36.4973 3.70899 37.0716 3.18818C37.783 2.54312 48.7555 4.5055 52.4973 5.94676C54.3926 6.67682 56.2445 7.02299 56.2445 6.64746C56.2445 6.1625 52.107 4.50426 49.2689 3.85147ZM113.75 102.504C110.18 101.43 103.302 100.225 96.6383 99.5052C91.529 98.9528 79.3201 98.6267 78.0586 99.0088C75.6373 99.7416 74.2223 100.806 73.0726 102.761C72.5163 103.707 72.4389 104.544 72.4576 109.406C72.4716 112.999 72.6847 116.187 73.0596 118.407C73.9418 123.633 74.9273 126.181 75.4059 124.474C75.4894 124.177 75.3667 122.334 75.1335 120.379C74.3652 113.937 73.8716 106.888 74.1088 105.742C74.6041 103.347 75.4236 104.661 76.9872 110.358C78.8572 117.172 78.9203 117.83 78.8163 129.42C78.7615 135.53 78.8504 140.16 79.0222 140.16C79.1886 140.16 79.6924 139.083 80.1413 137.765C80.8786 135.603 80.9581 134.813 80.957 129.651C80.956 122.811 80.1536 117.504 77.8629 109.196C77.4092 107.55 77.038 105.985 77.038 105.719C77.038 104.78 77.9134 105.251 79.0219 106.786C80.8166 109.272 82.4334 113.063 83.834 118.07C84.0256 118.756 84.4237 119.59 84.7189 119.925C85.2139 120.487 85.2378 120.344 85.0298 118.062C84.6289 113.67 82.9045 109.777 79.2823 105.088C75.5473 100.252 76.7186 100.299 86.575 105.385C91.2392 107.792 92.6054 108.354 94.5266 108.652C95.8022 108.85 96.9352 108.931 97.044 108.832C97.1531 108.733 94.8821 107.619 91.9977 106.356C89.1132 105.093 86.3309 103.757 85.8155 103.388C84.7793 102.645 84.5754 101.834 85.4256 101.834C86.4724 101.834 89.8996 102.759 92.8543 103.839C98.3939 105.864 109.098 107.443 110.773 106.483C111.545 106.04 109.751 105.52 106.353 105.201C101.492 104.745 96.5177 103.765 91.8494 102.345C89.4029 101.6 86.9486 100.769 86.3954 100.498L85.3894 100.004L86.7008 99.9917C87.4221 99.9849 93.4811 100.807 100.165 101.819C111.365 103.515 116.292 104.052 116.758 103.63C116.859 103.538 115.505 103.032 113.75 102.504ZM48.0608 43.2177C47.7243 37.5788 47.4387 35.4436 46.8261 33.9965C46.6127 33.4921 46.7426 33.451 48.0928 33.5959C50.0607 33.8077 56.7576 36.0352 65.2624 39.3072C72.3087 42.0182 73.167 42.4231 72.7061 42.8193C72.2524 43.2097 66.5748 42.4908 61.3331 41.3793C55.5867 40.1606 54.9281 40.096 55.5866 40.8155C56.1164 41.3944 59.9192 43.1689 62.5235 44.0523C66.3185 45.3396 65.6834 46.2431 61.5237 45.4741C58.4272 44.9013 55.7949 43.8541 54.1386 42.5356C52.3033 41.0742 51.6107 41.379 52.544 43.2366C53.1177 44.378 55.0024 45.4252 58.4602 46.5243C63.0794 47.9922 63.5447 48.6712 59.9311 48.6712C58.3535 48.6712 57.1386 48.4085 54.8098 47.5635C53.1306 46.9543 51.6795 46.5259 51.5854 46.6112C51.2214 46.941 52.6316 49.0279 53.4783 49.4127C53.9685 49.6356 55.3456 49.987 56.5384 50.1941C59.1273 50.6435 60.3351 51.1022 60.3351 51.6363C60.3351 52.3673 57.7672 52.6578 54.881 52.2532L53.3471 52.0384L54.5402 52.974C56.8949 54.8208 59.4239 54.9407 64.6004 53.4512C68.1316 52.435 70.3817 52.4538 69.6014 53.4933C69.0144 54.2749 66.7875 55.4788 64.7664 56.1063C63.1367 56.6125 61.7395 56.7974 59.4829 56.8051C56.8295 56.8147 56.1242 56.6975 54.263 55.9381C51.7259 54.903 50.0706 53.3038 49.0991 50.9495C48.5776 49.686 48.342 47.931 48.0608 43.2177ZM86.3408 44.8676C84.8529 44.3657 81.1285 41.6729 81.1285 41.099C81.1285 40.3204 83.0657 40.5525 87.1497 41.8204C91.0088 43.0184 92.7183 43.7979 92.7183 44.3589C92.7183 45.2286 88.4263 45.5708 86.3408 44.8676Z" fill="#00448E"/>
<path fill-rule="evenodd" clip-rule="evenodd" d="M49.2689 3.85147C47.7758 3.50808 44.815 3.02065 42.6896 2.76782C38.6557 2.28843 30.488 2.13914 30.2279 2.54033C30.1454 2.66768 31.0047 3.88331 32.1374 5.24143C34.4871 8.05842 35.4913 9.94137 36.4652 13.3564C37.2802 16.2152 38.1621 18.1173 38.5667 17.8907C39.453 17.394 37.9412 12.1062 35.7398 8.00217C34.7533 6.16312 34.435 5.26986 34.6845 5.04361C35.1978 4.57813 38.1038 5.58297 43.7664 8.18361C48.2094 10.2239 49.1161 10.5209 48.6024 9.76674C48.1211 9.0611 43.5762 6.60047 40.57 5.41822C36.9366 3.98902 36.4973 3.70899 37.0716 3.18818C37.783 2.54312 48.7555 4.5055 52.4973 5.94676C54.3926 6.67682 56.2445 7.02299 56.2445 6.64746C56.2445 6.1625 52.107 4.50426 49.2689 3.85147ZM113.75 102.504C110.18 101.43 103.302 100.225 96.6383 99.5052C91.529 98.9528 79.3201 98.6267 78.0586 99.0088C75.6373 99.7416 74.2223 100.806 73.0726 102.761C72.5163 103.707 72.4389 104.544 72.4576 109.406C72.4716 112.999 72.6847 116.187 73.0596 118.407C73.9418 123.633 74.9273 126.181 75.4059 124.474C75.4894 124.177 75.3667 122.334 75.1335 120.379C74.3652 113.937 73.8716 106.888 74.1088 105.742C74.6041 103.347 75.4236 104.661 76.9872 110.358C78.8572 117.172 78.9203 117.83 78.8163 129.42C78.7615 135.53 78.8504 140.16 79.0222 140.16C79.1886 140.16 79.6924 139.083 80.1413 137.765C80.8786 135.603 80.9581 134.813 80.957 129.651C80.956 122.811 80.1536 117.504 77.8629 109.196C77.4092 107.55 77.038 105.985 77.038 105.719C77.038 104.78 77.9134 105.251 79.0219 106.786C80.8166 109.272 82.4334 113.063 83.834 118.07C84.0256 118.756 84.4237 119.59 84.7189 119.925C85.2139 120.487 85.2378 120.344 85.0298 118.062C84.6289 113.67 82.9045 109.777 79.2823 105.088C75.5473 100.252 76.7186 100.299 86.575 105.385C91.2392 107.792 92.6054 108.354 94.5266 108.652C95.8022 108.85 96.9352 108.931 97.044 108.832C97.1531 108.733 94.8821 107.619 91.9977 106.356C89.1132 105.093 86.3309 103.757 85.8155 103.388C84.7793 102.645 84.5754 101.834 85.4256 101.834C86.4724 101.834 89.8996 102.759 92.8543 103.839C98.3939 105.864 109.098 107.443 110.773 106.483C111.545 106.04 109.751 105.52 106.353 105.201C101.492 104.745 96.5177 103.765 91.8494 102.345C89.4029 101.6 86.9486 100.769 86.3954 100.498L85.3894 100.004L86.7008 99.9917C87.4221 99.9849 93.4811 100.807 100.165 101.819C111.365 103.515 116.292 104.052 116.758 103.63C116.859 103.538 115.505 103.032 113.75 102.504ZM48.0608 43.2177C47.7243 37.5788 47.4387 35.4436 46.8261 33.9965C46.6127 33.4921 46.7426 33.451 48.0928 33.5959C50.0607 33.8077 56.7576 36.0352 65.2624 39.3072C72.3087 42.0182 73.167 42.4231 72.7061 42.8193C72.2524 43.2097 66.5748 42.4908 61.3331 41.3793C55.5867 40.1606 54.9281 40.096 55.5866 40.8155C56.1164 41.3944 59.9192 43.1689 62.5235 44.0523C66.3185 45.3396 65.6834 46.2431 61.5237 45.4741C58.4272 44.9013 55.7949 43.8541 54.1386 42.5356C52.3033 41.0742 51.6107 41.379 52.544 43.2366C53.1177 44.378 55.0024 45.4252 58.4602 46.5243C63.0794 47.9922 63.5447 48.6712 59.9311 48.6712C58.3535 48.6712 57.1386 48.4085 54.8098 47.5635C53.1306 46.9543 51.6795 46.5259 51.5854 46.6112C51.2214 46.941 52.6316 49.0279 53.4783 49.4127C53.9685 49.6356 55.3456 49.987 56.5384 50.1941C59.1273 50.6435 60.3351 51.1022 60.3351 51.6363C60.3351 52.3673 57.7672 52.6578 54.881 52.2532L53.3471 52.0384L54.5402 52.974C56.8949 54.8208 59.4239 54.9407 64.6004 53.4512C68.1316 52.435 70.3817 52.4538 69.6014 53.4933C69.0144 54.2749 66.7875 55.4788 64.7664 56.1063C63.1367 56.6125 61.7395 56.7974 59.4829 56.8051C56.8295 56.8147 56.1242 56.6975 54.263 55.9381C51.7259 54.903 50.0706 53.3038 49.0991 50.9495C48.5776 49.686 48.342 47.931 48.0608 43.2177ZM86.3408 44.8676C84.8529 44.3657 81.1285 41.6729 81.1285 41.099C81.1285 40.3204 83.0657 40.5525 87.1497 41.8204C91.0088 43.0184 92.7183 43.7979 92.7183 44.3589C92.7183 45.2286 88.4263 45.5708 86.3408 44.8676Z" fill="#00448E"/>
</svg>
