<svg width="19" height="26" viewBox="0 0 19 26" fill="none" xmlns="http://www.w3.org/2000/svg">
<path d="M4.86654 24.818C-1.5041 18.5057 -1.54198 8.23345 4.76087 1.87228C5.03781 1.59278 5.4687 1.54519 5.79855 1.74924L8.97252 3.71282C9.13988 3.81634 9.26553 3.97539 9.32752 4.16216C9.38951 4.34894 9.38389 4.55155 9.31165 4.7346L7.74746 8.69795C7.68064 8.86726 7.56059 9.01025 7.40541 9.10537C7.25023 9.20049 7.06833 9.24259 6.88714 9.22531L4.16081 8.9654C3.14604 11.8149 3.18192 14.95 4.20118 17.7307L6.92504 17.4456C7.10607 17.4267 7.28835 17.4671 7.4444 17.5608C7.60045 17.6545 7.72181 17.7964 7.79019 17.965L9.39081 21.9139C9.46473 22.0962 9.47221 22.2988 9.41194 22.4861C9.35167 22.6735 9.2275 22.8337 9.0611 22.9387L5.90535 24.9315C5.74487 25.0328 5.55479 25.0767 5.36613 25.0561C5.17747 25.0355 5.00136 24.9516 4.86654 24.818ZM12.088 4.69208C12.6703 5.66827 12.6759 6.88706 12.1027 7.86856C11.9113 8.19625 11.4644 8.26013 11.1893 7.9988L10.8963 7.72055C10.7045 7.53843 10.6601 7.25181 10.7826 7.01746C10.9006 6.79159 10.9616 6.54035 10.9604 6.28555C10.9593 6.03075 10.8959 5.78008 10.7759 5.55531C10.6511 5.32209 10.6929 5.03508 10.8831 4.8512L11.1735 4.57027C11.4462 4.30641 11.8937 4.36617 12.088 4.69208ZM16.5493 0.219001C19.5019 3.70173 19.523 8.79339 16.6049 12.3003C16.3877 12.5614 15.9944 12.5837 15.7481 12.3498L15.4638 12.0798C15.2401 11.8674 15.2181 11.518 15.4147 11.2803C17.8274 8.36198 17.8059 4.14353 15.3685 1.24999C15.1698 1.01408 15.1885 0.664481 15.4102 0.45003L15.692 0.177391C15.9362 -0.0587452 16.3296 -0.0400978 16.5493 0.219001ZM14.3147 2.4237C16.0853 4.67739 16.1027 7.84272 14.3501 10.1163C14.137 10.3927 13.7315 10.4244 13.4785 10.184L13.1932 9.91288C12.9774 9.70786 12.9467 9.37226 13.1269 9.1353C14.4148 7.44165 14.4039 5.09754 13.1005 3.41592C12.9182 3.18063 12.9458 2.8448 13.1597 2.63776L13.4425 2.36404C13.6933 2.12133 14.0991 2.14925 14.3147 2.4237Z" fill="#00448E"/>
</svg>
